<svg width="307" height="229" viewBox="0 0 307 229" fill="none" xmlns="http://www.w3.org/2000/svg">
<path d="M248.323 28.1929H221.193V66.652H248.323V28.1929Z" fill="#EBEBEB"/>
<path d="M221.193 28.188H220.207V66.6472H221.193V28.188Z" fill="#E0E0E0"/>
<path d="M245.213 31.667H224.299V63.1676H245.213V31.667Z" fill="white"/>
<path d="M234.76 46.1685C237.103 46.1685 239.002 44.0434 239.002 41.4219C239.002 38.8004 237.103 36.6753 234.76 36.6753C232.417 36.6753 230.518 38.8004 230.518 41.4219C230.518 44.0434 232.417 46.1685 234.76 46.1685Z" fill="#E0E0E0"/>
<path d="M241.159 50.9717H228.361V53.1463H241.159V50.9717Z" fill="#E0E0E0"/>
<path d="M241.159 54.6147H228.361V56.7893H241.159V54.6147Z" fill="#E0E0E0"/>
<path d="M285.121 65.3794H260.294V100.573H285.121V65.3794Z" fill="#EBEBEB"/>
<path d="M260.294 65.375H259.392V100.569H260.294V65.375Z" fill="#E0E0E0"/>
<path d="M282.275 68.5591H263.136V97.3854H282.275V68.5591Z" fill="white"/>
<path d="M272.709 81.8293C274.853 81.8293 276.591 79.8846 276.591 77.4857C276.591 75.0868 274.853 73.1421 272.709 73.1421C270.565 73.1421 268.827 75.0868 268.827 77.4857C268.827 79.8846 270.565 81.8293 272.709 81.8293Z" fill="#E0E0E0"/>
<path d="M278.565 86.2246H266.854V88.2146H278.565V86.2246Z" fill="#E0E0E0"/>
<path d="M278.565 89.5581H266.854V91.5481H278.565V89.5581Z" fill="#E0E0E0"/>
<path d="M231.181 129.77H29.1172V135.727H231.181V129.77Z" fill="#F5F5F5"/>
<path d="M121.827 48.7378H118.642V41.0074C118.642 40.4103 119.074 39.9263 119.608 39.9263H120.874C121.407 39.9263 121.84 40.4103 121.84 41.0074V48.7378H121.827Z" fill="#F5F5F5"/>
<path d="M121.012 38.5713H119.454C119.365 38.5713 119.292 38.652 119.292 38.7515V39.7606C119.292 39.8601 119.365 39.9408 119.454 39.9408H121.012C121.101 39.9408 121.173 39.8601 121.173 39.7606V38.7515C121.173 38.652 121.101 38.5713 121.012 38.5713Z" fill="#E6E6E6"/>
<path d="M134.733 48.7428H129.497V36.0491C129.497 35.0738 130.203 34.2832 131.075 34.2832H133.173C134.045 34.2832 134.751 35.0738 134.751 36.0491V48.7428H134.733Z" fill="#F5F5F5"/>
<path d="M133.396 32.0293H130.838C130.692 32.0293 130.573 32.1618 130.573 32.3253V33.9822C130.573 34.1457 130.692 34.2783 130.838 34.2783H133.396C133.542 34.2783 133.66 34.1457 133.66 33.9822V32.3253C133.66 32.1618 133.542 32.0293 133.396 32.0293Z" fill="#E6E6E6"/>
<path d="M127.839 48.7374H123.249V37.5967C123.249 36.7362 123.872 36.0386 124.641 36.0386H126.465C127.234 36.0386 127.858 36.7362 127.858 37.5967V48.7374H127.839Z" fill="#F5F5F5"/>
<path d="M126.665 34.0859H124.418C124.29 34.0859 124.186 34.2022 124.186 34.3456V35.7999C124.186 35.9433 124.29 36.0596 124.418 36.0596H126.665C126.793 36.0596 126.897 35.9433 126.897 35.7999V34.3456C126.897 34.2022 126.793 34.0859 126.665 34.0859Z" fill="#E6E6E6"/>
<path d="M145.683 48.7431H136.789V36.9116C136.789 35.8129 137.585 34.9224 138.567 34.9224H143.91C144.892 34.9224 145.688 35.8129 145.688 36.9116V48.7431H145.683Z" fill="#E6E6E6"/>
<path d="M142.642 36.3921H139.834V32.6578C139.834 32.3107 140.085 32.0293 140.396 32.0293H142.081C142.391 32.0293 142.642 32.3107 142.642 32.6578V36.3921Z" fill="#E6E6E6"/>
<path d="M152.301 48.4424H114.637V52.5848H152.301V48.4424Z" fill="#E0E0E0"/>
<path d="M132.187 79.8341V67.1404C132.187 66.1651 132.893 65.3745 133.765 65.3745H135.863C136.735 65.3745 137.441 66.1651 137.441 67.1404V79.8341H132.187Z" fill="#F5F5F5"/>
<path d="M136.1 63.1206H133.542C133.396 63.1206 133.277 63.2532 133.277 63.4167V65.0735C133.277 65.237 133.396 65.3695 133.542 65.3695H136.1C136.246 65.3695 136.364 65.237 136.364 65.0735V63.4167C136.364 63.2532 136.246 63.1206 136.1 63.1206Z" fill="#E6E6E6"/>
<path d="M139.08 79.8288V68.688C139.08 67.8275 139.704 67.1299 140.473 67.1299H142.297C143.066 67.1299 143.69 67.8275 143.69 68.688V79.8288H139.08Z" fill="#F5F5F5"/>
<path d="M142.52 65.1772H140.273C140.145 65.1772 140.041 65.2935 140.041 65.4369V66.8912C140.041 67.0346 140.145 67.1509 140.273 67.1509H142.52C142.648 67.1509 142.752 67.0346 142.752 66.8912V65.4369C142.752 65.2935 142.648 65.1772 142.52 65.1772Z" fill="#E6E6E6"/>
<path d="M121.25 79.8344V68.0029C121.25 66.9043 122.046 66.0137 123.028 66.0137H128.371C129.353 66.0137 130.149 66.9043 130.149 68.0029V79.8344H121.25Z" fill="#E6E6E6"/>
<path d="M124.295 67.4834V63.7491C124.295 63.402 124.547 63.1206 124.857 63.1206H126.542C126.852 63.1206 127.104 63.402 127.104 63.7491V67.4834H124.295Z" fill="#E6E6E6"/>
<path d="M114.637 83.6763H152.301V79.5338H114.637V83.6763Z" fill="#E0E0E0"/>
<path d="M37.4412 41.5464H22.9048V80.671H37.4412V41.5464Z" fill="#F5F5F5"/>
<path d="M29.3797 34.6465L22.9048 41.0359V52.0541L37.257 38.9131L29.3797 34.6465Z" fill="#E6E6E6"/>
<path d="M39.2158 40.1235H21.1299V42.9693H39.2158V40.1235Z" fill="#E0E0E0"/>
<path d="M37.4411 41.5464H22.9771V40.086C22.9771 35.617 26.215 31.9941 30.2091 31.9941C34.2033 31.9941 37.4411 35.617 37.4411 40.086V41.5464Z" fill="#E0E0E0"/>
<path d="M37.4412 46.3369L22.9048 60.6815V71.6998L37.4412 57.9789V46.3369Z" fill="#EBEBEB"/>
<path d="M22.9048 80.6395L23.0013 82.6626L31.8753 83.1905L37.4413 77.9369V66.2949L22.9048 80.6395Z" fill="#E6E6E6"/>
<path d="M21.1299 82.7427H39.2158V79.897H21.1299V82.7427Z" fill="#E0E0E0"/>
<path d="M30.081 90.8936C26.0895 90.8936 22.8489 87.2677 22.8489 82.8017V81.3413H37.313V82.8017C37.313 87.2677 34.0724 90.8936 30.081 90.8936Z" fill="#E0E0E0"/>
<path opacity="0.5" d="M27.2148 42.9692H24.7749V79.897H27.2148V42.9692Z" fill="white"/>
<path d="M37.8628 149.061L39.4152 150.902C39.4152 150.902 40.378 148.491 41.798 147.54C42.0657 147.35 42.1455 146.954 41.9761 146.654C41.9404 146.591 41.8951 146.535 41.8421 146.489L40.9877 145.731C40.7739 145.536 40.4674 145.536 40.2536 145.731C39.6278 146.35 38.3722 147.674 37.8628 149.061Z" fill="#E0E0E0"/>
<path d="M37.574 145.951L43.2301 155.264L40.021 158.855L31.6972 152.526C29.7633 151.053 29.263 148.105 30.5797 145.941C30.7283 145.697 30.8969 145.469 31.0835 145.26C32.7413 143.412 35.4234 143.419 37.0742 145.274C37.2591 145.482 37.4264 145.708 37.574 145.951Z" fill="#EBEBEB"/>
<path d="M35.9575 145.906L38.8939 150.331C38.8939 150.331 41.5294 145.394 44.8188 143.742C45.4395 143.408 45.7002 142.574 45.4011 141.879C45.3403 141.738 45.2587 141.609 45.1597 141.498L43.4709 139.609C43.0473 139.135 42.383 139.063 41.8864 139.438C40.3942 140.551 37.3775 143.051 35.9575 145.906Z" fill="#EBEBEB"/>
<path d="M161.63 149.203L163.182 151.044C163.182 151.044 164.145 148.633 165.565 147.682C165.833 147.492 165.913 147.096 165.743 146.796C165.707 146.733 165.662 146.677 165.609 146.632L164.755 145.873C164.541 145.678 164.235 145.678 164.021 145.873C163.395 146.492 162.139 147.816 161.63 149.203Z" fill="#E0E0E0"/>
<path d="M161.341 146.093L166.997 155.406L163.788 158.997L155.464 152.668C153.53 151.195 153.03 148.247 154.347 146.083C154.495 145.839 154.664 145.611 154.851 145.402C156.508 143.555 159.19 143.561 160.841 145.416C161.026 145.624 161.194 145.85 161.341 146.093Z" fill="#EBEBEB"/>
<path d="M159.725 146.048L162.661 150.473C162.661 150.473 165.296 145.536 168.586 143.885C169.207 143.55 169.467 142.716 169.168 142.021C169.107 141.88 169.026 141.751 168.927 141.64L167.238 139.751C166.814 139.277 166.15 139.205 165.654 139.58C164.161 140.693 161.145 143.193 159.725 146.048Z" fill="#EBEBEB"/>
<path d="M39.1746 129.757H35.2803V120.306C35.2803 119.576 35.8091 118.984 36.4616 118.984H38.0091C38.6615 118.984 39.1903 119.576 39.1903 120.306V129.757H39.1746Z" fill="#EBEBEB"/>
<path d="M38.1784 117.328H36.2726C36.1638 117.328 36.0757 117.426 36.0757 117.548V118.782C36.0757 118.903 36.1638 119.002 36.2726 119.002H38.1784C38.2871 119.002 38.3753 118.903 38.3753 118.782V117.548C38.3753 117.426 38.2871 117.328 38.1784 117.328Z" fill="#E0E0E0"/>
<path d="M50.6429 129.756H46.7485V123.33C46.7485 122.833 47.2774 122.431 47.9298 122.431H49.4773C50.1298 122.431 50.6586 122.833 50.6586 123.33V129.756H50.6429Z" fill="#EBEBEB"/>
<path d="M49.6467 122.443H47.7408C47.6321 122.443 47.5439 122.341 47.5439 122.214V120.93C47.5439 120.803 47.6321 120.7 47.7408 120.7H49.6467C49.7554 120.7 49.8435 120.803 49.8435 120.93V122.214C49.8435 122.341 49.7554 122.443 49.6467 122.443Z" fill="#E0E0E0"/>
<path d="M45.3187 129.756H40.2114V117.362C40.2114 116.405 40.905 115.629 41.7606 115.629H43.7901C44.6457 115.629 45.3393 116.405 45.3393 117.362V129.756H45.3187Z" fill="#EBEBEB"/>
<path d="M44.012 113.457H41.5126C41.37 113.457 41.2544 113.586 41.2544 113.745V115.363C41.2544 115.523 41.37 115.652 41.5126 115.652H44.012C44.1546 115.652 44.2702 115.523 44.2702 115.363V113.745C44.2702 113.586 44.1546 113.457 44.012 113.457Z" fill="#E0E0E0"/>
<path d="M167.118 129.756H163.047V119.876C163.047 119.112 163.6 118.494 164.282 118.494H165.9C166.582 118.494 167.135 119.112 167.135 119.876V129.756H167.118Z" fill="#EBEBEB"/>
<path d="M176.565 129.756H170.009V119.876C170.009 119.112 170.899 118.494 171.997 118.494H174.603C175.701 118.494 176.591 119.112 176.591 119.876V129.756H176.565Z" fill="#EBEBEB"/>
<path d="M166.077 116.762H164.084C163.971 116.762 163.878 116.865 163.878 116.992V118.282C163.878 118.409 163.971 118.512 164.084 118.512H166.077C166.191 118.512 166.283 118.409 166.283 118.282V116.992C166.283 116.865 166.191 116.762 166.077 116.762Z" fill="#E0E0E0"/>
<path d="M174.322 116.762H172.329C172.216 116.762 172.124 116.865 172.124 116.992V118.282C172.124 118.409 172.216 118.512 172.329 118.512H174.322C174.436 118.512 174.528 118.409 174.528 118.282V116.992C174.528 116.865 174.436 116.762 174.322 116.762Z" fill="#E0E0E0"/>
<path d="M275.782 145.716H201.797C200.473 145.716 199.397 144.512 199.397 143.031V22.4518C199.397 20.9714 200.473 19.7671 201.797 19.7671H275.782C277.105 19.7671 278.182 20.9714 278.182 22.4518V143.031C278.182 144.512 277.105 145.716 275.782 145.716ZM201.797 19.8816C200.53 19.8816 199.499 21.0347 199.499 22.4518V143.031C199.499 144.448 200.53 145.601 201.797 145.601H275.782C277.049 145.601 278.079 144.448 278.079 143.031V22.4518C278.079 21.0347 277.049 19.8816 275.782 19.8816H201.797Z" fill="#E0E0E0"/>
<path d="M190.466 145.716H116.48C115.157 145.716 114.081 144.512 114.081 143.031V22.4518C114.081 20.9714 115.157 19.7671 116.48 19.7671H190.466C191.789 19.7671 192.865 20.9714 192.865 22.4518V143.031C192.865 144.512 191.789 145.716 190.466 145.716ZM116.48 19.8816C115.213 19.8816 114.183 21.0347 114.183 22.4518V143.031C114.183 144.448 115.213 145.601 116.48 145.601H190.466C191.732 145.601 192.763 144.448 192.763 143.031V22.4518C192.763 21.0347 191.732 19.8816 190.466 19.8816H116.48Z" fill="#E0E0E0"/>
<path d="M105.204 145.716H31.2183C29.8951 145.716 28.8188 144.512 28.8188 143.031V22.4518C28.8188 20.9714 29.8951 19.7671 31.2183 19.7671H105.204C106.527 19.7671 107.603 20.9714 107.603 22.4518V143.031C107.603 144.512 106.527 145.716 105.204 145.716ZM31.2183 19.8816C29.9517 19.8816 28.9212 21.0347 28.9212 22.4518V143.031C28.9212 144.448 29.9517 145.601 31.2183 145.601H105.204C106.471 145.601 107.501 144.448 107.501 143.031V22.4518C107.501 21.0347 106.471 19.8816 105.204 19.8816H31.2183Z" fill="#E0E0E0"/>
<path d="M307 173.686H0V173.742H307V173.686Z" fill="#E0E0E0"/>
<path d="M290.363 187.14H267.551V187.333H290.363V187.14Z" fill="#EBEBEB"/>
<path d="M208.625 189.231H202.638V189.424H208.625V189.231Z" fill="#EBEBEB"/>
<path d="M46.3853 181.279H16.6372V181.471H46.3853V181.279Z" fill="#EBEBEB"/>
<path d="M56.8787 181.279H52.5171V181.471H56.8787V181.279Z" fill="#EBEBEB"/>
<path d="M135.57 184.533H71.0542V184.725H135.57V184.533Z" fill="#EBEBEB"/>
<path d="M238.999 205.364C238.999 206.915 200.72 208.173 153.5 208.173C106.28 208.173 68.0005 206.915 68.0005 205.364C68.0005 203.813 106.28 202.556 153.5 202.556C200.72 202.556 238.999 203.813 238.999 205.364Z" fill="#F5F5F5"/>
<path d="M39.7596 187.86C39.753 187.628 39.0549 164.576 35.7037 160.93C32.4443 157.384 28.7033 160.798 28.546 160.944L28.21 160.494C28.2523 160.454 32.4742 156.598 36.0694 160.509C39.5711 164.319 40.2563 186.883 40.2836 187.842L39.7596 187.86Z" fill="#263238"/>
<path d="M40.0474 192.391C40.0233 192.115 37.7571 164.716 46.6998 153.233L47.0953 153.618C38.3007 164.911 40.5458 192.061 40.5693 192.333L40.0474 192.391Z" fill="#263238"/>
<path d="M39.7167 189.493L39.1932 189.454C39.2116 189.143 40.9435 158.305 34.3838 151.554L34.7387 151.122C41.4823 158.063 39.7919 188.212 39.7167 189.493Z" fill="#263238"/>
<path d="M40.5704 189.475L40.0459 189.47C40.0523 188.621 40.2623 168.641 45.3348 165.388C46.4624 164.664 47.5665 164.544 48.6168 165.03C51.684 166.45 53.204 172.557 53.2672 172.816L52.7612 172.971C52.7463 172.91 51.2455 166.881 48.4157 165.572C47.5238 165.16 46.5752 165.269 45.5956 165.897C40.7822 168.983 40.572 189.271 40.5704 189.475Z" fill="#263238"/>
<path d="M38.5952 189.49L38.0718 189.457C38.0797 189.299 38.8371 173.667 35.0666 168.16C34.1531 166.825 33.1614 166.189 32.1137 166.271C29.6433 166.464 27.5716 170.509 27.5511 170.55L27.0942 170.261C27.1842 170.084 29.3245 165.902 32.0763 165.686C33.3074 165.588 34.455 166.302 35.483 167.803C39.3718 173.483 38.6288 188.839 38.5952 189.49Z" fill="#263238"/>
<path d="M39.422 191.616C39.3193 190.099 36.9572 154.407 41.1132 148.118L41.5348 148.466C37.4937 154.582 39.92 191.202 39.9449 191.571L39.422 191.616Z" fill="#263238"/>
<path d="M50.4995 167.001C50.4995 167.001 47.8471 168.098 48.7475 170.457C51.2846 177.107 57.332 177.815 57.332 177.815C57.332 177.815 60.1697 172.789 57.8437 168.885C54.6369 163.503 50.5669 165.263 50.4995 167.001Z" fill="#151414"/>
<path d="M38.9081 164.026C38.9081 164.026 41.5631 163.901 41.714 166.461C41.8649 169.022 35.9622 176.105 35.9622 176.105C35.9622 176.105 31.75 174.401 32.6547 168.012C33.5595 161.623 38.2483 162.451 38.9081 164.026Z" fill="#151414"/>
<path d="M40.1955 149.105C40.1955 149.105 39.0805 148.952 38.6611 147.829C37.4102 144.48 41.7089 140.868 47.4564 142.777C47.4564 142.777 47.6086 148.436 44.5157 150.668C41.4228 152.9 40.1955 149.105 40.1955 149.105Z" fill="#151414"/>
<path d="M30.3459 166.655C30.3459 166.655 31.2711 165.236 29.873 165.096C28.475 164.957 22.4231 167.992 24.0145 174.937C24.0145 174.937 31.7986 172.097 32.0685 169.189C32.3385 166.281 30.3459 166.655 30.3459 166.655Z" fill="#151414"/>
<path d="M46.9417 151.59C46.9417 151.59 47.2914 150.301 48.6097 149.763C49.9281 149.224 54.8259 149.562 54.8933 156.732C54.8933 156.732 47.3589 158.133 46.4264 155.402C45.4938 152.671 46.9417 151.59 46.9417 151.59Z" fill="#151414"/>
<path d="M42.8753 157.548C42.8753 157.548 43.3818 156.565 44.3498 157.091C45.3178 157.617 48.1717 160.903 45.4503 164.869C45.4503 164.869 40.3935 161.467 40.8067 159.08C41.1877 156.879 42.8753 157.548 42.8753 157.548Z" fill="#151414"/>
<path d="M30.4858 159.278C30.4858 159.278 31.2161 158.207 30.1467 158.074C29.0771 157.942 24.284 159.373 25.4003 164.727C25.4003 164.727 31.2395 164.236 31.4898 162.012C31.74 159.788 30.4858 159.278 30.4858 159.278Z" fill="#151414"/>
<path d="M47.1818 203.795H32.9098L31.3701 187.271H48.7215L47.1818 203.795Z" fill="#263238"/>
<path d="M51.1218 185.008H28.9702V189.535H51.1218V185.008Z" fill="#263238"/>
<path opacity="0.3" d="M35.4408 173.859C35.3907 173.859 35.3469 173.818 35.3397 173.761C34.9212 170.432 36.3279 166.485 38.8396 163.94C38.8816 163.899 38.9462 163.902 38.9843 163.948C39.0221 163.995 39.0189 164.068 38.9771 164.11C36.5133 166.606 35.133 170.471 35.5424 173.728C35.5502 173.791 35.5112 173.849 35.4552 173.858C35.4504 173.859 35.4456 173.859 35.4408 173.859Z" fill="black"/>
<path opacity="0.3" d="M45.2549 162.818C45.2071 162.818 45.1643 162.781 45.1547 162.726C44.8269 160.888 43.9919 159.147 42.8031 157.826C42.7631 157.781 42.7629 157.709 42.8027 157.664C42.8424 157.618 42.9072 157.619 42.9474 157.663C44.1646 159.016 45.0198 160.799 45.3554 162.681C45.3664 162.743 45.3304 162.803 45.275 162.816C45.2682 162.817 45.2617 162.818 45.2549 162.818Z" fill="black"/>
<path opacity="0.3" d="M56.3272 173.494C56.2895 173.494 56.2529 173.47 56.2353 173.429C55.0703 170.752 52.8027 168.271 50.4583 167.106C50.4067 167.08 50.3833 167.012 50.4063 166.955C50.4295 166.897 50.4901 166.871 50.5414 166.897C52.9273 168.082 55.2346 170.607 56.4192 173.329C56.444 173.386 56.4228 173.454 56.372 173.482C56.3576 173.49 56.3424 173.494 56.3272 173.494Z" fill="black"/>
<path opacity="0.3" d="M53.4871 154.962C53.4533 154.962 53.42 154.943 53.4006 154.908C52.7186 153.698 51.6853 152.752 50.4913 152.242C49.2247 151.701 48.161 151.319 46.9704 151.701C46.9148 151.719 46.8592 151.683 46.8438 151.622C46.8283 151.561 46.8596 151.498 46.914 151.48C48.1662 151.079 49.2619 151.472 50.5642 152.028C51.7994 152.555 52.8681 153.534 53.5737 154.786C53.6038 154.839 53.5895 154.91 53.5417 154.944C53.5247 154.956 53.5059 154.962 53.4871 154.962Z" fill="black"/>
<path d="M36.3745 152.798C36.3745 152.798 38.1423 153.034 38.2447 151.823C38.3472 150.611 32.4009 145.897 27.5215 149.795C27.5215 149.795 29.0236 155.201 32.5974 156.185C36.1711 157.169 36.3745 152.798 36.3745 152.798Z" fill="#151414"/>
<path opacity="0.3" d="M36.3195 153.011C36.2883 153.011 36.2575 152.995 36.2373 152.965C34.4545 150.284 29.933 149.299 28.3778 149.931C28.3255 149.951 28.2659 149.921 28.2469 149.862C28.2275 149.802 28.2551 149.736 28.3083 149.715C29.8895 149.075 34.5 149.97 36.4016 152.828C36.4354 152.879 36.4258 152.951 36.3806 152.989C36.3622 153.004 36.3408 153.011 36.3195 153.011Z" fill="black"/>
<path opacity="0.3" d="M26.5598 162.755C26.5416 162.755 26.5232 162.749 26.5067 162.738C26.4583 162.705 26.4431 162.635 26.4725 162.581C27.4752 160.739 29.4286 159.714 30.5037 159.267C30.556 159.244 30.6154 159.276 30.6352 159.335C30.6548 159.394 30.6278 159.46 30.5748 159.482C29.5247 159.918 27.6179 160.917 26.6472 162.7C26.628 162.735 26.5942 162.755 26.5598 162.755Z" fill="black"/>
<path opacity="0.3" d="M24.8465 172.416C24.8305 172.416 24.8143 172.412 24.7991 172.403C24.7492 172.374 24.7296 172.304 24.7558 172.248C25.944 169.698 27.9815 167.591 30.3461 166.467C30.3977 166.443 30.458 166.469 30.4802 166.527C30.5024 166.586 30.4782 166.653 30.4261 166.678C28.1046 167.782 26.1039 169.851 24.9372 172.354C24.9191 172.393 24.8833 172.416 24.8465 172.416Z" fill="black"/>
<path opacity="0.3" d="M40.4296 149.085C40.415 149.085 40.4002 149.081 40.3862 149.074C40.335 149.047 40.3128 148.979 40.3368 148.922C41.2922 146.64 43.144 144.823 45.29 144.062C45.3448 144.042 45.4015 144.076 45.4185 144.136C45.4357 144.196 45.4057 144.261 45.3519 144.28C43.2593 145.022 41.4539 146.794 40.5223 149.019C40.5049 149.061 40.4679 149.085 40.4296 149.085Z" fill="black"/>
<path opacity="0.3" d="M31.5811 189.535L31.8574 192.502H48.2342L48.5108 189.532L31.5811 189.535Z" fill="black"/>
<path d="M273.829 187.86C273.823 187.628 273.125 164.576 269.773 160.93C266.514 157.384 262.773 160.798 262.616 160.944L262.28 160.494C262.322 160.454 266.544 156.598 270.139 160.509C273.641 164.319 274.326 186.883 274.353 187.842L273.829 187.86Z" fill="#263238"/>
<path d="M274.117 192.391C274.093 192.115 271.827 164.716 280.77 153.233L281.165 153.618C272.371 164.911 274.616 192.061 274.639 192.333L274.117 192.391Z" fill="#263238"/>
<path d="M273.787 189.493L273.263 189.454C273.281 189.143 275.013 158.305 268.454 151.554L268.809 151.122C275.552 158.063 273.862 188.212 273.787 189.493Z" fill="#263238"/>
<path d="M274.64 189.475L274.116 189.47C274.122 188.621 274.332 168.641 279.405 165.388C280.532 164.664 281.636 164.544 282.687 165.03C285.754 166.45 287.274 172.557 287.337 172.816L286.831 172.971C286.816 172.91 285.315 166.881 282.486 165.572C281.594 165.16 280.645 165.269 279.665 165.897C274.852 168.983 274.642 189.271 274.64 189.475Z" fill="#263238"/>
<path d="M272.665 189.49L272.142 189.457C272.15 189.299 272.907 173.667 269.136 168.16C268.223 166.825 267.231 166.189 266.184 166.271C263.713 166.464 261.641 170.509 261.621 170.55L261.164 170.261C261.254 170.084 263.394 165.902 266.146 165.686C267.377 165.588 268.525 166.302 269.553 167.803C273.442 173.483 272.699 188.839 272.665 189.49Z" fill="#263238"/>
<path d="M273.492 191.616C273.389 190.099 271.027 154.407 275.183 148.118L275.605 148.466C271.564 154.582 273.99 191.202 274.015 191.571L273.492 191.616Z" fill="#263238"/>
<path d="M284.569 167.001C284.569 167.001 281.917 168.098 282.817 170.457C285.354 177.107 291.402 177.815 291.402 177.815C291.402 177.815 294.239 172.789 291.914 168.885C288.707 163.503 284.637 165.263 284.569 167.001Z" fill="#151414"/>
<path d="M272.978 164.026C272.978 164.026 275.633 163.901 275.784 166.461C275.935 169.022 270.032 176.105 270.032 176.105C270.032 176.105 265.82 174.401 266.725 168.012C267.629 161.623 272.318 162.451 272.978 164.026Z" fill="#151414"/>
<path d="M274.265 149.105C274.265 149.105 273.15 148.952 272.731 147.829C271.48 144.48 275.779 140.868 281.526 142.777C281.526 142.777 281.678 148.436 278.586 150.668C275.493 152.9 274.265 149.105 274.265 149.105Z" fill="#151414"/>
<path d="M264.416 166.655C264.416 166.655 265.341 165.236 263.943 165.096C262.545 164.957 256.493 167.992 258.084 174.937C258.084 174.937 265.868 172.097 266.138 169.189C266.408 166.281 264.416 166.655 264.416 166.655Z" fill="#151414"/>
<path d="M281.011 151.59C281.011 151.59 281.361 150.301 282.68 149.763C283.998 149.224 288.896 149.562 288.963 156.732C288.963 156.732 281.429 158.133 280.496 155.402C279.564 152.671 281.011 151.59 281.011 151.59Z" fill="#151414"/>
<path d="M276.945 157.548C276.945 157.548 277.452 156.565 278.42 157.091C279.388 157.617 282.242 160.903 279.52 164.869C279.52 164.869 274.463 161.467 274.877 159.08C275.257 156.879 276.945 157.548 276.945 157.548Z" fill="#151414"/>
<path d="M264.556 159.278C264.556 159.278 265.286 158.207 264.216 158.074C263.147 157.942 258.354 159.373 259.47 164.727C259.47 164.727 265.309 164.236 265.56 162.012C265.81 159.788 264.556 159.278 264.556 159.278Z" fill="#151414"/>
<path d="M281.252 203.795H266.98L265.44 187.271H282.791L281.252 203.795Z" fill="#263238"/>
<path d="M285.192 185.008H263.04V189.535H285.192V185.008Z" fill="#263238"/>
<path opacity="0.3" d="M269.511 173.859C269.461 173.859 269.417 173.818 269.409 173.761C268.991 170.431 270.398 166.485 272.91 163.94C272.952 163.898 273.016 163.901 273.054 163.949C273.092 163.995 273.089 164.068 273.047 164.11C270.583 166.606 269.203 170.471 269.612 173.728C269.62 173.791 269.581 173.849 269.525 173.858C269.521 173.859 269.516 173.859 269.511 173.859Z" fill="black"/>
<path opacity="0.3" d="M279.325 162.818C279.277 162.818 279.234 162.781 279.224 162.726C278.897 160.888 278.062 159.147 276.873 157.826C276.833 157.781 276.833 157.709 276.872 157.664C276.912 157.619 276.977 157.619 277.017 157.663C278.234 159.017 279.089 160.799 279.425 162.681C279.436 162.743 279.4 162.803 279.345 162.816C279.338 162.817 279.331 162.818 279.325 162.818Z" fill="black"/>
<path opacity="0.3" d="M290.397 173.494C290.359 173.494 290.323 173.47 290.305 173.429C289.14 170.752 286.872 168.27 284.528 167.106C284.476 167.08 284.453 167.012 284.476 166.955C284.499 166.897 284.56 166.871 284.611 166.897C286.997 168.081 289.304 170.607 290.489 173.329C290.514 173.386 290.493 173.454 290.442 173.482C290.427 173.49 290.412 173.494 290.397 173.494Z" fill="black"/>
<path opacity="0.3" d="M287.556 154.962C287.522 154.962 287.489 154.943 287.47 154.909C286.788 153.699 285.755 152.752 284.561 152.242C283.294 151.702 282.23 151.319 281.04 151.701C280.984 151.718 280.929 151.683 280.913 151.622C280.898 151.562 280.929 151.498 280.983 151.481C282.234 151.079 283.331 151.473 284.634 152.029C285.869 152.555 286.938 153.535 287.643 154.786C287.673 154.84 287.659 154.91 287.611 154.944C287.594 154.956 287.575 154.962 287.556 154.962Z" fill="black"/>
<path d="M270.444 152.798C270.444 152.798 272.212 153.034 272.314 151.823C272.417 150.611 266.471 145.897 261.591 149.795C261.591 149.795 263.093 155.201 266.667 156.185C270.241 157.169 270.444 152.798 270.444 152.798Z" fill="#151414"/>
<path opacity="0.3" d="M270.389 153.011C270.358 153.011 270.327 152.995 270.307 152.965C268.524 150.284 264.004 149.3 262.448 149.931C262.394 149.951 262.336 149.921 262.317 149.862C262.297 149.802 262.325 149.736 262.378 149.715C263.961 149.075 268.571 149.97 270.471 152.828C270.505 152.879 270.496 152.951 270.451 152.989C270.432 153.004 270.411 153.011 270.389 153.011Z" fill="black"/>
<path opacity="0.3" d="M260.63 162.754C260.611 162.754 260.593 162.749 260.577 162.738C260.528 162.705 260.513 162.635 260.542 162.58C261.545 160.739 263.498 159.714 264.574 159.267C264.626 159.245 264.685 159.275 264.705 159.335C264.725 159.394 264.698 159.46 264.645 159.482C263.595 159.918 261.688 160.917 260.717 162.699C260.698 162.735 260.664 162.754 260.63 162.754Z" fill="black"/>
<path opacity="0.3" d="M258.916 172.416C258.9 172.416 258.884 172.411 258.869 172.403C258.819 172.373 258.8 172.304 258.826 172.248C260.014 169.698 262.051 167.591 264.416 166.466C264.467 166.444 264.528 166.468 264.55 166.527C264.572 166.585 264.548 166.652 264.496 166.678C262.175 167.782 260.174 169.851 259.007 172.354C258.989 172.393 258.953 172.416 258.916 172.416Z" fill="black"/>
<path opacity="0.3" d="M274.499 149.085C274.484 149.085 274.47 149.081 274.455 149.074C274.404 149.047 274.382 148.979 274.406 148.922C275.362 146.64 277.213 144.823 279.36 144.062C279.412 144.044 279.471 144.076 279.488 144.136C279.505 144.196 279.475 144.261 279.421 144.28C277.329 145.022 275.523 146.794 274.592 149.019C274.574 149.061 274.537 149.085 274.499 149.085Z" fill="black"/>
<path opacity="0.3" d="M265.651 189.535L265.927 192.502H282.304L282.581 189.532L265.651 189.535Z" fill="black"/>
<path d="M209.421 55.5626H209.765V57.949H209.421V55.5626ZM209.421 53.683H209.765V47.6606H209.421V53.683Z" fill="#151414"/>
<path d="M162.742 36.5781H161.452V113.445H162.742H208.561V36.5781H162.742Z" fill="#151414"/>
<path opacity="0.2" d="M163.271 80.9404C163.271 80.9404 169.665 74.962 173.056 82.374C176.446 89.786 176.058 94.0876 176.058 94.0876C176.058 94.0876 184.066 93.5064 185.306 95.2799C186.547 97.0534 188.191 113.068 188.191 113.068H163.252L163.271 80.9404Z" fill="#151414"/>
<path d="M100.739 55.5626H101.083V57.949H100.739V55.5626ZM100.739 53.683H101.083V47.6606H100.739V53.683Z" fill="#151414"/>
<path d="M54.0603 36.5781H52.77V113.445H54.0603H99.8785V36.5781H54.0603Z" fill="#151414"/>
<path opacity="0.2" d="M54.0603 36.5781H52.77V113.445H54.0603V36.5781Z" fill="black"/>
<path opacity="0.8" d="M99.66 36.9614H54.2817V113.057H99.66V36.9614Z" fill="white"/>
<path opacity="0.2" d="M77.5044 113.057H67.9092L75.4291 36.9614H85.0277L77.5044 113.057Z" fill="white"/>
<path opacity="0.2" d="M84.8867 113.057H80.8394L88.3627 36.9614H92.41L84.8867 113.057Z" fill="white"/>
<path opacity="0.2" d="M54.5886 80.9404C54.5886 80.9404 60.9832 74.962 64.3736 82.374C67.764 89.786 67.3758 94.0876 67.3758 94.0876C67.3758 94.0876 75.3836 93.5064 76.6242 95.2799C77.8648 97.0534 79.5084 113.068 79.5084 113.068H54.5703L54.5886 80.9404Z" fill="#151414"/>
<path d="M262.891 36.7673C258.641 33.2584 252.654 34.2688 249.518 39.024C247.097 42.6952 247.092 47.5196 249.167 51.1456L248.395 54.2409L251.412 53.8751C251.454 53.9113 251.492 53.9521 251.535 53.9876C255.785 57.4965 261.772 56.486 264.908 51.7308C268.044 46.9755 267.141 40.2761 262.891 36.7673Z" fill="#151414"/>
<path opacity="0.7" d="M262.891 36.7673C258.641 33.2584 252.654 34.2688 249.518 39.024C247.097 42.6952 247.092 47.5196 249.167 51.1456L248.395 54.2409L251.412 53.8751C251.454 53.9113 251.492 53.9521 251.535 53.9876C255.785 57.4965 261.772 56.486 264.908 51.7308C268.044 46.9755 267.141 40.2761 262.891 36.7673Z" fill="white"/>
<path d="M267.983 45.1025H267.979C267.923 45.1005 267.879 45.048 267.88 44.9847C267.971 41.5586 266.393 38.0988 263.861 36.17C263.814 36.1344 263.802 36.0633 263.834 36.011C263.866 35.9584 263.93 35.9454 263.976 35.9808C266.565 37.9523 268.178 41.4893 268.085 44.9914C268.083 45.0536 268.038 45.1025 267.983 45.1025Z" fill="#151414"/>
<path d="M267.662 48.2554C267.65 48.2554 267.638 48.253 267.626 48.2478C267.573 48.225 267.547 48.1588 267.567 48.0998C267.732 47.6212 267.808 47.0979 267.787 46.586C267.785 46.5229 267.828 46.4693 267.885 46.4666C267.942 46.4621 267.989 46.5122 267.992 46.5757C268.014 47.1187 267.933 47.6742 267.758 48.1821C267.742 48.2275 267.704 48.2554 267.662 48.2554Z" fill="#151414"/>
<path d="M256.592 45.9026C256.753 45.5966 256.988 45.2589 257.296 44.8895C257.523 44.6192 257.688 44.3917 257.795 44.2073C257.901 44.0228 257.954 43.8135 257.954 43.5788C257.954 43.2459 257.853 42.9825 257.651 42.7887C257.449 42.595 257.18 42.4984 256.844 42.4984C256.522 42.4984 256.236 42.5862 255.986 42.7619C255.736 42.9371 255.526 43.183 255.354 43.4978L254.111 42.5389C254.399 41.9626 254.787 41.5166 255.277 41.2014C255.767 40.8861 256.348 40.7285 257.019 40.7285C257.807 40.7285 258.439 40.9495 258.915 41.3906C259.391 41.8318 259.629 42.4442 259.629 43.2279C259.629 43.5973 259.583 43.9213 259.49 44.2005C259.398 44.4796 259.285 44.7162 259.151 44.9095C259.018 45.1032 258.844 45.3262 258.632 45.5786C258.379 45.8757 258.194 46.1256 258.077 46.3281C257.961 46.5306 257.902 46.7761 257.902 47.0644H256.351C256.351 46.596 256.431 46.209 256.592 45.9026ZM256.428 49.9972C256.24 49.7836 256.145 49.5237 256.145 49.2171C256.145 48.9109 256.238 48.6549 256.423 48.4493C256.608 48.2439 256.844 48.1408 257.132 48.1408C257.42 48.1408 257.656 48.2439 257.841 48.4493C258.026 48.6549 258.118 48.9109 258.118 49.2171C258.118 49.5237 258.024 49.7836 257.836 49.9972C257.647 50.2109 257.413 50.3174 257.132 50.3174C256.851 50.3174 256.616 50.2109 256.428 49.9972Z" fill="#151414"/>
<path d="M180.097 79.8973C177.175 75.6234 177.903 69.5086 181.722 66.2394C185.542 62.9701 191.007 63.7844 193.929 68.0582C196.185 71.3576 196.257 75.7495 194.418 79.0871L195.165 81.8914L192.413 81.6116C192.375 81.6453 192.342 81.683 192.303 81.7161C188.484 84.9854 183.019 84.171 180.097 79.8973Z" fill="#151414"/>
<path d="M177.635 71.0779C177.629 71.0779 177.622 71.0772 177.616 71.0761C177.561 71.0645 177.524 71.005 177.534 70.9426C178.05 67.8019 180.091 64.9944 182.734 63.7906C182.787 63.766 182.847 63.7946 182.868 63.8534C182.889 63.912 182.864 63.9789 182.812 64.0026C180.231 65.1778 178.239 67.9182 177.735 70.9842C177.726 71.0392 177.683 71.0779 177.635 71.0779Z" fill="#151414"/>
<path d="M177.381 73.9534C177.332 73.9534 177.288 73.9132 177.28 73.8568C177.211 73.3653 177.234 72.852 177.346 72.3726C177.361 72.3117 177.415 72.2733 177.471 72.2909C177.526 72.3068 177.559 72.3694 177.545 72.4307C177.439 72.8798 177.418 73.3606 177.483 73.821C177.491 73.8836 177.453 73.9422 177.397 73.9521C177.392 73.953 177.387 73.9534 177.381 73.9534Z" fill="#151414"/>
<path d="M187.024 78.0082L183.033 74.6831L184.07 73.1249L186.747 75.3544L190.424 70.4463L191.754 71.6943L187.024 78.0082Z" fill="white"/>
<path d="M224.758 51.3273C224.758 51.7886 224.577 52.1366 224.316 52.1852C224.056 52.2338 223.817 51.8453 223.796 51.3759C223.774 50.9065 223.969 50.5666 224.23 50.5181C224.49 50.4695 224.707 50.8822 224.758 51.3273Z" fill="#263238"/>
<path d="M224.591 51.2627C224.447 52.7497 224.118 54.2069 223.615 55.5925C224.267 55.8607 224.991 55.7957 225.597 55.4145L224.591 51.2627Z" fill="#A24E3F"/>
<path d="M225.503 49.8464C225.556 49.8523 225.609 49.8381 225.655 49.8059C225.748 49.7024 225.749 49.5333 225.657 49.4283L225.655 49.4255C225.172 48.7531 224.427 48.385 223.658 48.4382C223.531 48.451 223.437 48.5768 223.448 48.7192L223.448 48.7214C223.47 48.8651 223.586 48.9666 223.716 48.9561C224.326 48.9251 224.911 49.2268 225.286 49.7655C225.34 49.8334 225.423 49.8641 225.503 49.8464Z" fill="#263238"/>
<path d="M224.584 57.4536C224.638 57.6999 224.705 57.9426 224.784 58.1806C225.226 59.5389 226.031 60.7185 227.094 61.5648C227.361 61.7804 227.643 61.9723 227.938 62.139C230.252 63.5008 233.107 63.0014 234.923 60.9172C237.261 58.321 237.2 55.3217 237.466 50.2454C237.537 49.1545 237.375 48.0607 236.994 47.0505C235.655 43.5052 231.957 41.8254 228.734 43.2987L228.732 43.2998C224.223 45.3278 223.601 52.8782 224.584 57.4536Z" fill="#CD877B"/>
<path opacity="0.2" d="M227.11 61.5647C227.377 61.7803 227.66 61.9723 227.954 62.1389C229.52 63.0575 231.38 63.1474 233.013 62.3833C232.804 61.7731 232.526 61.1943 232.186 60.6606C230.45 60.4212 228.688 60.735 227.11 61.5647Z" fill="black"/>
<path d="M236.4 68.1498C234.124 70.4223 228.554 69.5853 228.554 69.5853C228.554 69.5853 225.078 68.5347 225.811 67.3435C227.854 66.9708 228.848 65.9202 229.259 64.5701C229.481 63.7361 229.551 62.8621 229.465 61.9984C229.432 61.5167 229.375 61.0374 229.293 60.5628L236.178 54.9551C235.279 58.6569 234.174 65.4681 236.4 68.1498Z" fill="#CD877B"/>
<path d="M227.11 52.8354L226.116 53.2446L226.61 51.0088C226.61 51.0088 225.156 48.5654 226.61 46.4456C226.61 46.4456 222.59 45.1018 224.861 42.7804C225.705 41.913 226.755 42.7804 229.531 41.4549C231.036 40.7279 235.745 40.6729 235.978 42.7804C235.978 42.7804 239.371 42.7804 239.737 49.1335C239.954 52.9017 238.638 56.5812 236.145 59.1762C236.145 59.1762 232.047 60.239 230.037 58.4309C228.026 56.6227 227.11 52.8354 227.11 52.8354Z" fill="#263238"/>
<path d="M229.731 53.196C229.556 54.1632 228.993 54.9916 228.199 55.4501C227.26 55.8899 226.638 54.436 226.777 52.9088C226.905 51.5527 227.544 49.6468 228.549 49.9033C229.554 50.1599 230.059 51.8276 229.731 53.196Z" fill="#CD877B"/>
<path d="M234.496 41.4202C233.969 41.003 233.279 40.9316 232.639 41.0195C231.999 41.1075 231.381 41.3383 230.748 41.4733C230.436 41.5397 230.108 41.5816 229.808 41.4672C229.312 41.2779 229.021 40.7235 228.697 40.2626C228.356 39.778 227.922 39.352 227.397 39.1653C226.871 38.9786 226.246 39.0693 225.851 39.4987C225.456 39.9282 225.379 40.716 225.758 41.1631C224.852 40.8234 223.779 41.129 223.128 41.9125C223.032 42.0277 222.942 42.1605 222.923 42.3165C222.9 42.5107 222.993 42.6973 223.095 42.8565C223.308 43.1883 223.576 43.4756 223.882 43.6992C223.542 43.743 223.19 43.7913 222.898 43.9901C222.606 44.189 222.391 44.5835 222.483 44.9519C222.532 45.1508 222.661 45.3118 222.791 45.4578C223.566 46.3252 224.579 46.9465 225.666 47.1017C226.753 47.2569 227.909 46.9197 228.73 46.1074L235.229 43.408C235.344 42.6629 235.047 41.8572 234.496 41.4202Z" fill="#263238"/>
<path d="M194.215 187.18L195.235 197.312L191.067 198.203L188.639 188.868C190.407 187.074 192.262 186.466 194.215 187.18Z" fill="#151414"/>
<path d="M195.202 196.635C195.618 197.981 195.645 203.486 195.645 203.486L186.676 203.498C186.144 201.507 186.968 200.148 188.014 199.968C188.464 199.891 188.993 199.331 189.378 198.843C189.381 198.78 189.929 195.721 190.268 195.575C190.268 195.575 190.502 195.257 190.701 195.574C190.9 195.892 191.072 196.925 191.072 196.925C192.472 194.819 193.844 195.101 195.202 196.635Z" fill="#263238"/>
<path d="M195.311 198.233C194.297 197.781 193.21 197.953 192.326 198.705C192.171 198.836 192.025 198.528 192.178 198.398C193.119 197.597 194.309 197.409 195.388 197.891C195.564 197.969 195.488 198.313 195.311 198.233Z" fill="white"/>
<path d="M186.704 202.693L195.541 202.681C195.622 202.681 195.687 202.602 195.687 202.504C195.687 202.406 195.621 202.326 195.541 202.326L186.704 202.338C186.623 202.338 186.557 202.417 186.557 202.516C186.557 202.613 186.623 202.693 186.704 202.693Z" fill="white"/>
<path d="M178.75 185.854L179.946 197.284L175.941 198.183L172.841 187.741C174.313 186.068 176.124 185.107 178.75 185.854Z" fill="#151414"/>
<path d="M179.88 196.367C180.297 197.712 180.324 203.218 180.324 203.218L170.02 203.231C169.487 201.24 170.601 200.06 171.647 199.88C172.096 199.803 173.671 199.063 174.057 198.574C174.059 198.511 174.608 195.453 174.946 195.306C174.946 195.306 175.18 194.988 175.379 195.306C175.578 195.623 175.751 196.657 175.751 196.657C177.151 194.551 178.523 194.832 179.88 196.367Z" fill="#263238"/>
<path d="M179.989 197.965C178.975 197.513 177.888 197.685 177.004 198.437C176.85 198.568 176.703 198.26 176.856 198.13C177.798 197.329 178.987 197.141 180.067 197.623C180.242 197.701 180.166 198.044 179.989 197.965Z" fill="white"/>
<path d="M170.019 202.426L180.219 202.413C180.3 202.413 180.365 202.333 180.365 202.235C180.365 202.137 180.3 202.058 180.219 202.058L170.019 202.071C169.938 202.071 169.872 202.151 169.873 202.249C169.873 202.347 169.938 202.426 170.019 202.426Z" fill="white"/>
<path d="M217.805 108.221C218.064 109.26 218.269 110.164 218.464 111.135C218.659 112.106 218.835 113.062 219.007 114.028C219.332 115.965 219.606 117.918 219.791 119.897C219.993 121.899 220.094 123.912 220.093 125.927C220.108 128.036 219.935 130.141 219.578 132.211L219.545 132.383C219.503 132.607 219.433 132.824 219.336 133.027C218.842 134.027 218.167 134.901 217.354 135.592C216.72 136.142 216.044 136.631 215.335 137.052C214.055 137.799 212.721 138.425 211.348 138.922C210.02 139.41 208.697 139.81 207.36 140.142C206.696 140.308 206.028 140.449 205.355 140.584C204.682 140.719 204.027 140.833 203.322 140.927C202.503 141.044 201.754 140.397 201.649 139.481C201.561 138.721 201.946 137.992 202.584 137.712H202.625C203.795 137.192 205.016 136.642 206.186 136.06C207.356 135.478 208.507 134.902 209.63 134.268C210.707 133.677 211.746 133.004 212.74 132.253C213.171 131.933 213.573 131.567 213.942 131.162C214.171 130.94 214.355 130.666 214.481 130.357L214.24 131.173C214.413 129.483 214.455 127.78 214.365 126.083C214.332 125.205 214.263 124.311 214.179 123.423C214.096 122.535 214.003 121.631 213.891 120.733C213.659 118.936 213.384 117.137 213.065 115.337C212.91 114.433 212.743 113.534 212.564 112.641C212.383 111.758 212.197 110.828 212.016 110.013V109.961C211.652 108.15 212.669 106.352 214.287 105.945C215.82 105.56 217.359 106.561 217.818 108.242L217.805 108.221Z" fill="#EBB373"/>
<path d="M204.227 137.244L200.472 137.732L201.53 142.599C201.53 142.599 204.817 141.929 205.299 139.649L204.227 137.244Z" fill="#EBB373"/>
<path d="M198.731 139.856L199.372 141.679C199.525 142.113 199.884 142.413 200.3 142.453L201.549 142.599L200.472 137.737L199.325 138.257C198.768 138.517 198.503 139.231 198.731 139.856Z" fill="#EBB373"/>
<path d="M216.018 101.469C220.845 105.323 221.416 114.781 221.416 114.781L211.984 118.001C211.984 118.001 210.276 113.726 209.904 109.862C209.31 103.65 212.559 98.7111 216.018 101.469Z" fill="#151414"/>
<path d="M203.702 137.379C203.702 137.379 184.016 145.009 183.57 152.405C182.382 172.251 187.691 191.478 187.691 191.478H195.686C195.686 191.478 194.688 184.685 193.801 166.704C192.692 144.105 226.968 167.223 219.912 137.379H203.702Z" fill="#263238"/>
<path d="M196.777 137.379C196.777 137.379 166.72 140.496 167.068 158.996C167.435 178.213 170.757 192.308 170.757 192.308L180.135 192.003C180.135 192.003 177.568 179.496 177.782 160.57C177.847 154.898 186.741 154.857 196.744 154.218C205.383 153.646 213.455 148.136 216.825 139.208L217.512 137.379H196.777Z" fill="#263238"/>
<path d="M202.862 84.9891C202.765 85.363 202.505 85.6071 202.287 85.5344C202.069 85.4617 201.971 85.0982 202.069 84.7242C202.166 84.3502 202.426 84.1061 202.644 84.1788C202.862 84.2516 202.96 84.6151 202.862 84.9891Z" fill="#263238"/>
<path d="M202.538 85.6177C202.538 85.6177 201.205 87.5238 200.091 88.2873C200.518 89.1027 201.6 89.1495 201.6 89.1495L202.538 85.6177Z" fill="#E4873E"/>
<path d="M204.598 82.8387C204.557 82.8357 204.516 82.8195 204.482 82.792C204.082 82.4158 203.545 82.2785 203.039 82.4232C202.932 82.4639 202.816 82.4 202.78 82.2805L202.779 82.2778C202.745 82.1575 202.802 82.0288 202.909 81.9869C203.545 81.7955 204.224 81.96 204.733 82.4284C204.823 82.505 204.84 82.6484 204.771 82.7487L204.77 82.7504C204.73 82.811 204.665 82.8444 204.598 82.8387Z" fill="#263238"/>
<path d="M210.856 89.2324C210.238 92.7746 209.616 99.2565 211.83 101.62C211.83 101.62 210.967 105.209 205.09 105.209C198.629 105.209 202.003 101.62 202.003 101.62C205.527 100.674 205.438 97.7503 204.821 94.9975L210.856 89.2324Z" fill="#EBB373"/>
<path d="M211.64 99.8694C208.286 99.7563 204.93 99.93 201.6 100.389C197.618 100.955 194.598 104.682 194.483 109.172C194.363 114.454 194.762 123.226 196.777 137.395C203.795 139.322 215.836 140.729 219.898 137.395C220.028 134.081 218.139 124.156 219.513 110.065C220.025 105.037 216.798 100.497 212.305 99.9237C212.084 99.8955 211.862 99.8774 211.64 99.8694Z" fill="#151414"/>
<path d="M200.81 109.831C200.583 111.825 200.291 113.768 200.003 115.736C199.715 117.705 199.381 119.652 199.019 121.605C198.657 123.558 198.267 125.516 197.826 127.48C197.389 129.519 196.838 131.526 196.178 133.489L196.066 133.806L195.983 133.956C195.222 135.258 194.243 136.384 193.1 137.27C192.121 138.047 191.08 138.719 189.99 139.28C188.955 139.815 187.892 140.278 186.806 140.667C185.73 141.059 184.632 141.371 183.519 141.602L182.591 138.444C183.45 137.924 184.373 137.327 185.232 136.735C186.091 136.143 186.95 135.535 187.748 134.896C188.516 134.296 189.244 133.633 189.925 132.912C190.476 132.348 190.936 131.683 191.285 130.944L191.09 131.406C191.556 129.644 191.941 127.857 192.246 126.051C192.574 124.175 192.884 122.281 193.174 120.369L194.033 114.62L194.85 108.87L200.81 109.831Z" fill="#EBB373"/>
<path d="M185.817 136.933L180.781 138.6L183.566 143.139C183.566 143.139 185.084 143.041 186.268 139.774L185.817 136.933Z" fill="#EBB373"/>
<path d="M179.175 142.105L179.667 143.186C180.051 144.017 180.942 144.379 181.714 144.017L183.571 143.139L180.785 138.6L179.49 140.002C178.981 140.548 178.853 141.403 179.175 142.105Z" fill="#EBB373"/>
<path d="M203.619 103.744C205.601 107.801 202.227 118.017 202.227 118.017L192.158 115.238C192.158 115.238 192.242 112.381 194.451 106.928C196.99 100.711 201.465 99.3035 203.619 103.744Z" fill="#151414"/>
<path d="M214.221 87.877C212.749 92.3853 212.095 95.112 209.398 96.7792C205.336 99.2878 200.829 95.5068 201.042 90.5934C201.251 86.1735 203.623 79.5409 208.126 79.0475C211.338 78.6601 214.222 81.2592 214.568 84.8526C214.667 85.8773 214.548 86.9135 214.221 87.877Z" fill="#EBB373"/>
<path d="M213.048 80.28C211.128 78.4218 208.408 78.5741 207.185 78.6321C205.961 78.6902 205.242 79.4451 205.734 79.9782C206.225 80.5112 204.71 82.1688 204.71 82.1688C202.556 84.2983 203.127 87.7574 203.127 87.7574C203.127 87.7574 203.211 88.817 204.668 88.6508C202.278 94.5769 207.504 97.3037 209.825 96.7895C209.825 96.7895 211.937 96.6923 212.767 94.6017C213.598 92.5111 214.999 87.9816 214.999 87.9816C216.245 83.5682 214.968 82.1383 213.048 80.28Z" fill="#263238"/>
<path d="M205.062 88.5573C204.756 89.5112 204.181 90.3279 203.424 90.8842C202.533 91.4607 202.296 90.3648 202.463 88.8846C202.616 87.5134 203.54 85.5086 204.394 85.7059C205.248 85.9033 205.527 87.2797 205.062 88.5573Z" fill="#EBB373"/>
<path opacity="0.3" d="M211.849 99.0282C210.485 98.888 206.339 99.5165 206.339 99.5165C206.339 99.5165 210.396 99.5476 211.91 99.6567C211.917 99.445 211.897 99.2333 211.849 99.0282Z" fill="#151414"/>
<path d="M223.42 121.83C224.868 114.367 226.864 101.185 212.971 99.9746L210.901 99.798C210.912 99.5886 210.894 99.3785 210.85 99.1747C211.574 99.1747 212.897 99.0812 212.604 98.0996C212.433 97.5335 212.219 97.3517 211.927 97.4036C212.105 97.13 212.051 96.7467 211.806 96.5475L211.792 96.5363C210.864 95.6897 210.664 96.6246 210.093 98.0425C207.46 98.1437 204.854 98.6685 202.355 99.6006C197.439 99.9901 193.215 101.678 191.298 106.607C188.049 114.959 191.498 131.537 182.567 134.685C175.167 137.282 173.998 141.177 171.468 144.615C170.82 145.483 170.924 146.773 171.699 147.498C171.866 147.654 172.056 147.775 172.261 147.856C177.368 149.846 183.736 150.588 188.935 150.588H222.923C228.814 150.588 221.977 129.288 223.42 121.83Z" fill="#151414"/>
<path opacity="0.4" d="M223.42 121.83C224.868 114.367 226.864 101.185 212.971 99.9746L210.901 99.798C210.912 99.5886 210.894 99.3785 210.85 99.1747C211.574 99.1747 212.897 99.0812 212.604 98.0996C212.433 97.5335 212.219 97.3517 211.927 97.4036C212.105 97.13 212.051 96.7467 211.806 96.5475L211.792 96.5363C210.864 95.6897 210.664 96.6246 210.093 98.0425C207.46 98.1437 204.854 98.6685 202.355 99.6006C197.439 99.9901 193.215 101.678 191.298 106.607C188.049 114.959 191.498 131.537 182.567 134.685C175.167 137.282 173.998 141.177 171.468 144.615C170.82 145.483 170.924 146.773 171.699 147.498C171.866 147.654 172.056 147.775 172.261 147.856C177.368 149.846 183.736 150.588 188.935 150.588H222.923C228.814 150.588 221.977 129.288 223.42 121.83Z" fill="white"/>
<path d="M200.472 90.5667C200.512 90.5386 200.556 90.6138 200.533 90.6598C200.51 90.7057 200.459 90.7205 200.413 90.734C200.068 90.8368 199.772 91.1288 199.638 91.4991C199.504 91.8693 199.535 92.3093 199.719 92.6518C199.362 92.4577 198.908 92.6505 198.664 93.0001C198.419 93.3496 198.348 93.8145 198.349 94.2583C198.35 94.6865 198.418 95.1363 198.659 95.4692C198.767 95.6188 198.917 95.7747 198.888 95.9642C198.872 96.0652 198.807 96.1457 198.751 96.2275C198.451 96.6733 198.41 97.3195 198.652 97.8078C198.895 98.2961 199.406 98.5993 199.904 98.5494C199.846 98.7954 200.047 99.0184 200.24 99.1517C200.996 99.6722 201.975 99.7632 202.798 99.3895C203.027 99.2854 203.267 99.1138 203.313 98.842C203.771 99.1637 204.405 99.1341 204.837 98.7707C205.27 98.4073 205.472 97.734 205.324 97.1522C205.324 97.1522 204.012 95.566 203.529 93.9822C203.047 92.3984 202.145 90.1626 202.463 88.8847C202.781 87.6068 203.061 86.9112 203.061 86.9112C203.061 86.9112 203.412 85.2775 203.119 85.6925C202.826 86.1076 201.889 88.5713 201.744 88.6433C201.454 88.7873 201.386 89.3936 201.123 89.6002C200.859 89.8068 200.409 89.9867 200.537 90.4907" fill="#263238"/>
<path d="M227.01 149.169H178.645C177.099 149.169 175.846 150.571 175.846 152.301V155.433C175.846 157.162 177.099 158.565 178.645 158.565H227.01C228.555 158.565 229.809 157.162 229.809 155.433V152.301C229.809 150.571 228.555 149.169 227.01 149.169Z" fill="#151414"/>
<path opacity="0.3" d="M227.01 149.169H178.645C177.099 149.169 175.846 150.571 175.846 152.301V155.433C175.846 157.162 177.099 158.565 178.645 158.565H227.01C228.555 158.565 229.809 157.162 229.809 155.433V152.301C229.809 150.571 228.555 149.169 227.01 149.169Z" fill="black"/>
<path d="M229.721 101.765H209.403C207.071 101.857 205.084 103.688 204.557 106.232C201.864 121.443 200.967 136.984 201.888 152.457C202.095 154.97 203.968 156.9 206.223 156.924H226.536C228.551 156.959 230.21 155.161 230.242 152.907C230.245 152.756 230.239 152.606 230.227 152.457C229.307 136.984 230.203 121.444 232.891 106.232C233.327 103.76 231.939 101.765 229.721 101.765Z" fill="#151414"/>
<path opacity="0.3" d="M229.721 101.765H209.403C207.071 101.857 205.084 103.688 204.557 106.232C201.864 121.443 200.967 136.984 201.888 152.457C202.095 154.97 203.968 156.9 206.223 156.924H226.536C228.551 156.959 230.21 155.161 230.242 152.907C230.245 152.756 230.239 152.606 230.227 152.457C229.307 136.984 230.203 121.444 232.891 106.232C233.327 103.76 231.939 101.765 229.721 101.765Z" fill="black"/>
<path d="M232.538 103.64H213.609C211.436 103.724 209.583 105.427 209.087 107.795C206.576 121.981 205.741 136.475 206.604 150.904C206.797 153.244 208.542 155.04 210.642 155.059H229.572C231.451 155.091 232.997 153.412 233.026 151.31C233.028 151.174 233.023 151.039 233.012 150.904C232.154 136.475 232.989 121.982 235.495 107.795C235.899 105.505 234.604 103.64 232.538 103.64Z" fill="#151414"/>
<path d="M205.239 164.429H200.314C199.64 164.429 199.006 164.068 198.61 163.457L195.444 158.56H210.108L206.942 163.457C206.547 164.068 205.913 164.429 205.239 164.429Z" fill="#151414"/>
<path opacity="0.5" d="M195.444 158.565L196.758 160.59L209.454 159.578L210.108 158.565H195.444Z" fill="black"/>
<path d="M199.237 199.045H206.311L210.108 203.663H195.444L199.237 199.045Z" fill="#151414"/>
<path d="M204.775 164.429H200.778V199.04H204.775V164.429Z" fill="#263238"/>
<path opacity="0.6" d="M204.775 164.429H200.778V199.04H204.775V164.429Z" fill="white"/>
<path d="M240.677 122.06H223.274C223.274 122.06 216.207 128.365 212.338 142.176C210.055 150.327 210.076 169.136 210.108 169.088L217.911 169.29C218.233 168.896 240.841 171.914 240.676 168.109C240.511 164.305 240.677 122.06 240.677 122.06Z" fill="#263238"/>
<path d="M246.165 83.8579C246.165 83.8579 249.13 95.611 247.233 97.6569C245.337 99.7029 238.7 98.3389 239.039 98.1874C239.377 98.0358 237.345 83.9011 237.21 84.4138C237.075 84.9264 246.165 83.8579 246.165 83.8579Z" fill="#CD877B"/>
<path d="M243.246 187.916L243.255 198.112L239.024 198.48L237.537 188.901C239.472 187.338 241.376 186.964 243.246 187.916Z" fill="#CD877B"/>
<path d="M243.108 197.048C243.524 198.394 243.551 203.9 243.551 203.9L234.582 203.911C234.049 201.92 234.874 200.561 235.92 200.381C236.37 200.304 236.898 199.745 237.284 199.256C237.287 199.193 237.835 196.134 238.174 195.988C238.174 195.988 238.407 195.67 238.606 195.988C238.805 196.305 238.978 197.338 238.978 197.338C240.378 195.232 241.75 195.514 243.108 197.048Z" fill="#263238"/>
<path d="M243.216 198.647C242.203 198.194 241.115 198.366 240.232 199.118C240.077 199.25 239.931 198.942 240.084 198.812C241.025 198.01 242.215 197.822 243.294 198.304C243.47 198.383 243.394 198.726 243.216 198.647Z" fill="white"/>
<path d="M234.609 203.106L243.447 203.095C243.527 203.094 243.593 203.015 243.593 202.917C243.593 202.819 243.527 202.739 243.446 202.739L234.609 202.751C234.528 202.751 234.463 202.83 234.463 202.929C234.463 203.027 234.529 203.106 234.609 203.106Z" fill="white"/>
<path d="M243.795 195.16L236.879 195.559C236.814 193.338 231.191 161.904 230.985 154.008C230.738 144.573 227.719 120.893 230.388 115.966C233.058 111.038 245.133 114.962 245.133 114.962C245.133 114.962 242.365 144.672 242.966 153.867C243.487 161.837 245.123 184.543 243.795 195.16Z" fill="#151414"/>
<g opacity="0.3">
<path d="M243.795 195.16L236.879 195.559C236.814 193.338 231.191 161.904 230.985 154.008C230.738 144.573 227.719 120.893 230.388 115.966C233.058 111.038 245.133 114.962 245.133 114.962C245.133 114.962 242.365 144.672 242.966 153.867C243.487 161.837 245.123 184.543 243.795 195.16Z" fill="black"/>
</g>
<path d="M224.992 186.586L225.002 198.094L220.931 198.47L218.928 187.698C220.563 186.226 222.461 185.505 224.992 186.586Z" fill="#CD877B"/>
<path d="M225.001 197.072C225.418 198.417 225.445 203.923 225.445 203.923L215.141 203.937C214.608 201.945 215.722 200.765 216.768 200.585C217.217 200.508 218.792 199.768 219.178 199.279C219.18 199.216 219.729 196.158 220.068 196.012C220.068 196.012 220.301 195.693 220.5 196.011C220.699 196.328 220.872 197.362 220.872 197.362C222.272 195.256 223.644 195.537 225.001 197.072Z" fill="#263238"/>
<path d="M225.11 198.67C224.097 198.218 223.009 198.39 222.125 199.142C221.971 199.273 221.824 198.966 221.978 198.835C222.919 198.034 224.109 197.846 225.188 198.328C225.363 198.406 225.287 198.749 225.11 198.67Z" fill="white"/>
<path d="M215.14 203.131L225.34 203.118C225.421 203.118 225.486 203.038 225.486 202.94C225.486 202.842 225.421 202.763 225.34 202.763L215.14 202.776C215.059 202.776 214.994 202.856 214.994 202.954C214.994 203.052 215.059 203.131 215.14 203.131Z" fill="white"/>
<path d="M226.073 194.511H217.8C216.424 186.787 211.824 157.848 212.183 152.183C212.622 145.264 217.799 115.313 219.724 113.004C221.649 110.695 235.744 116.681 235.744 116.681C235.744 116.681 229.951 142.436 225.384 153.575C224.435 155.889 226.519 185.031 226.073 194.511Z" fill="#151414"/>
<g opacity="0.3">
<path d="M226.073 194.511H217.8C216.424 186.787 211.824 157.848 212.183 152.183C212.622 145.264 217.799 115.313 219.724 113.004C221.649 110.695 235.744 116.681 235.744 116.681C235.744 116.681 229.951 142.436 225.384 153.575C224.435 155.889 226.519 185.031 226.073 194.511Z" fill="black"/>
</g>
<path d="M241.013 67.1152C241.013 67.1152 242.482 67.6149 243.213 67.9145C244.736 68.5388 245.741 70.4359 246.292 72.2986C247.639 76.8502 251 87.2807 251 87.2807L243.102 89.1379L238.889 78.9855L241.013 67.1152Z" fill="#151414"/>
<path opacity="0.5" d="M241.013 67.1152C241.013 67.1152 243.127 67.5553 244.24 68.5838C245.086 69.3667 245.761 70.5019 246.292 72.2986C247.639 76.8502 251 87.2807 251 87.2807L243.102 89.1379L238.889 78.9855L241.013 67.1152Z" fill="white"/>
<path d="M223.07 67.293C225.4 67.0123 231.381 65.5458 241.014 67.1154L244.452 106.622C244.452 106.622 244.742 112.719 245.595 117.951C235.806 122.654 224.225 121.309 217.677 117.355C217.753 117.522 217.967 113.173 218.303 106.803C218.895 95.5783 218.949 78.4029 220.199 68.2702C220.233 68.0198 222.838 67.3209 223.07 67.293Z" fill="#151414"/>
<g opacity="0.5">
<path d="M223.07 67.293C225.4 67.0123 231.381 65.5458 241.014 67.1154L244.452 106.622C244.452 106.622 244.742 112.719 245.595 117.951C235.806 122.654 224.225 121.309 217.677 117.355C217.753 117.522 217.967 113.173 218.303 106.803C218.895 95.5783 218.949 78.4029 220.199 68.2702C220.233 68.0198 222.838 67.3209 223.07 67.293Z" fill="white"/>
</g>
<path opacity="0.2" d="M224.126 80.9404C224.126 86.0616 222.744 96.0727 218.709 95.5605L219.006 86.5978L224.126 80.9404Z" fill="black"/>
<path opacity="0.2" d="M243.605 89.0144L243.397 77.5054L245.556 88.467L243.605 89.0144Z" fill="black"/>
<path d="M221.211 68.127C224.539 69.6933 226.838 74.3392 221.466 91.3029L211.911 87.2461C212.932 83.6936 214.401 80.9495 215.493 76.3309C215.805 75.0108 216.233 73.7246 216.831 72.5344C219.396 67.4328 221.211 68.127 221.211 68.127Z" fill="#151414"/>
<path opacity="0.5" d="M221.211 68.1268C224.539 69.693 226.838 74.339 221.466 91.3027L211.911 87.2458C212.96 83.5951 214.47 80.7962 215.583 75.943C215.804 74.9827 216.116 74.0427 216.526 73.164C219.231 67.3742 221.211 68.1268 221.211 68.1268Z" fill="white"/>
<path d="M220.624 90.945C220.624 90.945 216.911 103.822 214.602 104.411C212.293 104.999 200.247 103.999 200.247 103.999L202.184 100.238L210.435 97.8881L213.272 87.8237L220.624 90.945Z" fill="#CD877B"/>
<path d="M195.923 100.11C195.937 99.4296 196.186 98.6955 196.597 98.6831C197.008 98.6707 199.201 98.7455 199.201 98.7455C199.212 98.1964 199.873 97.854 200.412 98.1251C201.055 98.4491 201.754 98.8852 201.924 99.3164C202.26 100.163 202.432 100.376 202.432 100.376L201.613 103.962C201.613 103.962 198.056 104.981 197.423 104.389C196.789 103.797 196.86 103.183 196.86 103.183C196.86 103.183 196.23 102.369 196.299 101.847C196.368 101.326 195.91 100.79 195.923 100.11Z" fill="#CD877B"/>
<path d="M219.249 95.2803C219.249 95.2803 221.209 105.21 224.669 105.65C228.129 106.09 244.286 103.968 244.286 103.968L244.741 109.724C244.741 109.724 223.321 110.319 222.031 112.73C220.742 115.142 211.523 145.306 211.523 145.306L217.512 109.37L217.653 99.6567L219.249 95.2803Z" fill="#263238"/>
<path d="M236.923 105.631C237.243 105.685 237.303 105.334 237.223 105.048C237.018 104.311 236.497 103.564 236.082 102.959C235.25 101.745 234.21 100.71 233.025 99.9437C232.496 99.6008 229.937 98.2633 229.893 99.7569C229.853 101.092 231.241 102.178 232.123 102.782C233.738 103.886 235.497 104.694 237.241 105.502C237.293 105.527 237.351 105.494 237.39 105.458C238.511 104.418 239.659 103.346 240.432 101.943C241.212 100.53 241.687 98.5883 241.586 96.9225C241.556 96.4149 241.452 95.7971 241.052 95.4819C240.605 95.1288 240.073 95.4801 239.677 95.7653C238.565 96.5661 237.838 97.8847 237.457 99.2785C237.201 100.218 237.089 101.201 237.04 102.179C236.99 103.168 236.973 104.169 237.278 105.113C237.345 105.319 237.641 105.23 237.574 105.022C237.143 103.686 237.284 102.057 237.486 100.678C237.676 99.3736 238.071 98.0857 238.837 97.0598C239.172 96.6098 239.571 96.2175 240.028 95.9283C240.399 95.6935 240.814 95.5177 241.084 96.0394C241.252 96.3652 241.279 96.7629 241.288 97.1299C241.321 98.5547 240.947 100.201 240.335 101.448C239.789 102.561 238.982 103.472 238.137 104.303C237.947 104.49 237.754 104.673 237.56 104.855C237.405 105.001 237.355 105.093 237.149 105.091C237.072 105.09 236.856 104.955 236.802 104.93C236.178 104.639 235.556 104.345 234.94 104.032C233.849 103.478 232.74 102.882 231.757 102.107C231.319 101.762 230.897 101.363 230.593 100.864C230.434 100.604 230.291 100.302 230.229 99.9917C230.094 99.3202 231.074 99.4607 231.408 99.5474C232.665 99.8731 233.846 100.851 234.765 101.83C235.222 102.317 235.64 102.849 236.009 103.421C236.182 103.689 236.344 103.965 236.495 104.248C236.584 104.414 236.898 105.282 237.005 105.3C236.812 105.267 236.728 105.598 236.923 105.631Z" fill="#263238"/>
<path d="M237.714 106.668C238.536 114.241 239.159 121.839 239.581 129.452C239.593 129.672 239.9 129.674 239.888 129.452C239.466 121.839 238.843 114.241 238.021 106.668C237.998 106.452 237.69 106.449 237.714 106.668Z" fill="#263238"/>
<path d="M237.093 106.808C237.411 108.573 236.995 110.327 236.792 112.076C236.596 113.776 236.784 115.534 236.333 117.19C236.275 117.402 236.571 117.492 236.629 117.281C237.095 115.571 236.898 113.756 237.109 112.002C237.321 110.241 237.71 108.494 237.389 106.716C237.35 106.5 237.055 106.592 237.093 106.808Z" fill="#263238"/>
<path opacity="0.5" d="M230.004 139.402C230.004 139.4 232.463 130.225 232.463 130.225L236.46 127.997C236.46 127.997 232.928 131.469 233.232 131.59C233.536 131.711 230.856 151.116 230.856 151.116L230.043 139.922" fill="black"/>
<path d="M225.713 66.8954C225.713 66.8954 229.151 65.2157 231.651 65.0101C234.15 64.8045 237.495 66.653 237.495 66.653C237.495 66.653 233.672 66.4495 232.092 66.4906C230.511 66.5317 225.713 66.8954 225.713 66.8954Z" fill="#263238"/>
<path d="M143.59 186.482L142.491 199.397L138.66 199.172L136.927 186.4L143.59 186.482Z" fill="#E9B376"/>
<path d="M143.294 205.462L139.983 205.458C139.983 205.458 139.314 205.059 138.921 205.112C138.529 205.165 137.166 205.454 137.166 205.454L128.374 205.444C128.445 205.032 128.532 204.665 128.631 204.34C128.752 203.943 128.892 203.607 129.048 203.323C129.593 202.329 130.337 201.976 131.145 201.92C132.376 201.834 136.253 198.946 136.253 198.946L137.901 197.798C137.848 197.173 137.754 196.35 138.347 196.099C139.106 195.776 139.764 195.606 140.112 196.537L140.49 197.654L141.358 197.503C141.358 197.503 143.058 196.22 142.965 197.254C142.912 197.844 143.772 200.52 143.571 202.603C143.523 203.089 143.479 203.549 143.441 203.952L143.44 203.952C143.354 204.847 143.294 205.462 143.294 205.462Z" fill="#263238"/>
<g opacity="0.2">
<path d="M128.374 205.445L137.165 205.455C137.165 205.455 138.529 205.165 138.921 205.112C139.314 205.059 139.983 205.458 139.983 205.458L143.294 205.462C143.294 205.462 143.354 204.847 143.44 203.952L128.631 204.34C128.532 204.665 128.445 205.032 128.374 205.445Z" fill="white"/>
</g>
<path d="M134.323 200.017C134.364 199.973 134.427 199.968 134.474 200.003C134.692 200.166 134.875 200.394 134.999 200.681C135.065 200.832 134.867 200.978 134.801 200.825C134.691 200.57 134.531 200.368 134.341 200.226C134.277 200.178 134.267 200.079 134.321 200.019L134.323 200.017Z" fill="#151414"/>
<path d="M135.023 199.557C135.064 199.513 135.127 199.508 135.174 199.543C135.392 199.706 135.575 199.934 135.699 200.221C135.764 200.372 135.567 200.518 135.501 200.365C135.391 200.11 135.231 199.908 135.041 199.766C134.977 199.719 134.967 199.619 135.021 199.559L135.023 199.557Z" fill="#151414"/>
<path d="M135.745 199.128C135.785 199.083 135.848 199.078 135.896 199.114C136.114 199.276 136.296 199.505 136.421 199.792C136.486 199.943 136.289 200.088 136.223 199.936C136.112 199.681 135.952 199.479 135.762 199.336C135.699 199.289 135.688 199.189 135.743 199.13L135.745 199.128Z" fill="#151414"/>
<path d="M143.668 107.246C143.668 107.246 146.014 113.612 146.01 118.467C146.008 120.99 142.5 128.541 142.5 128.541L140.801 154.626C140.801 154.626 143.147 165.21 143.673 173.149C144.199 181.088 145.474 196.209 145.474 196.209L135.703 197.595C135.703 197.595 131.03 161.934 129.224 156.39C127.419 150.845 127.533 122.045 127.533 122.045L127.957 109.311L143.668 107.246Z" fill="#263238"/>
<path opacity="0.3" d="M143.668 107.246C143.668 107.246 146.014 113.612 146.01 118.467C146.008 120.99 142.5 128.541 142.5 128.541L140.801 154.626C140.801 154.626 143.147 165.21 143.673 173.149C144.199 181.088 145.474 196.209 145.474 196.209L135.703 197.595C135.703 197.595 131.03 161.934 129.224 156.39C127.419 150.845 127.533 122.045 127.533 122.045L127.957 109.311L143.668 107.246Z" fill="white"/>
<path d="M137.08 64.583C137.08 64.583 135.912 61.8532 136 56.3699C135.998 56.3645 135.73 56.3182 135.729 56.3128C135.738 55.5468 135.772 54.8311 135.817 54.2063C135.817 54.1885 135.815 54.1831 135.815 54.1831L130.64 60.3638C131.179 61.9455 131.417 65.2451 131.427 66.6661C131.427 66.6661 131.224 69.3067 134.106 68.5465C136.212 67.9911 137.08 64.583 137.08 64.583Z" fill="#EBB373"/>
<path opacity="0.2" d="M131.086 62.682L134.445 60.6963C134.422 62.0394 133.794 63.8129 131.334 64.6873C131.334 64.6873 131.245 63.219 131.086 62.682Z" fill="black"/>
<path d="M135.046 50.7898C135.694 55.326 136.141 57.8696 134.571 60.6513C132.21 64.8355 126.982 64.0433 125.131 59.8026C123.466 55.9856 122.687 49.2089 126.262 46.4899C129.784 43.8112 134.399 46.2538 135.046 50.7898Z" fill="#EBB373"/>
<path d="M135.5 44.2646C133.21 40.8477 127.909 44.3078 126.618 45.9533C126.425 46.1992 130.064 47.2205 129.849 47.1891L131.509 47.4003C131.734 47.282 132.262 47.4758 132.668 48.2403C132.668 48.2403 133.026 53.1248 135.16 54.6766C136.718 53.3457 136.81 52.5708 136.927 50.8417C137.102 48.2655 136.625 45.883 135.5 44.2646Z" fill="#263238"/>
<path opacity="0.3" d="M135.5 44.2646C133.21 40.8477 127.909 44.3078 126.618 45.9533C126.425 46.1992 130.064 47.2205 129.849 47.1891L131.509 47.4003C131.734 47.282 132.262 47.4758 132.668 48.2403C132.668 48.2403 133.026 53.1248 135.16 54.6766C136.718 53.3457 136.81 52.5708 136.927 50.8417C137.102 48.2655 136.625 45.883 135.5 44.2646Z" fill="white"/>
<path d="M137.37 54.1252C137.28 55.3572 136.687 56.4233 135.982 57.0625C134.921 58.024 133.837 57.1067 133.669 55.6687C133.518 54.3744 133.887 52.3143 135.175 51.9125C136.444 51.5166 137.472 52.7167 137.37 54.1252Z" fill="#EBB373"/>
<path d="M129.58 53.5124C129.671 53.9702 129.528 54.3934 129.259 54.4575C128.991 54.5214 128.699 54.2021 128.608 53.7441C128.516 53.2863 128.66 52.8632 128.928 52.7992C129.197 52.7352 129.488 53.0545 129.58 53.5124Z" fill="#263238"/>
<path d="M125.584 54.6046C125.675 55.0625 125.532 55.4855 125.263 55.5497C124.995 55.6136 124.703 55.2943 124.612 54.8364C124.52 54.3785 124.664 53.9554 124.932 53.8915C125.201 53.8274 125.492 54.1468 125.584 54.6046Z" fill="#263238"/>
<path d="M126.839 54.0244C126.839 54.0244 125.998 56.6234 125.768 57.6537C126.452 58.087 127.38 57.5764 127.38 57.5764L126.839 54.0244Z" fill="#E4873E"/>
<path d="M130.15 51.1041C130.093 51.1478 130.018 51.1575 129.951 51.1219C129.157 50.7007 128.534 51.1107 128.527 51.1148C128.435 51.1774 128.313 51.1447 128.256 51.0417C128.2 50.9387 128.229 50.8041 128.321 50.7415C128.354 50.7192 129.135 50.2051 130.12 50.728C130.219 50.7802 130.261 50.9108 130.214 51.0196C130.199 51.0548 130.176 51.0832 130.15 51.1041Z" fill="#263238"/>
<path opacity="0.2" d="M134.651 55.0273C134.599 55.0273 134.555 54.9837 134.549 54.9251C134.509 54.5092 134.568 54.0872 134.718 53.705C134.82 53.446 135.01 53.0994 135.337 52.9176C135.659 52.7393 136.047 52.7861 136.28 53.033C136.321 53.0763 136.323 53.1488 136.284 53.1949C136.245 53.2407 136.18 53.2429 136.139 53.1993C135.97 53.0202 135.671 52.988 135.428 53.1229C135.156 53.274 134.994 53.573 134.906 53.7971C134.77 54.1428 134.717 54.5246 134.753 54.9005C134.759 54.9636 134.718 55.0199 134.662 55.0266L134.651 55.0273Z" fill="black"/>
<path d="M123.427 53.1145C123.39 53.1148 123.352 53.1032 123.318 53.0785C123.227 53.012 123.201 52.8757 123.259 52.7743C123.846 51.7566 124.749 51.7559 124.789 51.75C124.897 51.7506 124.986 51.8492 124.986 51.9704C124.987 52.0913 124.901 52.1889 124.793 52.1895C124.756 52.1878 124.06 52.1985 123.589 53.0153C123.552 53.0792 123.491 53.1142 123.427 53.1145Z" fill="#263238"/>
<path d="M132.446 44.228C131.339 42.6143 129.437 41.9158 127.877 42.5504C126.889 42.9523 126.087 43.8076 125.21 44.4822C124.333 45.1568 123.263 45.6672 122.24 45.2811C121.736 45.0909 121.14 44.7091 120.753 45.1156C120.494 45.3883 120.494 45.9146 120.658 46.306C120.822 46.6973 121.111 46.9852 121.392 47.2599C120.988 47.3612 120.584 47.4624 120.181 47.5636C120.704 48.9004 121.812 49.8052 122.963 50.1763C124.115 50.5472 125.312 50.4488 126.466 50.237C127.848 49.9834 129.228 49.5591 130.399 48.6619C131.57 47.7648 132.518 46.341 132.751 44.6358L132.446 44.228Z" fill="#263238"/>
<path d="M130.343 42.0798C129.597 41.6449 128.688 41.5733 127.895 41.8867C127.163 42.1756 126.56 42.7584 125.895 43.2061C125.231 43.6537 124.412 43.9721 123.686 43.6651C123.292 43.4984 122.811 43.1739 122.51 43.503C122.281 43.7529 122.382 44.1917 122.562 44.4874C123.007 45.2179 123.854 45.6122 124.63 45.4504L131.889 44.2135C131.663 43.3063 131.09 42.5146 130.343 42.0798Z" fill="#263238"/>
<path d="M130.942 42.9338L131.267 47.5551C131.267 47.5551 132.289 47.2427 132.642 48.4624L135.304 43.8373C135.304 43.8373 134.186 41.7997 130.942 42.9338Z" fill="#263238"/>
<path d="M128.948 59.0823C128.904 59.0823 128.863 59.0499 128.85 58.9998C128.834 58.9392 128.865 58.8754 128.92 58.8578C129.632 58.6261 130.195 57.9205 130.32 57.1027C130.329 57.0401 130.382 56.9983 130.438 57.009C130.494 57.0197 130.531 57.079 130.522 57.1412C130.383 58.0437 129.763 58.822 128.977 59.0778C128.967 59.0807 128.958 59.0823 128.948 59.0823Z" fill="#263238"/>
<path d="M137.079 63.416C137.334 63.617 144.077 67.0154 144.757 73.8504C145 76.2902 144.898 80.9794 144.757 86.3782C144.503 96.1038 144.443 108.577 144.443 108.577C137.657 110.847 132.765 110.084 125.756 108.213C125.756 108.213 128.27 78.6784 128.186 78.5779L131.408 67.6059L137.079 63.416Z" fill="#151414"/>
<path opacity="0.3" d="M144.479 103.749L144.472 104.52C144.472 104.52 140.388 109.344 139.457 113.55C138.525 117.756 138.987 138.988 138.987 138.988C138.987 138.988 139.353 161.173 139.12 161.694C138.887 162.215 137.59 162.438 137.59 162.438C137.59 162.438 135.66 117.51 136.093 114.049C136.525 110.587 140.983 104.551 142.913 103.474C144.842 102.398 144.479 103.749 144.479 103.749Z" fill="black"/>
<path d="M128.087 78.5776H132.038C132.038 78.5776 130.354 99.8845 134.894 101.137C139.435 102.388 144.704 100.162 144.704 100.162L144.662 103.614C140.847 106.342 137.61 112.62 137.721 117.685C138.051 132.718 138.636 163.308 137.934 163.514C134.533 164.508 126.002 163.241 126.002 163.241C126.002 163.241 125.87 110.923 126.318 99.3464C126.763 87.8301 128.087 78.5776 128.087 78.5776Z" fill="#263238"/>
<path d="M130.146 78.8267C130.146 78.8267 131.058 63.018 141.178 65.9227C141.178 65.9227 146.485 68.6839 144.903 78.578C144.903 78.578 143.998 68.6839 140.806 67.5401C138.54 66.7283 137.183 67.5966 135.927 68.6839C134.67 69.7712 132.296 73.5114 132.02 79.3784L130.146 78.8267Z" fill="#263238"/>
<path opacity="0.3" d="M139.418 68.288C135.936 68.1855 134.039 72.2536 133.418 73.6908C132.797 75.1281 131.255 92.1954 131.255 92.1954L126.577 92.9252L126.337 98.8662C130.447 100.339 135.064 101.632 137.325 100.564C142.224 98.2497 143.883 79.9588 143.892 79.3781C143.971 74.5118 142.574 68.381 139.418 68.288Z" fill="black"/>
<path d="M144.14 102.217C144.818 103.197 145.884 103.92 146.854 104.483C147.781 105.021 148.845 105.521 149.912 105.338C150.725 105.198 151.682 104.405 151.165 103.384C150.65 102.37 149.325 102.058 148.394 101.847C147.117 101.559 145.631 101.36 144.367 101.801C144.179 101.867 144.259 102.199 144.448 102.133C145.675 101.705 147.141 101.906 148.377 102.193C148.965 102.33 149.577 102.493 150.112 102.808C150.661 103.131 151.342 103.817 150.791 104.519C150.365 105.063 149.558 105.092 148.967 104.989C148.38 104.887 147.82 104.632 147.288 104.344C146.238 103.774 145.082 103.02 144.357 101.974C144.236 101.8 144.02 102.044 144.14 102.217Z" fill="#263238"/>
<path d="M144.201 102.128C145.312 101.867 146.443 101.653 147.539 101.32C148.421 101.051 149.307 100.61 149.889 99.7892C150.101 99.4896 150.284 99.1006 149.955 98.8166C149.614 98.5231 149.096 98.4491 148.682 98.4126C147.751 98.3303 146.779 98.5271 145.964 99.0496C145.106 99.5993 144.452 100.52 144.228 101.602C144.184 101.818 144.48 101.909 144.525 101.694C144.754 100.58 145.463 99.6817 146.378 99.1944C147.298 98.7041 148.55 98.5366 149.516 98.9505C149.684 99.0224 149.874 99.0747 149.802 99.3313C149.765 99.463 149.636 99.6003 149.557 99.7001C149.386 99.9146 149.189 100.101 148.976 100.261C148.558 100.574 148.089 100.784 147.608 100.941C146.47 101.313 145.28 101.524 144.12 101.796C143.926 101.842 144.008 102.173 144.201 102.128Z" fill="#263238"/>
<path d="M110.126 84.6995L115.996 89.0964C116.313 89.3337 116.398 89.8142 116.186 90.1686L114.719 92.6206C114.507 92.9751 114.077 93.0702 113.761 92.8329L107.891 88.436C107.574 88.1987 107.489 87.7182 107.701 87.3638L109.168 84.9118C109.38 84.5573 109.809 84.4622 110.126 84.6995Z" fill="#151414"/>
<path d="M117.218 89.231C117.218 89.231 116.123 87.0391 115.004 86.5534C113.886 86.0678 113.271 84.2453 112.379 84.1547C111.486 84.0641 111.399 84.9658 112.008 85.8631C112.616 86.7605 113.897 87.5575 113.196 88.0785C112.495 88.5995 109.545 89.1825 108.884 89.6912C108.223 90.1999 108.762 91.1698 109.255 91.2268C109.748 91.2838 110.542 91.1467 110.542 91.1467C110.542 91.1467 110.35 91.977 111.075 92.6333C111.799 93.2896 111.99 93.1803 111.99 93.1803C111.99 93.1803 112.002 93.5887 112.535 93.9939C113.068 94.3991 117.537 93.3561 117.675 93.4347C117.814 93.5133 117.951 89.3295 117.951 89.3295L117.218 89.231Z" fill="#EBB373"/>
<path d="M143.579 75.186C143.505 75.7608 142.224 96.6022 137.325 98.9163C132.427 101.23 117.367 93.4611 117.367 93.4611L117.65 89.2475L131.255 90.548C131.255 90.548 132.797 73.4807 133.418 72.0434C134.039 70.6062 135.936 66.5381 139.418 66.6406C142.575 66.7335 144.258 69.9318 143.579 75.186Z" fill="#151414"/>
<path d="M111.957 108.282C112.217 109.32 112.422 110.224 112.617 111.195C112.811 112.167 112.988 113.122 113.16 114.088C113.485 116.026 113.758 117.978 113.944 119.957C114.146 121.959 114.247 123.973 114.246 125.987C114.261 128.096 114.088 130.201 113.731 132.272L113.698 132.443C113.656 132.668 113.585 132.885 113.489 133.087C112.995 134.087 112.32 134.961 111.507 135.653C110.872 136.203 110.197 136.691 109.488 137.112C108.208 137.86 106.874 138.485 105.5 138.982C104.173 139.471 102.85 139.87 101.513 140.203C100.849 140.369 100.181 140.509 99.5077 140.644C98.8346 140.779 98.1801 140.894 97.4745 140.987C96.6558 141.105 95.9067 140.458 95.8014 139.542C95.714 138.782 96.0993 138.053 96.7365 137.772H96.7783C97.948 137.253 99.1689 136.702 100.339 136.12C101.508 135.539 102.66 134.962 103.783 134.329C104.86 133.738 105.899 133.064 106.893 132.313C107.324 131.993 107.726 131.628 108.095 131.223C108.324 131.001 108.508 130.726 108.634 130.418L108.392 131.233C108.566 129.544 108.608 127.841 108.518 126.143C108.485 125.265 108.416 124.372 108.332 123.484C108.248 122.596 108.156 121.692 108.044 120.794C107.812 118.996 107.537 117.198 107.218 115.397C107.063 114.493 106.896 113.595 106.717 112.702C106.536 111.819 106.35 110.889 106.169 110.074V110.022C105.805 108.211 106.822 106.413 108.44 106.006C109.973 105.62 111.512 106.621 111.971 108.302L111.957 108.282Z" fill="#E1BFB9"/>
<path d="M98.3798 137.305L94.6245 137.793L95.6829 142.659C95.6829 142.659 98.9693 141.989 99.4521 139.709L98.3798 137.305Z" fill="#E1BFB9"/>
<path d="M92.8837 139.917L93.5244 141.74C93.6776 142.174 94.0372 142.474 94.4527 142.514L95.7014 142.659L94.6245 137.798L93.4779 138.317C92.9213 138.578 92.6562 139.292 92.8837 139.917Z" fill="#E1BFB9"/>
<path d="M110.17 101.53C114.998 105.383 115.569 114.841 115.569 114.841L106.137 118.061C106.137 118.061 104.428 113.787 104.057 109.923C103.463 103.711 106.712 98.7716 110.17 101.53Z" fill="#151414"/>
<path d="M88.6258 186.972L89.8063 197.082L85.6524 198.056L83.0771 188.771C84.8167 186.941 86.6622 186.297 88.6258 186.972Z" fill="#E1BFB9"/>
<path d="M89.8766 196.473C90.2929 197.818 90.3202 203.324 90.3202 203.324L81.3513 203.336C80.8185 201.345 81.6431 199.986 82.6891 199.805C83.1387 199.728 83.6675 199.169 84.053 198.68C84.0556 198.617 84.6041 195.559 84.9429 195.412C84.9429 195.412 85.1765 195.094 85.3755 195.412C85.5746 195.729 85.7471 196.763 85.7471 196.763C87.1471 194.657 88.5192 194.938 89.8766 196.473Z" fill="#263238"/>
<path d="M89.9854 198.071C88.9719 197.619 87.8845 197.79 87.0009 198.543C86.8463 198.674 86.6996 198.366 86.853 198.236C87.7943 197.435 88.9839 197.247 90.0633 197.729C90.2387 197.807 90.1629 198.15 89.9854 198.071Z" fill="white"/>
<path d="M81.378 202.53L90.2151 202.519C90.296 202.519 90.3616 202.439 90.3615 202.341C90.3614 202.243 90.2957 202.164 90.2149 202.164L81.3779 202.175C81.2969 202.175 81.2314 202.255 81.2314 202.353C81.2316 202.451 81.2972 202.53 81.378 202.53Z" fill="white"/>
<path d="M97.8553 137.439C97.8553 137.439 78.1689 145.069 77.7233 152.465C76.535 172.311 83.34 191.538 83.34 191.538H89.8387C89.8387 191.538 88.8407 184.745 87.9541 166.764C86.8447 144.165 121.121 167.283 114.065 137.439H97.8553Z" fill="#263238"/>
<path d="M72.3017 185.398L73.5595 196.819L69.5591 197.745L66.4033 187.324C67.8662 185.641 69.6723 184.668 72.3017 185.398Z" fill="#E1BFB9"/>
<path d="M73.7356 196.252C74.152 197.598 74.1792 203.104 74.1792 203.104L63.8755 203.117C63.3427 201.126 64.456 199.946 65.5021 199.765C65.9517 199.689 67.5265 198.949 67.912 198.46C67.9146 198.397 68.4631 195.338 68.802 195.192C68.802 195.192 69.0355 194.874 69.2345 195.192C69.4335 195.509 69.6061 196.543 69.6061 196.543C71.0061 194.437 72.3782 194.718 73.7356 196.252Z" fill="#263238"/>
<path d="M73.8443 197.85C72.8309 197.398 71.7434 197.57 70.8598 198.322C70.7052 198.454 70.5585 198.146 70.7119 198.015C71.6532 197.214 72.8429 197.026 73.9222 197.508C74.0977 197.586 74.0218 197.93 73.8443 197.85Z" fill="white"/>
<path d="M63.8746 202.311L74.0744 202.298C74.1553 202.298 74.2208 202.218 74.2207 202.12C74.2206 202.022 74.155 201.943 74.0741 201.943L63.8744 201.956C63.7935 201.956 63.7279 202.036 63.728 202.134C63.7281 202.232 63.7937 202.311 63.8746 202.311Z" fill="white"/>
<path d="M82.4145 189.709C82.382 189.709 83.2602 193.294 83.2602 193.294L90.4261 192.728L89.8061 189.217L82.4145 189.709Z" fill="#151414"/>
<path d="M90.9296 137.439C90.9296 137.439 60.8731 140.556 61.2213 159.056C61.5879 178.273 67.8638 192.063 67.8638 192.063H74.2883C74.2883 192.063 71.7213 179.556 71.9348 160.63C71.9998 154.958 80.8937 154.917 90.8971 154.278C99.5357 153.707 107.608 148.196 110.978 139.268L111.665 137.439H90.9296Z" fill="#263238"/>
<path d="M66.5054 189.8C66.4776 189.8 67.5669 193.294 67.5669 193.294L74.4742 192.954L74.0215 189.525L66.5054 189.8Z" fill="#151414"/>
<path d="M105.008 89.293C104.391 92.8351 103.769 99.317 105.983 101.68C105.983 101.68 105.12 105.269 99.2431 105.269C92.7815 105.269 96.1562 101.68 96.1562 101.68C99.6794 100.735 99.5912 97.8109 98.9739 95.0581L105.008 89.293Z" fill="#E1BFB9"/>
<path d="M105.793 99.9299C102.439 99.8169 99.0825 99.9905 95.7523 100.449C91.7704 101.016 88.7506 104.743 88.6362 109.232C88.5156 114.514 88.9148 123.287 90.9294 137.455C97.948 139.382 109.989 140.79 114.051 137.455C114.181 134.142 112.292 124.216 113.666 110.125C114.178 105.098 110.951 100.558 106.458 99.9842C106.237 99.9561 106.015 99.9379 105.793 99.9299Z" fill="#151414"/>
<path d="M94.9632 109.892C94.7358 111.886 94.4433 113.828 94.1555 115.797C93.8677 117.765 93.5335 119.713 93.1715 121.666C92.8094 123.619 92.4195 125.577 91.9785 127.54C91.5415 129.58 90.9911 131.587 90.3306 133.549L90.2192 133.866L90.1356 134.017C89.3745 135.319 88.3957 136.444 87.253 137.33C86.2743 138.107 85.2331 138.78 84.1429 139.34C83.108 139.876 82.0445 140.339 80.9586 140.727C79.8825 141.119 78.7847 141.431 77.6721 141.662L76.7437 138.504C77.6024 137.985 78.5262 137.388 79.3849 136.796C80.2437 136.203 81.1024 135.596 81.9008 134.957C82.6693 134.357 83.397 133.693 84.0779 132.973C84.629 132.409 85.0891 131.743 85.438 131.004L85.243 131.467C85.7084 129.705 86.0942 127.917 86.3989 126.112C86.7269 124.235 87.0364 122.341 87.3273 120.43L88.186 114.68L89.003 108.931L94.9632 109.892Z" fill="#E1BFB9"/>
<path d="M79.9701 136.993L74.9336 138.66L77.7187 143.2C77.7187 143.2 79.2367 143.101 80.4203 139.834L79.9701 136.993Z" fill="#E1BFB9"/>
<path d="M73.3274 142.166L73.8195 143.246C74.2042 144.078 75.0949 144.439 75.8666 144.077L77.7234 143.2L74.9382 138.66L73.6431 140.063C73.1343 140.609 73.006 141.464 73.3274 142.166Z" fill="#E1BFB9"/>
<path d="M97.772 103.805C99.754 107.861 96.3794 118.077 96.3794 118.077L86.311 115.299C86.311 115.299 86.3946 112.442 88.6041 106.989C91.1433 100.772 95.6181 99.364 97.772 103.805Z" fill="#151414"/>
<path d="M118.828 121.891C120.277 114.427 122.273 101.245 108.379 100.035L106.309 99.8585C106.32 99.6491 106.303 99.4391 106.258 99.2353C106.982 99.2353 108.305 99.1418 108.013 98.1601C107.841 97.5941 107.627 97.4122 107.335 97.4642C107.513 97.1906 107.459 96.8072 107.215 96.608L107.2 96.5968C106.272 95.7502 106.072 96.6851 105.501 98.103C102.869 98.2042 100.262 98.729 97.7633 99.6612C92.8475 100.051 88.6233 101.739 86.7062 106.668C83.4569 115.019 86.9058 131.598 77.9748 134.745C70.5755 137.342 69.4057 141.238 66.8759 144.676C66.2284 145.543 66.332 146.834 67.1073 147.558C67.2742 147.714 67.4646 147.836 67.6697 147.917C72.7758 149.906 79.1445 150.649 84.3435 150.649H118.332C124.222 150.649 117.385 129.349 118.828 121.891Z" fill="#151414"/>
<path opacity="0.4" d="M118.828 121.891C120.277 114.427 122.273 101.245 108.379 100.035L106.309 99.8585C106.32 99.6491 106.303 99.4391 106.258 99.2353C106.982 99.2353 108.305 99.1418 108.013 98.1601C107.841 97.5941 107.627 97.4122 107.335 97.4642C107.513 97.1906 107.459 96.8072 107.215 96.608L107.2 96.5968C106.272 95.7502 106.072 96.6851 105.501 98.103C102.869 98.2042 100.262 98.729 97.7633 99.6612C92.8475 100.051 88.6233 101.739 86.7062 106.668C83.4569 115.019 86.9058 131.598 77.9748 134.745C70.5755 137.342 69.4057 141.238 66.8759 144.676C66.2284 145.543 66.332 146.834 67.1073 147.558C67.2742 147.714 67.4646 147.836 67.6697 147.917C72.7758 149.906 79.1445 150.649 84.3435 150.649H118.332C124.222 150.649 117.385 129.349 118.828 121.891Z" fill="white"/>
<path opacity="0.3" d="M106.265 99.268C104.9 99.1277 100.755 99.7562 100.755 99.7562C100.755 99.7562 104.812 99.7873 106.325 99.8964C106.332 99.6847 106.312 99.4731 106.265 99.268Z" fill="#151414"/>
<path d="M94.4505 198.575H99.4006L103.086 203.192H90.7778L94.4505 198.575Z" fill="#151414"/>
<path d="M97.0152 85.0496C96.9177 85.4235 96.6577 85.6677 96.4396 85.595C96.2214 85.5222 96.1239 85.1587 96.2214 84.7847C96.3189 84.4108 96.5788 84.1667 96.797 84.2394C97.0152 84.3121 97.1127 84.6757 97.0152 85.0496Z" fill="#263238"/>
<path d="M96.6904 85.6782C96.6904 85.6782 95.3582 87.5844 94.2441 88.3479C94.6712 89.1633 95.7528 89.21 95.7528 89.21L96.6904 85.6782Z" fill="#CD877B"/>
<path d="M98.7512 82.8998C98.7094 82.8967 98.6692 82.8805 98.6352 82.853C98.2353 82.4768 97.6978 82.3395 97.1915 82.4843C97.0847 82.5249 96.9687 82.461 96.9324 82.3415L96.9316 82.3389C96.8977 82.2185 96.9552 82.0898 97.0616 82.048C97.6977 81.8566 98.3773 82.021 98.8858 82.4894C98.9755 82.5661 98.9926 82.7095 98.9242 82.8098L98.923 82.8115C98.8831 82.8721 98.8183 82.9054 98.7512 82.8998Z" fill="#263238"/>
<path d="M108.374 87.9376C106.902 92.4458 106.248 95.1726 103.551 96.8398C99.4891 99.3484 94.9818 95.5673 95.1953 90.6539C95.4042 86.234 97.7762 79.6015 102.279 79.1081C105.491 78.7207 108.375 81.3197 108.721 84.9132C108.82 85.9378 108.701 86.9741 108.374 87.9376Z" fill="#E1BFB9"/>
<path d="M98.8208 88.7115C97.3633 88.8777 97.2797 87.8181 97.2797 87.8181C97.2797 87.8181 96.7087 84.359 98.8626 82.2296C97.7393 81.5284 96.5742 80.152 97.2194 78.1005C97.8646 76.0489 100.367 74.9842 102.534 75.4205C102.07 76.4592 104.303 77.5915 107.014 77.3578C109.725 77.1241 111.744 79.4768 110.119 80.9934C112.747 80.9934 114.056 86.0003 111.405 88.3998C106.392 92.934 106.299 96.336 103.978 96.8502C101.657 97.3644 96.4302 94.6376 98.8208 88.7115Z" fill="#263238"/>
<path opacity="0.4" d="M109.602 87.1544C109.602 87.1544 109.341 87.4324 107.927 87.6406C106.513 87.8487 106.885 86.4331 106.885 86.4331L105.62 86.5581C104.355 86.6829 104.541 84.9173 104.541 84.9173C104.541 84.9173 104.318 84.851 102.978 85.1008C101.639 85.3506 102.532 84.2267 102.532 84.2267C102.532 84.2267 100.039 83.935 99.5251 83.5186C99.0117 83.1023 100.187 82.9001 100.187 82.9001L98.8629 82.2295C96.709 84.359 97.28 87.8181 97.28 87.8181C97.28 87.8181 97.3635 88.8776 98.8211 88.7114C96.4305 94.6375 101.657 97.3643 103.978 96.8501C106.216 96.3543 106.384 93.1731 110.888 88.8812C109.859 89.2173 109.602 87.1544 109.602 87.1544Z" fill="white"/>
<path d="M99.2153 88.6179C98.9089 89.5718 98.3339 90.3884 97.5766 90.9447C96.6854 91.5212 96.4486 90.4253 96.6157 88.9451C96.769 87.5739 97.6927 85.5691 98.5468 85.7665C99.4009 85.9638 99.6794 87.3402 99.2153 88.6179Z" fill="#E1BFB9"/>
<path d="M121.162 149.23H72.7981C71.2522 149.23 69.999 150.632 69.999 152.362V155.494C69.999 157.223 71.2522 158.626 72.7981 158.626H121.162C122.708 158.626 123.961 157.223 123.961 155.494V152.362C123.961 150.632 122.708 149.23 121.162 149.23Z" fill="#151414"/>
<path opacity="0.3" d="M121.162 149.23H72.7981C71.2522 149.23 69.999 150.632 69.999 152.362V155.494C69.999 157.223 71.2522 158.626 72.7981 158.626H121.162C122.708 158.626 123.961 157.223 123.961 155.494V152.362C123.961 150.632 122.708 149.23 121.162 149.23Z" fill="black"/>
<path d="M123.873 101.826H103.556C101.224 101.918 99.2369 103.749 98.7096 106.292C96.0172 121.504 95.1198 137.045 96.0405 152.517C96.2476 155.03 98.1207 156.96 100.376 156.984H120.689C122.704 157.02 124.363 155.221 124.395 152.967C124.397 152.817 124.392 152.667 124.379 152.517C123.46 137.045 124.355 121.504 127.044 106.292C127.48 103.82 126.092 101.826 123.873 101.826Z" fill="#151414"/>
<path opacity="0.3" d="M123.873 101.826H103.556C101.224 101.918 99.2369 103.749 98.7096 106.292C96.0172 121.504 95.1198 137.045 96.0405 152.517C96.2476 155.03 98.1207 156.96 100.376 156.984H120.689C122.704 157.02 124.363 155.221 124.395 152.967C124.397 152.817 124.392 152.667 124.379 152.517C123.46 137.045 124.355 121.504 127.044 106.292C127.48 103.82 126.092 101.826 123.873 101.826Z" fill="black"/>
<path d="M126.691 103.701H107.761C105.589 103.784 103.736 105.487 103.24 107.856C100.729 122.042 99.8943 136.535 100.757 150.964C100.95 153.304 102.695 155.1 104.795 155.12H123.725C125.604 155.151 127.15 153.473 127.179 151.37C127.18 151.235 127.176 151.099 127.165 150.964C126.307 136.535 127.142 122.042 129.648 107.856C130.052 105.565 128.757 103.701 126.691 103.701Z" fill="#151414"/>
<path d="M99.3917 164.489H94.4666C93.7924 164.49 93.1589 164.128 92.763 163.518L89.5972 158.62H104.261L101.095 163.518C100.699 164.128 100.066 164.49 99.3917 164.489Z" fill="#151414"/>
<path opacity="0.5" d="M89.5972 158.625L90.9108 160.651L103.607 159.638L104.261 158.625H89.5972Z" fill="black"/>
<path d="M98.9278 164.489H94.9312V199.101H98.9278V164.489Z" fill="#263238"/>
<path opacity="0.6" d="M98.9278 164.489H94.9312V199.101H98.9278V164.489Z" fill="white"/>
<path d="M109.281 95.6191C109.389 96.5653 110.48 97.2359 111.304 97.1012C110.63 96.6072 109.956 96.1132 109.281 95.6191Z" fill="#263238"/>
<path d="M111.617 95.8127C111.811 95.176 111.37 94.4175 110.863 94.2539C111.114 94.7735 111.365 95.2931 111.617 95.8127Z" fill="#263238"/>
<path d="M112 98.9674C112.591 99.0891 113.197 98.4892 113.267 97.9043C112.845 98.2587 112.422 98.613 112 98.9674Z" fill="#263238"/>
<path d="M111.12 98.8303C110.854 98.2269 110.062 98.0414 109.601 98.3276C110.107 98.4952 110.613 98.6627 111.12 98.8303Z" fill="#263238"/>
</svg>
