<svg width="273" height="249" viewBox="0 0 273 249" fill="none" xmlns="http://www.w3.org/2000/svg">
<path d="M242.381 164.439H143.693C141.929 164.439 140.493 163.129 140.493 161.519V30.4089C140.493 28.7992 141.929 27.4897 143.693 27.4897H242.381C244.146 27.4897 245.582 28.7992 245.582 30.4089V161.519C245.582 163.129 244.146 164.439 242.381 164.439ZM143.693 27.6142C142.004 27.6142 140.629 28.868 140.629 30.4089V161.519C140.629 163.06 142.004 164.314 143.693 164.314H242.381C244.071 164.314 245.445 163.06 245.445 161.519V30.4089C245.445 28.868 244.071 27.6142 242.381 27.6142H143.693Z" fill="#E0E0E0"/>
<path d="M128.579 164.439H29.8915C28.1266 164.439 26.6909 163.129 26.6909 161.519V30.4089C26.6909 28.7992 28.1266 27.4897 29.8915 27.4897H128.579C130.344 27.4897 131.78 28.7992 131.78 30.4089V161.519C131.78 163.129 130.344 164.439 128.579 164.439ZM29.8915 27.6142C28.202 27.6142 26.8274 28.868 26.8274 30.4089V161.519C26.8274 163.06 28.202 164.314 29.8915 164.314H128.579C130.269 164.314 131.643 163.06 131.643 161.519V30.4089C131.643 28.868 130.269 27.6142 128.579 27.6142H29.8915Z" fill="#E0E0E0"/>
<path d="M273 194.851H0V194.977H273V194.851Z" fill="#E0E0E0"/>
<path d="M36.9816 201.955H28.2129V202.08H36.9816V201.955Z" fill="#E0E0E0"/>
<path d="M122.24 200.605H93.0122V200.73H122.24V200.605Z" fill="#E0E0E0"/>
<path d="M57.3203 206.581H37.5278V206.707H57.3203V206.581Z" fill="#E0E0E0"/>
<path d="M230.162 200.541H206.581V200.666H230.162V200.541Z" fill="#E0E0E0"/>
<path d="M238.483 200.541H235.027V200.666H238.483V200.541Z" fill="#E0E0E0"/>
<path d="M202.076 203.643H172.652V203.769H202.076V203.643Z" fill="#E0E0E0"/>
<path d="M231.513 134.755H224.243V120.389C224.243 119.285 225.224 118.39 226.434 118.39H229.347C230.558 118.39 231.539 119.285 231.539 120.389V134.755H231.513Z" fill="#F5F5F5"/>
<path d="M229.657 115.839H226.106C225.903 115.839 225.738 115.989 225.738 116.174V118.049C225.738 118.234 225.903 118.384 226.106 118.384H229.657C229.86 118.384 230.024 118.234 230.024 118.049V116.174C230.024 115.989 229.86 115.839 229.657 115.839Z" fill="#E6E6E6"/>
<path d="M238.085 134.806H232.816V124.394C232.816 123.594 233.527 122.946 234.404 122.946H236.516C237.393 122.946 238.104 123.594 238.104 124.394V134.806H238.085Z" fill="#F5F5F5"/>
<path d="M236.74 121.097H234.166C234.019 121.097 233.9 121.205 233.9 121.34V122.698C233.9 122.833 234.019 122.941 234.166 122.941H236.74C236.887 122.941 237.006 122.833 237.006 122.698V121.34C237.006 121.205 236.887 121.097 236.74 121.097Z" fill="#E6E6E6"/>
<path d="M221.942 134.749H215.568V122.14C215.568 121.166 216.434 120.376 217.502 120.376H220.035C221.102 120.376 221.968 121.166 221.968 122.14V134.749H221.942Z" fill="#F5F5F5"/>
<path d="M220.312 118.167H217.192C217.014 118.167 216.87 118.298 216.87 118.46V120.106C216.87 120.269 217.014 120.4 217.192 120.4H220.312C220.49 120.4 220.634 120.269 220.634 120.106V118.46C220.634 118.298 220.49 118.167 220.312 118.167Z" fill="#E6E6E6"/>
<path d="M50.9124 134.755H43.6426V120.389C43.6426 119.285 44.6236 118.39 45.8338 118.39H48.7469C49.9571 118.39 50.9382 119.285 50.9382 120.389V134.755H50.9124Z" fill="#F5F5F5"/>
<path d="M49.0561 115.839H45.505C45.3022 115.839 45.1377 115.989 45.1377 116.174V118.049C45.1377 118.234 45.3022 118.384 45.505 118.384H49.0561C49.259 118.384 49.4235 118.234 49.4235 118.049V116.174C49.4235 115.989 49.259 115.839 49.0561 115.839Z" fill="#E6E6E6"/>
<path d="M57.4843 134.806H52.2158V124.394C52.2158 123.594 52.9268 122.946 53.8039 122.946H55.915C56.7921 122.946 57.5031 123.594 57.5031 124.394V134.806H57.4843Z" fill="#F5F5F5"/>
<path d="M56.1391 121.097H53.5655C53.4185 121.097 53.2993 121.205 53.2993 121.34V122.698C53.2993 122.833 53.4185 122.941 53.5655 122.941H56.1391C56.2861 122.941 56.4053 122.833 56.4053 122.698V121.34C56.4053 121.205 56.2861 121.097 56.1391 121.097Z" fill="#E6E6E6"/>
<path d="M41.3417 134.749H34.9678V122.14C34.9678 121.166 35.8334 120.376 36.9012 120.376H39.434C40.5018 120.376 41.3674 121.166 41.3674 122.14V134.749H41.3417Z" fill="#F5F5F5"/>
<path d="M39.7111 118.167H36.5918C36.4138 118.167 36.2695 118.298 36.2695 118.46V120.106C36.2695 120.269 36.4138 120.4 36.5918 120.4H39.7111C39.8891 120.4 40.0333 120.269 40.0333 120.106V118.46C40.0333 118.298 39.8891 118.167 39.7111 118.167Z" fill="#E6E6E6"/>
<path d="M73.2306 128.124H61.4868V134.806H73.2306V128.124Z" fill="#E0E0E0"/>
<path d="M244.29 61.9319H237.306V48.1296C237.306 47.0691 238.249 46.2095 239.411 46.2095H242.21C243.373 46.2095 244.315 47.0691 244.315 48.1296V61.9319H244.29Z" fill="#F5F5F5"/>
<path d="M242.507 43.7583H239.096C238.901 43.7583 238.743 43.9024 238.743 44.0802V45.8818C238.743 46.0596 238.901 46.2037 239.096 46.2037H242.507C242.702 46.2037 242.86 46.0596 242.86 45.8818V44.0802C242.86 43.9024 242.702 43.7583 242.507 43.7583Z" fill="#E6E6E6"/>
<path d="M235.096 61.9261H228.972V49.8124C228.972 48.8767 229.804 48.1182 230.83 48.1182H233.263C234.289 48.1182 235.121 48.8767 235.121 49.8124V61.9261H235.096Z" fill="#F5F5F5"/>
<path d="M233.529 45.9946H230.532C230.361 45.9946 230.223 46.121 230.223 46.277V47.8583C230.223 48.0142 230.361 48.1407 230.532 48.1407H233.529C233.7 48.1407 233.839 48.0142 233.839 47.8583V46.277C233.839 46.121 233.7 45.9946 233.529 45.9946Z" fill="#E6E6E6"/>
<path d="M258.897 61.9316H247.033V49.0668C247.033 47.8722 248.095 46.9038 249.405 46.9038H256.531C257.841 46.9038 258.903 47.8722 258.903 49.0668V61.9316H258.897Z" fill="#E6E6E6"/>
<path d="M254.841 48.5022H251.095V44.4417C251.095 44.0643 251.431 43.7583 251.844 43.7583H254.092C254.506 43.7583 254.841 44.0643 254.841 44.4417V48.5022Z" fill="#E6E6E6"/>
<path d="M261.096 61.4028H227.534V65.907H261.096V61.4028Z" fill="#E0E0E0"/>
<path d="M162.919 138.504H139.513V145.415H162.919V138.504Z" fill="#F5F5F5"/>
<path d="M35.1503 98.6079H11.7441V105.519H35.1503V98.6079Z" fill="#EBEBEB"/>
<path d="M44.5253 105.321H21.1191V112.232H44.5253V105.321Z" fill="#F5F5F5"/>
<path d="M247.279 87.1265H223.873V94.0372H247.279V87.1265Z" fill="#EBEBEB"/>
<path d="M256.654 93.8398H233.248V100.751H256.654V93.8398Z" fill="#F5F5F5"/>
<path d="M149.89 176.273H126.484V183.184H149.89V176.273Z" fill="#EBEBEB"/>
<path d="M159.266 182.986H135.859V189.897H159.266V182.986Z" fill="#F5F5F5"/>
<path d="M47.9726 176.273H24.5664V183.184H47.9726V176.273Z" fill="#EBEBEB"/>
<path d="M97.8632 14.0547H74.457V20.9654H97.8632V14.0547Z" fill="#EBEBEB"/>
<path d="M214.713 21.1079H191.307V28.0186H214.713V21.1079Z" fill="#EBEBEB"/>
<path d="M245.445 134.806H26.6909V143.628H245.445V134.806Z" fill="#EBEBEB"/>
<path d="M49.4238 143.627H40.0337V222.345H49.4238V143.627Z" fill="#E0E0E0"/>
<path d="M222.533 143.627H213.143V222.345H222.533V143.627Z" fill="#E0E0E0"/>
<path d="M214.603 143.627H49.4238V160.458H214.603V143.627Z" fill="#E0E0E0"/>
<path d="M133.189 145.918H50.7764V158.167H133.189V145.918Z" fill="#EBEBEB"/>
<path d="M212.261 145.918H138.534V158.167H212.261V145.918Z" fill="#EBEBEB"/>
<path d="M250.546 232.485C250.546 234.172 199.486 235.539 136.5 235.539C73.5141 235.539 22.4541 234.172 22.4541 232.485C22.4541 230.798 73.5141 229.431 136.5 229.431C199.486 229.431 250.546 230.798 250.546 232.485Z" fill="#F5F5F5"/>
<path d="M243.544 149.021C233.926 159.284 231.117 174.474 236.512 187.046C242.507 182.165 246.729 174.726 246.996 168.22C247.263 161.714 245.396 155.31 243.544 149.021Z" fill="#D1D1D1"/>
<path d="M241.866 188.231C238.603 192.793 237.041 198.347 237.494 203.778C242.694 202.127 247.278 196.769 250.026 192.418C252.774 188.066 254.31 183.179 255.709 178.322C250.076 180.13 245.13 183.67 241.866 188.231Z" fill="#D1D1D1"/>
<path d="M240.661 166.941C236.791 179.624 234.821 192.781 234.839 205.947C234.845 209.669 235.011 213.39 235.329 217.101C235.35 217.339 235.759 217.341 235.739 217.101C234.614 204.008 235.445 190.788 238.227 177.901C239.015 174.249 239.961 170.626 241.055 167.04C241.126 166.808 240.731 166.709 240.661 166.941Z" fill="#263238"/>
<path d="M235.451 208.07C239.399 199.5 244.588 191.471 250.587 183.966C250.742 183.771 250.387 183.585 250.233 183.777C244.212 191.311 239.019 199.368 235.056 207.971C234.954 208.192 235.35 208.289 235.451 208.07Z" fill="#263238"/>
<path d="M229.846 195.339C232.567 199.142 233.87 203.773 233.492 208.302C229.156 206.925 225.334 202.458 223.042 198.83C220.751 195.201 219.469 191.126 218.304 187.076C223.001 188.583 227.124 191.535 229.846 195.339Z" fill="#D1D1D1"/>
<path d="M235.334 211.301C232.095 204.274 227.816 197.761 222.899 191.609C222.745 191.416 222.39 191.603 222.545 191.797C227.439 197.92 231.715 204.405 234.939 211.4C235.039 211.619 235.436 211.523 235.334 211.301Z" fill="#263238"/>
<path d="M235.484 213.641C241.602 207.9 247.85 202.274 253.968 196.533C254.152 196.36 253.862 196.096 253.678 196.269C247.56 202.01 241.312 207.636 235.194 213.377C235.01 213.55 235.3 213.814 235.484 213.641Z" fill="#263238"/>
<path d="M254.194 193.89C248.885 198.559 244.049 203.675 239.766 209.151L240.737 209.151C244.777 208.978 248.699 207.16 251.234 204.285C253.769 201.411 254.875 197.527 254.194 193.89Z" fill="#D1D1D1"/>
<path d="M229.059 182.757C231.338 186.157 233.486 189.629 235.498 193.166C235.619 193.38 235.973 193.191 235.851 192.978C233.84 189.44 231.692 185.969 229.413 182.569C229.275 182.364 228.921 182.552 229.059 182.757Z" fill="#263238"/>
<path d="M223.568 165.589C222.699 169.155 221.837 173.793 221.828 177.506C221.819 181.219 223.061 184.843 225.375 187.331C227.689 189.819 232.359 190.909 234.242 189.486L223.568 165.589Z" fill="#D1D1D1"/>
<path d="M246.638 215.294H223.449V219.214H246.638V215.294Z" fill="#263238"/>
<path d="M242.883 233.179H228.483L225.867 218.316H244.95L242.883 233.179Z" fill="#263238"/>
<path opacity="0.2" d="M226.038 219.287H244.815L244.581 220.97H226.334L226.038 219.287Z" fill="#D1D1D1"/>
<path d="M44.7671 35.3428H24.6436V79.4943H44.7671V35.3428Z" fill="#151414"/>
<path opacity="0.8" d="M44.7671 35.3428H24.6436V79.4943H44.7671V35.3428Z" fill="white"/>
<path d="M33.6071 27.5562L24.6436 34.7665V47.2004L44.512 32.371L33.6071 27.5562Z" fill="#263238"/>
<path d="M47.2238 33.7368H22.1865V36.9482H47.2238V33.7368Z" fill="#151414"/>
<path d="M33.9579 24.563H35.5527C40.6382 24.563 44.7671 28.3288 44.7671 32.9673V35.3425H24.7437V32.9672C24.7437 28.3288 28.8724 24.563 33.9579 24.563Z" fill="#151414"/>
<path d="M44.7671 40.749L24.6436 56.9366V69.3705L44.7671 53.8868V40.749Z" fill="#151414"/>
<path d="M24.6436 79.4581L24.7771 81.7412L37.0619 82.3369L44.7672 76.4082V63.2705L24.6436 79.4581Z" fill="#263238"/>
<path d="M22.1863 81.832H47.2236V78.6207H22.1863V81.832Z" fill="#151414"/>
<path d="M35.4526 91.0059H33.8579C28.7724 91.0059 24.6436 87.24 24.6436 82.6016V80.2263H44.667V82.6016C44.667 87.24 40.5382 91.0059 35.4526 91.0059Z" fill="#151414"/>
<path opacity="0.3" d="M24.6436 81.874H44.7671C44.7671 81.874 38.2159 82.702 34.9232 82.7058C29.6346 82.712 24.6436 81.874 24.6436 81.874Z" fill="black"/>
<path opacity="0.3" d="M44.7671 33.7371H24.6436C24.6436 33.7371 31.1947 32.9091 34.4875 32.9053C39.776 32.8992 44.7671 33.7371 44.7671 33.7371Z" fill="black"/>
<path opacity="0.5" d="M30.6101 36.9482H27.2324V78.6205H30.6101V36.9482Z" fill="white"/>
<path d="M133.787 49.3812H134.303V52.2984H133.787V49.3812ZM133.787 47.0835H134.303V39.7217H133.787V47.0835Z" fill="#D1D1D1"/>
<path d="M63.7884 26.1743H61.8535V120.139H63.7884H132.497V26.1743H63.7884Z" fill="#D1D1D1"/>
<path opacity="0.2" d="M121.257 106.49L127.622 85.8011C127.622 85.8011 127.494 85.9489 127.276 86.202C126.785 82.6696 125.716 75.3637 124.934 72.8133C123.888 69.3999 119.743 67.3685 119.743 67.3685C119.715 67.3951 117.507 66.5926 115.146 65.7236L112.328 64.5182C112.318 64.5367 112.306 64.5886 112.292 64.6694C110.691 64.0763 109.469 63.6208 109.469 63.6208L109.346 63.5957C109.304 62.6027 109.296 61.4018 109.356 60.2491C109.361 60.1936 109.364 60.1404 109.364 60.0938C109.396 59.5558 109.443 59.0322 109.509 58.5501C109.512 58.5298 109.515 58.5097 109.518 58.4894C109.524 58.4484 109.531 58.4098 109.537 58.3694C112.675 57.7642 115.428 55.4478 116.121 52.2086C116.669 49.6475 116.629 46.2743 115.674 43.3024C115.88 43.4054 116.093 43.5461 116.3 43.7427C116.371 43.8098 116.471 43.8355 116.564 43.8195C116.619 43.8102 116.672 43.7864 116.715 43.748C116.832 43.6445 116.837 43.4741 116.725 43.3676C116.298 42.9622 115.842 42.7449 115.437 42.6309C114.994 41.4568 114.397 40.3632 113.623 39.431L113.626 39.4328C113.717 39.4649 114.533 38.4038 111.521 37.0007C107.507 35.1317 102.61 35.5319 100.426 37.1066C98.2412 38.6813 96.4986 41.1105 96.7371 43.5065C96.7646 44.2723 96.9582 45.1169 97.2576 45.9815C96.5075 46.6244 96.1805 47.6717 96.4977 48.7058C96.9604 50.2138 98.1469 51.3797 99.392 51.9842C99.5182 52.0455 99.6384 52.0919 99.7547 52.1288C100.119 53.3636 100.643 54.4455 101.475 55.436C101.664 58.5278 101.355 60.7235 101.08 61.9809L98.4323 62.056L98.4403 61.9906L95.2099 62.1474L89.0829 62.3212C89.0829 62.3212 85.5437 62.1608 83.0643 65.5612C82.9074 65.7764 82.7344 66.0779 82.5493 66.4483C82.2141 64.8159 82.0953 63.6676 81.5234 63.4032C81.0801 63.1983 80.4358 63.3687 80.4358 63.3687C80.2954 63.4833 79.0196 63.9869 79.3552 65.7887C79.515 66.6467 80.1358 68.5585 80.9071 70.5311C78.6329 76.9529 75.9365 86.861 75.9365 86.861C76.4168 86.551 77.3225 86.2806 78.4539 86.0454C78.4513 86.0754 77.8957 92.7174 80.2216 94.4948C80.7367 94.8885 81.9861 95.3624 83.7419 95.8438C83.0088 101.089 81.4298 111.628 81.0796 111.628C80.9765 111.628 80.5716 114.818 80.0053 119.769H121.774L121.728 118.847L121.257 106.49ZM112.606 38.3918L112.629 38.417L112.593 38.3862C112.601 38.3886 112.606 38.3918 112.606 38.3918Z" fill="#D1D1D1"/>
<path d="M77.9113 213.854L72.5317 227.61L67.6558 226.118L69.3376 211.597L77.9113 213.854Z" fill="#CE7A63"/>
<path d="M73.0575 233.397L68.6365 233.366C68.6365 233.366 67.7462 232.91 67.2208 232.966C66.697 233.023 64.8738 233.339 64.8738 233.339L53.1338 233.255C53.2313 232.789 53.3505 232.375 53.4855 232.008C53.65 231.56 53.8399 231.181 54.05 230.861C54.7864 229.742 55.7818 229.349 56.8617 229.292C58.5064 229.206 63.7057 225.971 63.7057 225.971C63.7057 225.971 65.5874 225.363 65.7043 223.47C65.7486 222.761 66.8613 221.903 67.3882 221.835C68.4629 221.696 69.0549 222.344 69.2031 223.362L69.3737 224.545L71.8565 224.197C71.8565 224.197 74.3887 223.012 74.2569 224.179C74.1815 224.846 73.7338 227.813 73.4492 230.167C73.3825 230.716 73.3203 231.236 73.2655 231.691L73.2643 231.691C73.1425 232.703 73.0575 233.397 73.0575 233.397Z" fill="#263238"/>
<g opacity="0.4">
<path d="M73.0575 233.397L68.6365 233.366C68.6365 233.366 67.7462 232.91 67.2208 232.966C66.697 233.023 64.8738 233.339 64.8738 233.339L53.1338 233.255C53.2313 232.789 53.3505 232.375 53.4855 232.008C53.65 231.56 53.8399 231.181 54.05 230.861C54.7864 229.742 55.7818 229.349 56.8617 229.292C58.5064 229.206 63.7057 225.971 63.7057 225.971C63.7057 225.971 65.5874 225.363 65.7043 223.47C65.7486 222.761 66.8613 221.903 67.3882 221.835C68.4629 221.696 69.0549 222.344 69.2031 223.362L69.3737 224.545L71.8565 224.197C71.8565 224.197 74.3887 223.012 74.2569 224.179C74.1815 224.846 73.7338 227.813 73.4492 230.167C73.3825 230.716 73.3203 231.236 73.2655 231.691L73.2643 231.691C73.1425 232.703 73.0575 233.397 73.0575 233.397Z" fill="black"/>
</g>
<g opacity="0.3">
<path d="M53.1338 233.255L64.8737 233.339C64.8737 233.339 66.6971 233.023 67.2208 232.966C67.7462 232.91 68.6364 233.366 68.6364 233.366L73.0575 233.397C73.0575 233.397 73.1424 232.703 73.2643 231.691L53.4855 232.008C53.3505 232.375 53.2312 232.789 53.1338 233.255Z" fill="white"/>
</g>
<path d="M60.7745 227.411C60.8457 227.346 60.9549 227.34 61.037 227.392C61.4133 227.633 61.7282 227.971 61.9409 228.394C62.053 228.617 61.709 228.829 61.5959 228.604C61.4069 228.228 61.1314 227.929 60.8027 227.718C60.693 227.647 60.6758 227.501 60.7713 227.414L60.7745 227.411Z" fill="white"/>
<path d="M61.9937 226.742C62.0649 226.677 62.1741 226.671 62.2562 226.723C62.6325 226.964 62.9475 227.302 63.1601 227.725C63.2722 227.948 62.9283 228.16 62.8152 227.935C62.6261 227.559 62.3506 227.26 62.0219 227.049C61.9121 226.978 61.8951 226.832 61.9906 226.745L61.9937 226.742Z" fill="white"/>
<path d="M63.2505 226.119C63.3217 226.054 63.431 226.048 63.513 226.1C63.8893 226.341 64.2043 226.679 64.417 227.102C64.529 227.325 64.1851 227.537 64.072 227.312C63.883 226.936 63.6076 226.637 63.2789 226.426C63.169 226.355 63.1519 226.209 63.2475 226.122L63.2505 226.119Z" fill="white"/>
<path d="M112.511 211.403L114.748 226.374L120.098 226.621L121.83 212.188L112.511 211.403Z" fill="#CE7A63"/>
<path d="M124.653 233.325H112.687C112.687 233.325 112.426 232.867 112.725 231.646C112.77 231.456 112.829 231.247 112.907 231.019C112.911 231.008 112.914 230.997 112.918 230.985C113.03 230.648 113.158 230.232 113.295 229.784C113.843 227.957 114.487 225.57 114.487 225.57C114.487 225.57 116.478 221.682 118.807 222.653C120.85 223.504 120.366 225.941 120.366 225.941C120.366 225.941 120.566 227.371 122.115 228.633C123.073 229.413 124.026 230.016 124.484 230.985C124.57 231.167 124.637 231.359 124.686 231.568C124.691 231.593 124.697 231.62 124.701 231.646C124.796 232.113 124.79 232.661 124.653 233.325Z" fill="#263238"/>
<g opacity="0.4">
<path d="M124.653 233.325H112.687C112.687 233.325 112.426 232.867 112.725 231.646C112.77 231.456 112.829 231.247 112.907 231.019C112.911 231.008 112.914 230.997 112.918 230.985C113.03 230.648 113.158 230.232 113.295 229.784C113.843 227.957 114.487 225.57 114.487 225.57C114.487 225.57 116.478 221.682 118.807 222.653C120.85 223.504 120.366 225.941 120.366 225.941C120.366 225.941 120.566 227.371 122.115 228.633C123.073 229.413 124.026 230.016 124.484 230.985C124.57 231.167 124.637 231.359 124.686 231.568C124.691 231.593 124.697 231.62 124.701 231.646C124.796 232.113 124.79 232.661 124.653 233.325Z" fill="black"/>
</g>
<g opacity="0.3">
<path d="M112.725 231.646C112.426 232.867 112.687 233.325 112.687 233.325H124.653C124.79 232.661 124.796 232.114 124.701 231.646H112.725Z" fill="white"/>
</g>
<path d="M119.884 226.553C119.211 226.075 118.328 226.137 117.723 226.675C117.56 226.82 117.31 226.592 117.473 226.447C118.228 225.775 119.307 225.738 120.134 226.325C120.313 226.452 120.061 226.679 119.884 226.553Z" fill="white"/>
<path d="M120.222 227.572C119.549 227.094 118.666 227.156 118.061 227.694C117.898 227.839 117.648 227.612 117.811 227.466C118.566 226.794 119.645 226.757 120.472 227.344C120.651 227.471 120.399 227.698 120.222 227.572Z" fill="white"/>
<path d="M120.561 228.509C119.888 228.031 119.005 228.093 118.399 228.631C118.237 228.776 117.987 228.549 118.15 228.403C118.905 227.731 119.984 227.694 120.81 228.281C120.989 228.408 120.738 228.635 120.561 228.509Z" fill="white"/>
<path d="M84.6413 118.723C84.6413 118.723 75.3562 160.915 73.2642 173.341C71.8967 181.462 63.812 218.027 63.812 218.027L77.3777 220.849C77.3777 220.849 90.758 174.82 91.7231 170.397C92.688 165.973 104.787 134.087 104.787 134.087L102.636 117.112L84.6413 118.723Z" fill="#151414"/>
<path d="M125.366 152.972C126.768 141.692 125.778 117.773 125.778 117.773L100.929 116.641C100.929 116.641 104.46 139.792 107.522 151.693L125.366 152.972Z" fill="#151414"/>
<g opacity="0.2">
<path d="M104.633 122.696C104.359 126.528 104.092 130.366 103.818 134.197C103.805 134.445 103.4 134.445 103.413 134.197C103.557 132.232 103.694 130.261 103.831 128.289C102.833 129.019 101.665 128.135 101.339 127.158C100.804 125.576 101.007 123.698 101.424 122.115C101.489 121.874 101.881 121.98 101.815 122.214C101.522 123.327 101.398 124.464 101.483 125.607C101.522 126.188 101.581 126.856 101.868 127.387C102.187 127.98 102.996 128.481 103.642 127.943C103.713 127.888 103.792 127.881 103.857 127.912C103.981 126.176 104.105 124.433 104.229 122.696C104.242 122.449 104.646 122.449 104.633 122.696Z" fill="black"/>
</g>
<g opacity="0.2">
<path d="M116.525 123.349C116.468 128.428 120.595 132.682 125.932 133.081C126.187 133.1 126.186 132.722 125.932 132.704C120.811 132.32 116.87 128.21 116.924 123.349C116.927 123.106 116.528 123.106 116.525 123.349Z" fill="black"/>
</g>
<path d="M112.271 221.841L123.346 221.859C124.808 205.669 125.746 148.802 125.746 148.802L104.787 138.251C104.787 138.251 107.335 162.965 108.335 171.165C108.335 171.165 110.157 210.437 112.271 221.841Z" fill="#151414"/>
<path opacity="0.3" d="M108.52 174.922L108.701 178.393L125.109 178.687L125.203 174.922H108.52Z" fill="black"/>
<path opacity="0.3" d="M80.6206 174.203C80.6206 174.203 79.3764 178.362 79.6304 178.014C79.8843 177.667 89.6674 178.035 89.6674 178.035L90.6584 174.462L80.6206 174.203Z" fill="black"/>
<path d="M91.0698 64.4873L93.0215 61.2504L105.467 60.8975L113.518 62.5469C113.518 62.5469 123.732 66.3521 123.792 66.2946L121.056 90.3034L119.8 104.742L88.9897 103.118L91.0698 64.4873Z" fill="#263238"/>
<path opacity="0.8" d="M91.0698 64.4873L93.0215 61.2504L105.467 60.8975L113.518 62.5469C113.518 62.5469 123.732 66.3521 123.792 66.2946L121.056 90.3034L119.8 104.742L88.9897 103.118L91.0698 64.4873Z" fill="white"/>
<path d="M80.4194 85.7871C80.4194 85.7871 85.4233 67.4003 87.5472 64.4873C90.0266 61.0869 93.5657 61.2473 93.5657 61.2473L95.2672 83.6822C95.2672 83.6822 82.7747 84.2669 80.4194 85.7871Z" fill="#263238"/>
<path opacity="0.8" d="M80.4194 85.7871C80.4194 85.7871 85.4233 67.4003 87.5472 64.4873C90.0266 61.0869 93.5657 61.2473 93.5657 61.2473L95.2672 83.6822C95.2672 83.6822 82.7747 84.2669 80.4194 85.7871Z" fill="white"/>
<path d="M123.792 66.2944C123.792 66.2944 127.937 68.3258 128.984 71.7393C130.031 75.1527 131.592 87.0882 131.592 87.0882L120.592 87.4082L123.792 66.2944Z" fill="#263238"/>
<path opacity="0.8" d="M123.792 66.2944C123.792 66.2944 127.937 68.3258 128.984 71.7393C130.031 75.1527 131.592 87.0882 131.592 87.0882L120.592 87.4082L123.792 66.2944Z" fill="white"/>
<path d="M88.1682 91.8846C88.1713 92.3597 85.5898 110.554 85.1296 110.554C84.6695 110.554 78.1924 174.14 78.1924 174.14L128.674 175.442L125.778 117.773L124.758 91.0196L122.205 75.3055C122.205 75.3055 95.0621 72.8799 95.5055 72.8799C95.9488 72.8799 88.1682 91.8846 88.1682 91.8846Z" fill="#263238"/>
<path d="M99.2596 61.0738L96.4312 76.2192L100.54 76.8321L102.49 60.917L99.2596 61.0738Z" fill="#151414"/>
<path d="M116.378 63.4443C116.155 63.8311 115.333 78.48 115.333 78.48H119.515V64.786L116.378 63.4443Z" fill="#151414"/>
<path d="M95.3856 117.172C95.3856 117.172 95.6388 115.979 95.6231 115.378C95.6016 114.55 94.9924 113.465 93.786 113.569C92.5795 113.672 91.5471 114.759 91.9319 116.095C92.3166 117.432 93.4522 117.871 93.4522 117.871C93.6747 118.203 93.8653 118.625 94.0175 119.025L95.5956 119.021L95.5312 118.615L95.3856 117.172ZM93.7677 117.157C93.1243 117.154 92.607 116.48 92.6124 115.651C92.6177 114.823 93.1436 114.155 93.787 114.158C94.4304 114.161 94.9476 114.836 94.9423 115.664C94.937 116.492 94.4111 117.161 93.7677 117.157Z" fill="#151414"/>
<path d="M96.0502 118.615L95.9857 119.021L97.5639 119.025C97.7161 118.625 97.9067 118.203 98.1291 117.871C98.1291 117.871 99.2648 117.432 99.6495 116.095C100.034 114.759 99.0018 113.672 97.7953 113.569C96.589 113.465 95.9797 114.55 95.9582 115.378C95.9426 115.979 96.1957 117.172 96.1957 117.172L96.0502 118.615ZM96.6391 115.664C96.6337 114.836 97.1509 114.161 97.7943 114.158C98.4377 114.155 98.9636 114.823 98.969 115.651C98.9743 116.48 98.457 117.154 97.8137 117.157C97.1703 117.161 96.6444 116.492 96.6391 115.664Z" fill="#151414"/>
<path opacity="0.3" d="M89.0396 119.025H120.229V128.285C120.229 135.51 113.797 141.376 105.876 141.376H103.392C95.4707 141.376 89.0396 135.51 89.0396 128.285V119.025Z" fill="black"/>
<path d="M99.6417 74.7022C99.6417 75.2252 99.2323 75.6491 98.7274 75.6491C98.2224 75.6491 97.813 75.2252 97.813 74.7022C97.813 74.1793 98.2224 73.7554 98.7274 73.7554C99.2323 73.7554 99.6417 74.1793 99.6417 74.7022Z" fill="#263238"/>
<path d="M117.492 77.5202C117.997 77.5202 118.406 77.0962 118.406 76.5733C118.406 76.0504 117.997 75.6265 117.492 75.6265C116.987 75.6265 116.577 76.0504 116.577 76.5733C116.577 77.0962 116.987 77.5202 117.492 77.5202Z" fill="#263238"/>
<path d="M113.063 81.1526L102.872 79.5169C102.841 79.5118 102.82 79.4845 102.825 79.4558L103.102 78.0226C103.107 77.9939 103.137 77.9748 103.169 77.9798L113.36 79.6156C113.391 79.6206 113.412 79.648 113.407 79.6766L113.13 81.1098C113.125 81.1385 113.095 81.1577 113.063 81.1526Z" fill="white"/>
<path d="M103.972 118.82V118.307H106.071V118.072H103.972V117.56H106.071V117.325H103.972V116.812H106.071V116.578H103.972V116.065H106.071V115.831H103.972V115.318H106.071V115.083H103.972V114.571H106.071V114.336H103.972V113.824H106.071V113.589H103.972V113.076H106.071V112.842H103.972V112.329H106.071V111.748H103.546C103.149 111.748 102.827 112.041 102.827 112.403V119.025H106.071V118.82H103.972Z" fill="#151414"/>
<path d="M114.049 116.293H109.611V119.025H114.049V116.293Z" fill="#151414"/>
<path d="M89.6284 75.7787C89.7269 75.6214 91.4866 70.8016 91.4866 70.8016L90.2179 70.4537L92.5578 61.9312L94.839 62.4518L91.205 76.1827L89.6284 75.7787Z" fill="#263238"/>
<path d="M84.4857 62.2949C84.3454 62.4096 83.0696 62.9132 83.4051 64.715C83.7407 66.5168 86.1076 72.9643 87.6379 74.867C89.1682 76.7696 90.8678 77.4576 91.2052 76.1826C91.5426 74.9076 91.0243 75.0419 90.4318 73.6713C89.8393 72.3006 88.4337 71.2727 87.2982 67.9942C86.2728 65.0336 86.4178 62.7198 85.5733 62.3295C85.13 62.1246 84.4857 62.2949 84.4857 62.2949Z" fill="#151414"/>
<path opacity="0.4" d="M89.6284 75.7787C89.7269 75.6214 91.4866 70.8016 91.4866 70.8016L90.2179 70.4537L92.5578 61.9312L94.839 62.4518L91.205 76.1827L89.6284 75.7787Z" fill="white"/>
<path d="M121.387 87.4089L97.9935 78.4805L95.7915 83.7753C95.7915 83.7753 108.119 92.1288 114.534 96.4646C118.876 99.3996 125.196 98.102 127.485 93.6362C127.552 93.5039 127.617 93.3695 127.677 93.2328L129.379 87.1559L121.387 87.4089Z" fill="#CE7A63"/>
<path d="M87.0977 73.9428C87.5663 73.3444 91.6895 74.3701 91.6895 74.3701C91.6895 74.3701 96.8005 76.0948 97.9934 78.4804L95.7915 83.7753C95.7915 83.7753 92.2049 83.9431 90.6118 83.0884C89.0187 82.2336 86.8634 81.7635 86.7228 81.2934C86.5823 80.8233 86.7228 79.9686 87.2851 79.8831C87.2851 79.8831 86.2074 79.515 86.3011 78.8657C86.3949 78.2164 87.2382 77.9172 87.2382 77.9172C87.2382 77.9172 86.0553 77.148 86.2953 76.5069C86.5354 75.8659 87.6599 75.9514 87.9879 76.0796C88.3159 76.2078 89.6279 76.2933 89.6279 76.2933C89.6279 76.2933 87.332 75.3531 87.1445 74.8402C86.9571 74.3274 87.0977 73.9428 87.0977 73.9428Z" fill="#CE7A63"/>
<path d="M104.781 62.1583C104.781 62.1583 106.16 58.6807 105.301 52.0248C105.303 52.0181 105.696 51.9254 105.698 51.9186C105.582 50.9885 105.435 50.1229 105.286 49.3693C105.284 49.3476 105.285 49.3408 105.285 49.3408L113.827 56.1545C113.233 58.1509 113.316 62.1956 113.49 63.9247C113.49 63.9247 114.144 67.108 109.744 66.5745C106.529 66.1848 104.781 62.1583 104.781 62.1583Z" fill="#CE7A63"/>
<g opacity="0.2">
<path d="M108.647 57.0918C109.644 58.4162 111.558 59.3063 113.388 59.5374C113.381 59.3855 113.415 59.1623 113.414 59.0121C113.413 58.7757 113.461 58.4196 113.478 58.1729C113.502 57.8704 113.538 57.543 113.595 57.2334C113.627 57.1116 113.679 57.1352 113.711 57.0134L113.776 56.7628L108.44 54.4502C107.951 54.7021 107.844 56.0169 108.647 57.0918Z" fill="black"/>
</g>
<path d="M102.719 43.8539C102.085 38.271 107.909 33.8132 113.928 35.7813C120.038 37.7789 121.258 46.0556 120.171 51.135C118.964 56.7783 111.506 59.6313 106.645 55.4882C103.414 52.7338 103.354 49.4368 102.719 43.8539Z" fill="#CE7A63"/>
<path d="M107.585 40.4409C106.724 38.9765 104.378 38.715 102.594 39.5412C102.044 39.7944 100.771 40.989 100.787 42.4327C100.87 44.7346 102.43 47.7436 103.965 49.8892C103.85 49.5997 103.753 49.2891 103.669 48.9503C103.387 47.8199 103.058 46.2548 102.75 44.3771C103.23 44.442 103.563 44.5994 103.859 44.7857C106.019 46.1443 106.725 47.277 107.826 46.3547C108.727 45.5987 107.789 42.0835 107.585 40.4409Z" fill="#263238"/>
<path d="M100.548 47.6322C101.01 49.1402 102.197 50.306 103.442 50.9106C105.315 51.8201 106.082 49.9439 105.958 48.1101C105.847 46.4596 105.382 44.4405 103.311 44.2882C101.271 44.1383 100.019 45.9082 100.548 47.6322Z" fill="#CE7A63"/>
<path d="M111.201 45.977C111.183 46.5501 111.502 47.0202 111.914 47.0272C112.325 47.0342 112.673 46.5751 112.691 46.002C112.709 45.4288 112.39 44.9586 111.978 44.9517C111.567 44.9448 111.219 45.4038 111.201 45.977Z" fill="#263238"/>
<path d="M117.278 46.2484C117.26 46.8215 117.579 47.2917 117.99 47.2986C118.402 47.3055 118.75 46.8466 118.768 46.2734C118.785 45.7003 118.466 45.2301 118.055 45.2232C117.643 45.2163 117.295 45.6753 117.278 46.2484Z" fill="#263238"/>
<path d="M115.57 45.3765C115.57 45.3765 117.471 48.2753 118.073 49.4513C117.176 50.1493 115.68 49.7783 115.68 49.7783L115.57 45.3765Z" fill="#A24E3F"/>
<path d="M109.996 43.7737C110.09 43.8115 110.203 43.8036 110.293 43.7436C111.33 43.0478 112.286 43.3326 112.386 43.3643C112.538 43.4153 112.709 43.3444 112.766 43.2061C112.823 43.0677 112.746 42.9139 112.594 42.8629C112.54 42.8446 111.26 42.4311 109.943 43.315C109.812 43.4031 109.784 43.5707 109.88 43.689C109.911 43.7275 109.951 43.7557 109.996 43.7737Z" fill="#263238"/>
<path opacity="0.2" d="M104.903 48.0025C104.833 48.0025 104.774 47.9534 104.768 47.8884C104.723 47.4079 104.54 46.9442 104.239 46.5471C104.043 46.2894 103.713 45.9577 103.251 45.8415C102.834 45.7369 102.378 45.8614 102.162 46.1367C102.118 46.1931 102.032 46.2053 101.972 46.1654C101.91 46.1255 101.896 46.0477 101.94 45.9918C102.225 45.6285 102.794 45.469 103.324 45.6012C103.864 45.7376 104.242 46.1138 104.464 46.4054C104.792 46.838 104.991 47.3438 105.04 47.8675C105.046 47.9361 104.99 47.9962 104.915 48.002L104.903 48.0025Z" fill="black"/>
<path d="M120.614 42.7459C120.669 42.7365 120.722 42.7128 120.765 42.6744C120.882 42.5709 120.886 42.4006 120.774 42.294C119.651 41.226 118.323 41.46 118.262 41.4635C118.103 41.4924 117.998 41.6336 118.028 41.7792C118.057 41.9245 118.209 42.019 118.368 41.9919C118.423 41.9801 119.448 41.8119 120.35 42.6691C120.421 42.7362 120.521 42.7619 120.614 42.7459Z" fill="#263238"/>
<path d="M114.9 51.6632C113.929 51.6632 112.982 51.2671 112.529 50.6675C112.465 50.5826 112.488 50.4661 112.581 50.4078C112.674 50.3487 112.802 50.3706 112.866 50.4554C113.248 50.9605 114.103 51.306 114.953 51.2893C115.05 51.2846 115.159 51.3695 115.161 51.4726C115.163 51.5757 115.073 51.6608 114.96 51.6628C114.94 51.663 114.92 51.6632 114.9 51.6632Z" fill="#263238"/>
<path d="M107.594 40.4909C107.594 40.4897 107.086 38.0801 108.742 37.7909C110.398 37.5017 115.336 39.5262 115.894 38.3372C116.453 37.1482 116.656 37.3181 116.656 37.3181C116.656 37.3181 117.584 38.3269 117.676 38.359C117.767 38.3912 118.583 37.33 115.57 35.927C111.557 34.058 106.66 34.4582 104.476 36.0329C102.291 37.6075 100.549 40.0367 100.787 42.4327" fill="#263238"/>
<path d="M82.5037 84.9703C82.5037 84.9703 81.9401 91.6397 84.2714 93.4211C86.6026 95.2026 103.959 98.6285 115.363 96.962C115.363 96.962 107.766 91.0522 102.467 88.1499C100.92 87.3027 91.0604 85.5308 91.0604 85.5308L91.3636 83.9846C91.3636 83.9846 84.7875 83.9468 82.5037 84.9703Z" fill="#CE7A63"/>
<path d="M114.575 87.063C114.575 87.063 115.331 85.5744 116.717 84.2843C118.104 82.9942 120.876 81.2703 121.758 80.9255C122.64 80.5806 123.522 81.2128 122.325 82.0748L121.884 82.4771L125.727 81.7932C125.727 81.7932 126.609 82.5493 125.412 83.0878L126.609 83.5643C126.609 83.5643 126.364 84.3655 125.356 84.6786C124.348 84.9917 123.981 85.1363 123.981 85.1363C123.981 85.1363 124.467 85.5701 123.9 86.2935C123.333 87.0169 122.568 87.5635 122.568 87.5635L114.575 87.063Z" fill="#CE7A63"/>
<path opacity="0.3" d="M101.383 87.5637L115.363 96.9621C114.636 97.0726 113.783 97.1696 112.872 97.2602C112.105 97.173 99.4604 87.2441 99.4604 87.2441L101.383 87.5637Z" fill="black"/>
<path opacity="0.3" d="M115.79 85.2725L122.93 87.5634L116.718 84.2842C116.395 84.576 116.087 84.9069 115.79 85.2725Z" fill="black"/>
<path opacity="0.3" d="M91.0603 85.5308C91.0603 85.5308 88.5925 86.8849 87.8433 88.2593C87.8433 88.2593 87.9557 85.1309 91.228 84.7407L91.0603 85.5308Z" fill="black"/>
<path d="M214.068 49.3813H213.552V52.2985H214.068V49.3813Z" fill="#D1D1D1"/>
<path d="M214.068 39.7217H213.552V47.0835H214.068V39.7217Z" fill="#D1D1D1"/>
<path d="M212.262 26.1743H143.553V120.139H212.262V26.1743Z" fill="#D1D1D1"/>
<path d="M143.553 26.1743H141.618V120.139H143.553V26.1743Z" fill="#D1D1D1"/>
<path opacity="0.2" d="M189.78 119.663H183.711L194.993 26.6426H201.062L189.78 119.663Z" fill="white"/>
<g opacity="0.2">
<path d="M200.389 73.2069C200.376 73.2023 200.361 73.2027 200.348 73.1987C200.393 73.2736 200.446 73.3437 200.482 73.4232L200.479 73.4252C200.688 73.7981 200.856 74.2136 200.985 74.6467C201.099 73.9746 200.881 73.3809 200.389 73.2069Z" fill="#D1D1D1"/>
<path d="M201.303 75.3231C201.798 75.0585 202.144 74.9312 202.144 74.9312L203.362 74.4327C203.62 74.0497 204.118 73.821 204.717 73.7083L203.678 69.7271L201.303 75.3231Z" fill="#D1D1D1"/>
<path d="M206.384 73.5064C206.291 73.5265 206.207 73.565 206.128 73.6129C206.563 73.6184 206.989 73.7021 207.383 73.8553C207.083 73.5745 206.723 73.4332 206.384 73.5064Z" fill="#D1D1D1"/>
<path d="M198.707 74.1509C198.665 74.2259 198.623 74.301 198.588 74.3824C198.321 75.0052 198.353 75.6345 198.617 76.0254C198.711 75.548 198.773 75.0917 198.774 74.6892C198.773 74.525 198.751 74.3618 198.716 74.2008C198.713 74.1839 198.71 74.1681 198.707 74.1509Z" fill="#D1D1D1"/>
<path d="M209.132 75.4341C208.936 75.0241 208.652 74.6756 208.31 74.3944C207.903 73.3541 207.048 72.6889 206.212 72.859C205.867 72.9446 205.576 73.1573 205.409 73.4462L204.148 68.6185L204.262 68.3502C204.278 68.313 204.309 68.2832 204.35 68.2676L206.615 67.3954C206.656 67.3799 206.687 67.3518 206.703 67.3146C206.937 66.7653 208.763 62.3095 208.423 57.646C208.411 57.488 208.173 57.4528 208.11 57.6002L203.858 67.5101L201.178 57.2499C201.126 57.0526 200.814 57.0583 200.771 57.2573C199.977 60.9344 200.567 64.623 200.892 66.1679C200.992 66.6404 201.301 67.0533 201.75 67.3064L203.269 68.1635L203.386 68.611L201.512 72.9806C201.463 73.0934 201.295 73.1136 201.221 73.0132C201.084 72.828 200.89 72.6804 200.661 72.5905C200.411 72.4985 200.136 72.5106 199.86 72.591C199.841 72.574 199.818 72.5611 199.799 72.5446C199.539 72.309 199.248 72.1284 198.914 72.042C198.853 72.026 198.799 72.02 198.751 72.0195C198.734 72.0192 198.72 72.0224 198.705 72.0239C198.677 72.0267 198.65 72.031 198.626 72.0394C198.61 72.0452 198.595 72.0526 198.581 72.0608C198.564 72.0708 198.548 72.0825 198.534 72.096C198.52 72.1085 198.507 72.1212 198.496 72.1367C198.487 72.1496 198.479 72.1648 198.472 72.1795C198.429 72.262 198.409 72.3709 198.408 72.5013L198.408 72.5067C198.408 72.5532 198.41 72.6024 198.414 72.6534L198.415 72.6719C198.419 72.7241 198.425 72.7777 198.432 72.8336L198.433 72.8383C198.464 73.0646 198.518 73.3149 198.576 73.5643C198.42 73.775 198.278 74.0058 198.168 74.2618C197.727 75.2902 197.866 76.3232 198.445 76.8038C198.187 77.8825 197.867 78.9731 197.808 79.7382C197.771 80.0431 197.761 80.3631 197.787 80.7L187.046 93.4368C187.046 93.4368 186.571 92.6927 185.853 91.5774L185.844 91.5639C185.578 91.151 185.279 90.6885 184.958 90.1931L186.534 89.1031C186.534 89.1031 176.847 73.9182 171.085 71.1548C170.626 70.9346 170.243 70.8698 169.921 70.9268L169.134 70.7725L169.139 70.6352C169.139 70.6352 166.352 69.2159 164.526 69.7987C164.51 69.8041 164.495 69.8289 164.48 69.8605L159.724 68.9285L159.479 68.9047C159.326 67.987 159.182 66.9044 159.099 65.8491C159.137 65.8111 159.183 65.7807 159.211 65.7333C159.978 65.9934 160.83 66.0396 161.624 65.8643C162.057 65.7688 162.484 65.6022 162.794 65.3113C163.104 65.0203 163.28 64.5885 163.162 64.197C163.703 64.3631 164.356 64.1346 164.637 63.6812C164.917 63.2277 164.794 62.5995 164.359 62.2626C164.721 62.0545 165.016 61.7152 165.051 61.3262C165.086 60.9371 164.557 60.0007 164.134 59.941C165.16 59.7565 164.91 58.4615 164.556 58.0041L164.554 58.002C164.667 57.5845 164.748 57.1538 164.785 56.7084C164.866 55.7421 164.853 54.6731 164.736 53.5649C164.909 53.5 165.078 53.4286 165.24 53.3413C166.096 52.8795 166.697 52.1191 167.274 51.3804C167.946 50.5188 168.636 49.6194 168.839 48.5782C168.197 48.9141 167.435 49.0539 166.701 48.97C167.133 48.4397 167.397 47.7961 167.452 47.1369C166.45 47.6231 165.172 47.1757 164.366 46.4476C163.559 45.7194 163.068 44.7571 162.406 43.9169C161.18 42.3625 159.329 41.228 157.288 40.7803C155.247 40.3326 152.713 39.9447 150.846 40.8208C149.921 41.2551 147.914 43.1625 147.497 44.032L147.501 44.0372C145.631 45.3556 144.575 47.4672 144.769 49.6691C144.771 49.6927 144.772 49.7161 144.774 49.7398C144.799 49.9786 144.832 50.2181 144.886 50.4579C144.958 50.6393 145.053 50.8259 145.166 51.0166C145.42 51.5277 145.668 52.0348 145.686 52.0734L145.709 52.1246C144.898 52.8331 144.629 54.0105 145.115 55.0915C145.755 56.5164 147.049 57.5354 148.341 58.0147C148.674 59.2139 149.528 60.582 150.571 61.4145C151.189 64.4709 151.207 66.7324 151.108 68.0934L146.331 69.3408C144.906 69.1646 143.59 69.7812 143.018 70.1021V119.769H175.704L175.421 115.991L174.545 107.333L173.949 107.024L172.651 90.7651L175.647 96.6351L176.809 95.8309C179.859 99.7855 183.984 103.947 187.381 103.113C193.268 101.667 202.221 83.9939 203.177 82.075C203.185 82.0729 203.192 82.0718 203.2 82.0697L207.198 80.88C207.919 80.6693 208.581 80.319 209.139 79.8531C210.028 79.114 210.303 77.9412 209.823 76.9354L209.132 75.4341ZM198.617 76.0251C198.353 75.6343 198.321 75.005 198.588 74.3822C198.622 74.3008 198.665 74.2257 198.707 74.1507C198.71 74.1678 198.713 74.1837 198.716 74.2006C198.751 74.3616 198.773 74.5248 198.774 74.689C198.773 75.0914 198.71 75.5478 198.617 76.0251ZM200.986 74.6464C200.857 74.2134 200.688 73.7978 200.479 73.425L200.482 73.4229C200.446 73.3435 200.393 73.2734 200.348 73.1985C200.362 73.2025 200.376 73.202 200.389 73.2066C200.881 73.3807 201.1 73.9744 200.986 74.6464ZM203.362 74.4328L202.144 74.9313C202.144 74.9313 201.798 75.0587 201.303 75.3232L203.678 69.7272L204.717 73.7084C204.118 73.8211 203.62 74.0498 203.362 74.4328ZM206.128 73.6126C206.207 73.5648 206.291 73.5262 206.384 73.5062C206.723 73.433 207.083 73.5743 207.383 73.8551C206.988 73.7019 206.563 73.6182 206.128 73.6126Z" fill="#D1D1D1"/>
</g>
<path d="M142.68 118.022C141.087 117.003 139.108 116.882 137.221 116.911C135.343 116.94 132.929 116.949 131.329 117.985C130.027 118.828 129.756 120.432 131.091 121.365C132.562 122.392 134.77 122.352 136.482 121.981C138.858 121.466 140.899 120.169 142.856 118.895C143.069 118.756 142.864 118.432 142.649 118.572C140.838 119.751 138.965 120.958 136.798 121.52C135.649 121.818 134.422 121.939 133.238 121.748C132.197 121.579 130.765 121.121 130.603 120.01C130.435 118.852 131.649 118.102 132.704 117.797C133.821 117.474 135.012 117.367 136.178 117.315C138.306 117.219 140.654 117.181 142.474 118.344C142.69 118.483 142.895 118.159 142.68 118.022Z" fill="#263238"/>
<path d="M143.255 117.331C143.378 115.42 142.287 113.711 141.17 112.172C140.584 111.365 139.956 110.577 139.233 109.868C138.608 109.256 137.888 108.652 136.992 108.403C136.283 108.205 135.452 108.261 134.844 108.672C134.164 109.131 133.962 109.926 134.028 110.661C134.175 112.299 135.306 113.795 136.603 114.873C138.311 116.295 140.467 117.135 142.576 117.937C142.819 118.03 142.925 117.669 142.685 117.577C139.576 116.394 136.019 114.931 134.749 111.837C134.465 111.143 134.268 110.316 134.574 109.601C134.927 108.779 135.936 108.523 136.813 108.745C137.672 108.962 138.352 109.552 138.943 110.132C139.582 110.759 140.143 111.447 140.667 112.156C141.803 113.694 142.97 115.405 142.846 117.331C142.831 117.571 143.24 117.57 143.255 117.331Z" fill="#263238"/>
<path d="M133.377 84.7271C133.377 84.7271 122.87 96.8611 122.175 98.346C121.189 100.451 123.372 103.272 124.972 104.203C131.852 108.206 140.653 114.318 140.653 114.318L144.542 109.519L132.608 98.9608L141.747 90.8954L133.377 84.7271Z" fill="#EEC1BB"/>
<path opacity="0.3" d="M129.955 88.7169L137.264 94.8526L138.62 93.655L130.543 88.0264L129.955 88.7169Z" fill="black"/>
<path opacity="0.3" d="M132.608 98.9607C132.608 98.9607 128.946 99.1454 128.109 99.6622C128.109 99.6622 129.782 97.6689 133.305 98.3458L132.608 98.9607Z" fill="black"/>
<path d="M217.661 75.4342C216.929 73.8988 214.972 73.1947 213.289 73.8615C213.271 73.8686 213.253 73.8759 213.235 73.8833L210.673 74.9314C210.673 74.9314 205.758 76.7302 206.348 81.0217L207.179 81.5174C208.526 82.3187 210.198 82.5217 211.729 82.0698L215.727 80.8801C216.448 80.6694 217.11 80.3191 217.668 79.8532C218.557 79.1142 218.832 77.9413 218.352 76.9356L217.661 75.4342Z" fill="#EEC1BB"/>
<path d="M187.472 81.4544C188.242 81.9332 195.575 93.437 195.575 93.437L206.675 80.2739L211.792 81.9033C211.792 81.9033 202.136 101.584 195.91 103.113C189.684 104.642 181.003 89.3874 181.003 89.3874L187.472 81.4544Z" fill="#EEC1BB"/>
<path d="M209.617 78.2598C210.23 77.3392 209.741 72.637 207.443 72.0421C206.379 71.7659 207.319 73.8975 207.303 74.6836C207.303 76.8081 205.564 80.441 206.721 80.7455C207.878 81.05 208.561 79.8674 209.617 78.2598Z" fill="#EEC1BB"/>
<path d="M209.19 72.5908C209.419 72.6806 209.613 72.8283 209.75 73.0135C209.824 73.1139 209.992 73.0936 210.04 72.9808L216.639 57.6005C216.702 57.4531 216.94 57.4883 216.952 57.6462C217.292 62.3097 215.466 66.7655 215.232 67.3148C215.216 67.352 215.185 67.3801 215.144 67.3956L212.879 68.2679C212.838 68.2834 212.807 68.3132 212.791 68.3504L209.811 75.3739C209.298 76.5848 208.18 77.3213 207.319 77.0097C206.457 76.6982 206.177 75.473 206.697 74.2621C207.218 73.0511 208.343 72.2792 209.19 72.5908ZM207.567 76.3653C208.18 76.5848 208.988 76.0537 209.36 75.1827C209.733 74.3116 209.539 73.4264 208.918 73.2069C208.297 72.9873 207.489 73.5114 207.117 74.3824C206.744 75.2535 206.946 76.1458 207.567 76.3653Z" fill="#263238"/>
<path opacity="0.3" d="M209.19 72.5908C209.419 72.6806 209.613 72.8283 209.75 73.0135C209.824 73.1139 209.992 73.0936 210.04 72.9808L216.639 57.6005C216.702 57.4531 216.94 57.4883 216.952 57.6462C217.292 62.3097 215.466 66.7655 215.232 67.3148C215.216 67.352 215.185 67.3801 215.144 67.3956L212.879 68.2679C212.838 68.2834 212.807 68.3132 212.791 68.3504L209.811 75.3739C209.298 76.5848 208.18 77.3213 207.319 77.0097C206.457 76.6982 206.177 75.473 206.697 74.2621C207.218 73.0511 208.343 72.2792 209.19 72.5908ZM207.567 76.3653C208.18 76.5848 208.988 76.0537 209.36 75.1827C209.733 74.3116 209.539 73.4264 208.918 73.2069C208.297 72.9873 207.489 73.5114 207.117 74.3824C206.744 75.2535 206.946 76.1458 207.567 76.3653Z" fill="white"/>
<path d="M214.741 72.859C214.396 72.9446 214.105 73.1573 213.938 73.4462L209.707 57.25C209.655 57.0527 209.343 57.0583 209.3 57.2573C208.506 60.9345 209.096 64.6231 209.422 66.168C209.521 66.6405 209.83 67.0534 210.279 67.3064L211.798 68.1635L213.713 75.4961C214.039 76.7589 215.034 77.6284 215.933 77.4313C216.832 77.2342 217.296 76.0512 216.97 74.7884C216.645 73.5257 215.679 72.6682 214.741 72.859ZM215.774 76.8005C215.13 76.9461 214.403 76.3152 214.173 75.4065C213.943 74.4977 214.27 73.6448 214.913 73.5062C215.556 73.3676 216.278 73.9833 216.514 74.9003C216.75 75.8173 216.456 76.6682 215.799 76.8334L215.774 76.8005Z" fill="#263238"/>
<path opacity="0.3" d="M214.741 72.859C214.396 72.9446 214.105 73.1573 213.938 73.4462L209.707 57.25C209.655 57.0527 209.343 57.0583 209.3 57.2573C208.506 60.9345 209.096 64.6231 209.422 66.168C209.521 66.6405 209.83 67.0534 210.279 67.3064L211.798 68.1635L213.713 75.4961C214.039 76.7589 215.034 77.6284 215.933 77.4313C216.832 77.2342 217.296 76.0512 216.97 74.7884C216.645 73.5257 215.679 72.6682 214.741 72.859ZM215.774 76.8005C215.13 76.9461 214.403 76.3152 214.173 75.4065C213.943 74.4977 214.27 73.6448 214.913 73.5062C215.556 73.3676 216.278 73.9833 216.514 74.9003C216.75 75.8173 216.456 76.6682 215.799 76.8334L215.774 76.8005Z" fill="white"/>
<path d="M215.525 73.7415C214.097 73.4795 212.42 73.6069 211.876 74.4497C211.333 75.2924 212.365 75.6182 212.963 75.4269C213.561 75.2358 215.735 76.2697 216.069 75.7952C216.403 75.3207 215.525 73.7415 215.525 73.7415Z" fill="#EEC1BB"/>
<path d="M207.443 72.042C206.573 71.8154 207.047 73.2176 207.241 74.1665C207.281 74.3388 207.302 74.5144 207.303 74.6905L209.011 73.4229C208.72 72.7851 208.152 72.2854 207.443 72.042Z" fill="#EEC1BB"/>
<path opacity="0.3" d="M195.575 93.4368L194.798 97.4861L194.373 91.564L195.575 93.4368Z" fill="black"/>
<path d="M156.56 212.422L154.323 227.393L148.973 227.64L147.241 213.208L156.56 212.422Z" fill="#EEC1BB"/>
<path d="M144.285 234.174H156.25C156.25 234.174 156.511 233.715 156.213 232.495C156.167 232.305 156.108 232.096 156.03 231.868C156.026 231.857 156.024 231.845 156.019 231.834C155.908 231.496 155.779 231.081 155.643 230.633C155.094 228.806 154.45 226.418 154.45 226.418C154.45 226.418 152.459 222.531 150.13 223.502C148.087 224.353 148.571 226.79 148.571 226.79C148.571 226.79 148.371 228.22 146.822 229.482C145.864 230.261 144.911 230.864 144.453 231.834C144.367 232.015 144.3 232.208 144.252 232.417C144.246 232.442 144.24 232.469 144.236 232.495C144.141 232.962 144.147 233.51 144.285 234.174Z" fill="#263238"/>
<path opacity="0.6" d="M156.213 232.495C156.511 233.715 156.25 234.174 156.25 234.174H144.285C144.147 233.51 144.141 232.962 144.236 232.495H156.213Z" fill="white"/>
<path d="M149.053 227.207C149.726 226.729 150.609 226.79 151.214 227.329C151.377 227.474 151.627 227.246 151.464 227.101C150.708 226.429 149.63 226.392 148.803 226.979C148.624 227.106 148.876 227.333 149.053 227.207Z" fill="white"/>
<path d="M148.716 228.226C149.389 227.748 150.272 227.81 150.877 228.348C151.04 228.493 151.29 228.265 151.127 228.12C150.371 227.448 149.292 227.411 148.466 227.998C148.287 228.125 148.538 228.352 148.716 228.226Z" fill="white"/>
<path d="M148.376 229.163C149.049 228.685 149.932 228.746 150.537 229.285C150.7 229.43 150.95 229.202 150.787 229.057C150.032 228.385 148.953 228.348 148.126 228.935C147.947 229.062 148.199 229.289 148.376 229.163Z" fill="white"/>
<path d="M172.394 212.676L175.714 227.479L181.07 227.402L181.749 212.896L172.394 212.676Z" fill="#EEC1BB"/>
<path d="M185.731 234.174L173.766 234.164C173.766 234.164 173.506 233.706 173.805 232.486C173.851 232.296 173.91 232.087 173.988 231.859C173.992 231.848 173.995 231.836 173.999 231.825C174.111 231.487 174.24 231.072 174.377 230.624C174.927 228.797 175.574 226.41 175.574 226.41C175.574 226.41 177.568 222.525 179.896 223.498C181.939 224.35 181.452 226.787 181.452 226.787C181.452 226.787 181.651 228.217 183.199 229.48C184.156 230.26 185.108 230.864 185.565 231.834C185.651 232.016 185.718 232.208 185.766 232.417C185.772 232.443 185.777 232.469 185.781 232.495C185.876 232.963 185.87 233.51 185.731 234.174Z" fill="#263238"/>
<path opacity="0.6" d="M173.805 232.486C173.506 233.706 173.766 234.164 173.766 234.164L185.731 234.174C185.87 233.511 185.876 232.963 185.781 232.496L173.805 232.486Z" fill="white"/>
<path d="M180.969 227.398C180.297 226.919 179.414 226.981 178.808 227.518C178.645 227.663 178.395 227.435 178.558 227.291C179.315 226.619 180.393 226.582 181.219 227.17C181.398 227.298 181.147 227.524 180.969 227.398Z" fill="white"/>
<path d="M181.306 228.418C180.634 227.939 179.751 228 179.145 228.538C178.982 228.683 178.732 228.455 178.895 228.31C179.652 227.639 180.73 227.602 181.556 228.19C181.735 228.317 181.483 228.544 181.306 228.418Z" fill="white"/>
<path d="M181.645 229.355C180.972 228.876 180.089 228.937 179.483 229.476C179.32 229.62 179.071 229.392 179.234 229.248C179.99 228.576 181.069 228.539 181.895 229.127C182.074 229.255 181.822 229.481 181.645 229.355Z" fill="white"/>
<path d="M183.983 149.168C183.917 137.026 180.845 117.183 180.845 117.183L168.134 117.714L168.142 117.66H142.948C142.948 117.66 142.509 137.75 143.326 149.87C143.356 151.705 144.287 206.958 145.725 222.879L156.8 222.861C158.914 211.456 160.736 172.185 160.736 172.185C161.4 166.742 162.745 154.033 163.575 146.096C164.848 153.912 166.71 166.436 166.99 172.84C166.99 172.84 169.975 211.855 172.913 223.106L183.965 222.454C184.243 206.482 184.086 151.001 183.983 149.168Z" fill="#151414"/>
<path opacity="0.3" d="M183.983 149.168C183.917 137.026 180.845 117.183 180.845 117.183L168.134 117.714L168.142 117.66H142.948C142.948 117.66 142.509 137.75 143.326 149.87C143.356 151.705 144.287 206.958 145.725 222.879L156.8 222.861C158.914 211.456 160.736 172.185 160.736 172.185C161.4 166.742 162.745 154.033 163.575 146.096C164.848 153.912 166.71 166.436 166.99 172.84C166.99 172.84 169.975 211.855 172.913 223.106L183.965 222.454C184.243 206.482 184.086 151.001 183.983 149.168Z" fill="black"/>
<path opacity="0.3" d="M160.39 179.037L143.94 178.998V176.04H160.546L160.39 179.037Z" fill="black"/>
<path d="M174.576 173.789C176.277 174.269 178.057 174.17 179.681 173.507C179.915 173.412 179.785 173.054 179.549 173.15C177.984 173.789 176.295 173.882 174.656 173.419C174.409 173.35 174.332 173.72 174.576 173.789Z" fill="black"/>
<path opacity="0.3" d="M167.299 176.677L167.471 178.738L184.114 178.349L184.111 176.442L167.299 176.677Z" fill="black"/>
<path d="M147.794 71.1858L159.637 68.0933L168.253 68.9284L179.615 71.1547L182.712 109.949L143.315 114.318L147.794 71.1858Z" fill="#151414"/>
<path d="M184.176 96.6352L195.063 89.1032C195.063 89.1032 185.376 73.9183 179.614 71.1549C175.147 69.012 177.519 80.8948 180.358 89.1537L184.176 96.6352Z" fill="#151414"/>
<path d="M141.845 95.9023L129.672 87.4189C129.672 87.4189 143.529 70.1904 148.68 71.1973C152.287 71.9023 150.728 80.809 147.331 88.1733C145.877 91.3266 143.048 93.8692 141.845 95.9023Z" fill="#151414"/>
<path opacity="0.3" d="M145.755 90.8157C145.985 90.4883 146.507 84.0068 146.507 84.0068C146.507 84.0068 144.011 93.0479 144.081 92.9634C144.15 92.8789 145.755 90.8157 145.755 90.8157Z" fill="black"/>
<path d="M168.364 124.508C168.676 129.58 173.103 133.575 178.457 133.65C178.714 133.654 178.685 133.277 178.429 133.273C173.292 133.201 169.061 129.338 168.762 124.484C168.747 124.241 168.349 124.265 168.364 124.508Z" fill="black"/>
<path d="M178.991 85.6611L181.307 106.416L183.074 107.333L183.95 115.991L188.481 176.381L140.142 177.058C139.398 165.828 144.107 120.903 144.107 120.903L141.91 120.535L142.124 114.278C142.124 114.278 148.485 107.921 148.38 106.671C148.274 105.422 151.51 85.6509 151.51 85.6509L178.991 85.6611Z" fill="#263238"/>
<path d="M177.119 89.4104L177.76 70.6728C177.76 70.6728 174.866 69.1988 172.97 69.8041C172.332 70.0079 173.342 89.4104 173.342 89.4104H177.119Z" fill="#263238"/>
<path opacity="0.7" d="M177.119 89.4104L177.76 70.6728C177.76 70.6728 174.866 69.1988 172.97 69.8041C172.332 70.0079 173.342 89.4104 173.342 89.4104H177.119Z" fill="white"/>
<path d="M175.56 88.4685C176 88.4685 176.358 88.1425 176.358 87.7403C176.358 87.3382 176 87.0122 175.56 87.0122C175.119 87.0122 174.761 87.3382 174.761 87.7403C174.761 88.1425 175.119 88.4685 175.56 88.4685Z" fill="#263238"/>
<path d="M154.97 69.1599C154.97 69.1599 157.216 82.1309 157.628 89.1034H153.795L151.161 70.1089C151.161 70.1089 152.946 68.9095 154.97 69.1599Z" fill="#263238"/>
<path opacity="0.7" d="M154.97 69.1599C154.97 69.1599 157.216 82.1309 157.628 89.1034H153.795L151.161 70.1089C151.161 70.1089 152.946 68.9095 154.97 69.1599Z" fill="white"/>
<path d="M154.395 87.2115C154.395 87.6176 154.755 87.9468 155.201 87.9468C155.646 87.9468 156.007 87.6176 156.007 87.2115C156.007 86.8053 155.646 86.4761 155.201 86.4761C154.755 86.4761 154.395 86.8053 154.395 87.2115Z" fill="#263238"/>
<path d="M172.671 118.615L172.607 119.021L174.185 119.025C174.337 118.625 174.528 118.203 174.75 117.871C174.75 117.871 175.886 117.432 176.271 116.095C176.655 114.759 175.623 113.672 174.416 113.569C173.21 113.465 172.601 114.55 172.579 115.378C172.564 115.979 172.817 117.172 172.817 117.172L172.671 118.615ZM173.26 115.664C173.255 114.836 173.772 114.161 174.415 114.158C175.059 114.155 175.585 114.823 175.59 115.651C175.595 116.48 175.078 117.154 174.435 117.157C173.791 117.161 173.265 116.492 173.26 115.664Z" fill="#151414"/>
<path d="M172.007 117.172C172.007 117.172 172.26 115.979 172.244 115.378C172.223 114.55 171.613 113.465 170.407 113.569C169.201 113.672 168.168 114.759 168.553 116.095C168.938 117.432 170.073 117.871 170.073 117.871C170.296 118.203 170.486 118.625 170.639 119.025L172.217 119.021L172.152 118.615L172.007 117.172ZM170.389 117.157C169.745 117.154 169.228 116.48 169.233 115.651C169.239 114.823 169.765 114.155 170.408 114.158C171.052 114.161 171.569 114.836 171.563 115.664C171.558 116.492 171.032 117.161 170.389 117.157Z" fill="#151414"/>
<path opacity="0.3" d="M164.811 141.376H162.327C154.405 141.376 147.974 135.51 147.974 128.285V119.025H179.163V128.285C179.163 135.51 172.732 141.376 164.811 141.376Z" fill="black"/>
<path d="M166.174 111.479H165.22V119.024H166.174V111.479Z" fill="#151414"/>
<path d="M161.04 118.82V118.307H163.139V118.072H161.04V117.56H163.139V117.325H161.04V116.812H163.139V116.578H161.04V116.065H163.139V115.831H161.04V115.318H163.139V115.083H161.04V114.571H163.139V114.336H161.04V113.824H163.139V113.589H161.04V113.076H163.139V112.842H161.04V112.329H163.139V111.748H160.613C160.216 111.748 159.895 112.041 159.895 112.403V119.025H163.139V118.82H161.04Z" fill="#151414"/>
<path d="M170.3 92.9644H159.952C159.92 92.9644 159.895 92.988 159.895 93.0171V94.4723C159.895 94.5014 159.92 94.525 159.952 94.525H170.3C170.332 94.525 170.358 94.5014 170.358 94.4723V93.0171C170.358 92.988 170.332 92.9644 170.3 92.9644Z" fill="white"/>
<path d="M143.754 109.065C143.754 109.065 147.423 108.088 148.469 108.218C149.516 108.348 154.466 113.122 154.394 113.209C154.322 113.295 154.322 114.004 152.99 113.715L153.513 114.988C153.513 114.988 153.465 115.856 152.181 115.639C150.896 115.422 150.23 114.511 150.23 114.511L151.848 116.329C151.848 116.329 152.382 117.405 151.049 117.319C149.717 117.232 148.302 115.532 148.302 115.532L150.032 117.808C150.171 117.991 150.139 118.24 149.957 118.389C149.821 118.5 149.63 118.532 149.459 118.472C149.131 118.357 148.493 118.063 147.339 117.319C145.388 116.06 144.996 114.709 144.996 114.709C144.996 114.709 143.066 116.099 140.653 114.318C138.521 112.743 143.754 109.065 143.754 109.065Z" fill="#EEC1BB"/>
<path opacity="0.3" d="M143.967 109.01L142.363 112.477L143.058 108.206L143.967 109.01Z" fill="black"/>
<path d="M175.23 48.97C175.662 48.4397 175.926 47.796 175.981 47.1368C174.979 47.623 173.701 47.1757 172.895 46.4476C172.088 45.7195 171.597 44.757 170.935 43.9169C169.709 42.3625 167.858 41.2281 165.817 40.7803C163.776 40.3326 161.242 39.9448 159.375 40.8207C158.45 41.2552 156.443 43.1624 156.025 44.032L161.885 51.2153C161.777 51.2132 161.822 51.3726 161.9 51.4392C162.389 51.8536 162.879 52.2681 163.368 52.6826C163.735 52.9942 164.109 53.3096 164.555 53.5196C165.034 53.7456 165.575 53.8387 166.109 53.9092C167.851 54.1392 169.626 54.1586 171.373 53.9668C172.204 53.8756 173.049 53.7301 173.769 53.3413C174.625 52.8795 175.226 52.1191 175.803 51.3803C176.475 50.5188 177.165 49.6194 177.368 48.5782C176.726 48.9141 175.964 49.0539 175.23 48.97Z" fill="#263238"/>
<path d="M159.431 69.6095C159.431 69.6095 160.358 66.0093 158.658 59.4893C158.659 59.4825 159.038 59.3489 159.039 59.3419C158.805 58.4303 158.55 57.586 158.305 56.8533C158.3 56.8321 158.301 56.8252 158.301 56.8252L167.652 62.6887C167.316 64.7345 167.913 68.7431 168.305 70.4422C168.305 70.4422 169.36 73.5347 164.922 73.4705C161.679 73.4237 159.431 69.6095 159.431 69.6095Z" fill="#EEC1BB"/>
<path d="M162.626 63.845C163.785 65.0549 165.8 65.7363 167.647 65.7722C167.62 65.6221 167.625 65.3969 167.606 65.2477C167.574 65.013 167.577 64.6542 167.562 64.4074C167.547 64.1045 167.542 63.7753 167.559 63.4619C167.575 63.3375 167.63 63.3555 167.646 63.2311L167.679 62.9753L162.084 61.2432C161.63 61.5452 161.692 62.8623 162.626 63.845Z" fill="black"/>
<path d="M155.055 51.3235C153.714 45.8455 158.932 40.8013 165.161 42.1191C171.483 43.4565 173.748 51.5481 173.315 56.7083C172.833 62.4413 165.79 66.0643 160.434 62.4637C156.874 60.07 156.395 56.8016 155.055 51.3235Z" fill="#EEC1BB"/>
<path d="M153.415 50.458C153.496 50.6601 153.6 50.8678 153.732 51.0815C154.382 52.1409 155.262 55.2179 157.059 57.1866C156.909 56.9112 156.773 56.6129 156.646 56.2853C156.222 55.1925 155.696 53.6727 155.152 51.8403C155.637 51.8539 155.987 51.9751 156.305 52.1288C158.624 53.2495 159.469 54.2999 160.445 53.2673C161.244 52.4209 159.613 49.0792 159.454 47.3378C159.217 45.4578 160.245 41.8272 158.578 42.8366C158.498 42.8847 158.298 42.9576 158.015 43.048C154.665 44.1182 152.7 47.287 153.415 50.458Z" fill="#263238"/>
<path opacity="0.3" d="M155.412 52.6958C155.326 52.418 155.239 52.1348 155.152 51.8404C155.637 51.854 155.987 51.9752 156.305 52.1289C158.623 53.2496 159.469 54.3 160.445 53.2674C161.164 52.5056 159.918 49.7259 159.545 47.9074L159.54 47.897C159.587 48.1082 154.232 48.8131 153.279 48.9805C153.265 49.468 153.304 49.9625 153.415 50.4581C153.732 51.0816 154.22 52.0835 154.22 52.0835C154.22 52.0835 154.766 52.3598 155.412 52.6958Z" fill="white"/>
<path d="M163.749 52.5349C163.804 53.106 164.181 53.5392 164.591 53.5025C165 53.4659 165.287 52.9731 165.232 52.402C165.177 51.8308 164.8 51.3976 164.391 51.4343C163.981 51.471 163.694 51.9637 163.749 52.5349Z" fill="#263238"/>
<path d="M169.819 52.1612C169.874 52.7325 170.251 53.1657 170.66 53.129C171.07 53.0923 171.357 52.5996 171.302 52.0284C171.247 51.4572 170.87 51.0241 170.46 51.0608C170.051 51.0975 169.763 51.5901 169.819 52.1612Z" fill="#263238"/>
<path d="M168.012 51.4761C168.012 51.4761 170.269 54.1541 171.017 55.2585C170.214 56.0468 168.681 55.8367 168.681 55.8367L168.012 51.4761Z" fill="#CE7A63"/>
<path d="M162.141 49.4464C162.239 49.4739 162.35 49.4541 162.431 49.385C163.373 48.5842 164.359 48.7658 164.462 48.7868C164.62 48.8213 164.78 48.7328 164.82 48.5894C164.859 48.4458 164.762 48.3013 164.605 48.2666C164.549 48.2542 163.225 47.979 162.03 48.9963C161.91 49.0978 161.904 49.2671 162.014 49.3745C162.05 49.4094 162.094 49.4332 162.141 49.4464Z" fill="#263238"/>
<path d="M172.56 49.0028C172.614 48.9878 172.663 48.9586 172.701 48.9158C172.804 48.8007 172.787 48.631 172.662 48.537C171.41 47.5951 170.121 47.9681 170.061 47.9781C169.907 48.0237 169.82 48.175 169.868 48.3165C169.916 48.4576 170.079 48.5354 170.233 48.4917C170.286 48.4742 171.284 48.1985 172.288 48.9545C172.367 49.0137 172.47 49.0287 172.56 49.0028Z" fill="#263238"/>
<path d="M158.534 57.7466C158.926 57.363 159.126 56.8443 159.215 56.3259C159.413 55.1703 159.085 53.9473 158.326 53.0049L160.445 53.2671C160.445 53.2671 160.743 55.6402 162.461 55.8618C164.18 56.0835 164.711 55.5242 166.121 55.7901C167.531 56.0561 167.679 56.7768 167.679 56.7768C167.679 56.7768 168.809 56.3155 169.812 56.5018C170.814 56.6882 172.731 57.5465 173.085 58.004C173.439 58.4615 173.689 59.7565 172.663 59.9409C173.086 60.0006 173.615 60.9371 173.58 61.3261C173.545 61.7151 173.25 62.0544 172.888 62.2626C173.323 62.5994 173.446 63.2277 173.166 63.6811C172.885 64.1345 172.232 64.363 171.691 64.197C171.809 64.5884 171.633 65.0202 171.323 65.3112C171.013 65.6022 170.586 65.7688 170.153 65.8642C169.358 66.0396 168.507 65.9933 167.74 65.7332C167.526 66.0917 167.004 66.1617 166.558 66.1888C165.743 66.2382 164.905 66.2807 164.129 66.0494C163.354 65.818 162.644 65.2475 162.536 64.5095C161.833 64.4099 161.109 64.2804 160.523 63.9114C159.937 63.5424 159.522 62.8723 159.699 62.2431C159.732 62.1261 159.784 61.9987 159.726 61.8899C159.689 61.8198 159.614 61.7743 159.543 61.7307C158.231 60.9238 157.114 59.1833 156.801 57.7685C157.357 57.9038 158.141 58.1302 158.534 57.7466Z" fill="#263238"/>
<path d="M165.343 56.6235C165.343 56.6235 166.318 57.5636 168.361 58.0555C168.361 58.0555 167.622 59.2433 166.343 58.8239C164.796 58.3166 165.343 56.6235 165.343 56.6235Z" fill="white"/>
<path d="M171.851 46.1056C171.416 45.4722 170.854 44.9204 170.354 44.3276C169.917 43.8089 169.517 43.2479 168.941 42.8582C168.429 42.5118 167.811 42.3242 167.203 42.1501C166.001 41.8058 164.778 41.4914 163.522 41.3958C162.266 41.3002 160.965 41.4343 159.839 41.9495C159.399 42.1505 158.948 42.4711 158.917 42.9186L159.398 45.906C160.02 44.5637 161.058 44.6669 161.806 45.2851C162.266 45.6652 162.703 46.0728 163.22 46.3856C164.15 46.9482 165.285 47.2235 166.399 47.1568C165.835 46.2992 165.27 45.4417 164.706 44.5842C165.93 45.3587 167.162 46.1374 168.516 46.7022C169.83 47.2499 171.245 47.5906 172.512 48.2235C172.594 47.4796 172.287 46.739 171.851 46.1056Z" fill="#263238"/>
<path d="M153.644 55.0912C154.295 56.54 155.622 57.5724 156.935 58.0411C158.911 58.7462 159.434 56.8016 159.078 54.9932C158.758 53.3656 158.039 51.4094 155.963 51.4773C153.918 51.5443 152.899 53.4349 153.644 55.0912Z" fill="#EEC1BB"/>
<path opacity="0.2" d="M158.002 54.999C157.939 54.999 157.882 54.9584 157.868 54.8996C157.762 54.4264 157.522 53.985 157.172 53.6232C156.945 53.3881 156.575 53.0936 156.101 53.0267C155.677 52.9657 155.237 53.1386 155.057 53.4352C155.021 53.4953 154.937 53.5165 154.872 53.4839C154.805 53.4506 154.782 53.3749 154.818 53.3146C155.055 52.9236 155.601 52.7028 156.143 52.7806C156.697 52.8589 157.12 53.1926 157.377 53.4586C157.758 53.853 158.02 54.334 158.136 54.8495C158.151 54.9168 158.103 54.9827 158.029 54.9966C158.02 54.9983 158.011 54.999 158.002 54.999Z" fill="black"/>
<path d="M203.571 31.3109C198.478 27.7166 191.155 28.5683 187.214 33.2134C184.172 36.7994 184.046 41.5927 186.485 45.2482L185.466 48.3041L189.153 48.0173C189.204 48.0543 189.248 48.0957 189.3 48.1321C194.393 51.7266 201.716 50.8747 205.657 46.2296C209.597 41.5846 208.664 34.9053 203.571 31.3109Z" fill="#151414"/>
<path d="M209.572 39.7329L209.565 39.7326C209.489 39.729 209.431 39.6706 209.435 39.6018C209.63 36.2036 207.796 32.7293 204.761 30.7509C204.7 30.7108 204.686 30.633 204.73 30.577C204.773 30.5206 204.859 30.5085 204.92 30.5481C208.029 32.5749 209.908 36.1338 209.708 39.6149C209.704 39.6813 209.644 39.7329 209.572 39.7329Z" fill="#151414"/>
<path d="M209.103 42.8575C209.085 42.8575 209.068 42.8546 209.051 42.8481C208.981 42.822 208.948 42.7491 208.977 42.6856C209.189 42.2153 209.295 41.6986 209.283 41.1916C209.281 41.123 209.341 41.0659 209.416 41.0645H209.419C209.493 41.0645 209.554 41.1184 209.556 41.1863C209.569 41.7273 209.456 42.2786 209.229 42.7805C209.208 42.8286 209.157 42.8575 209.103 42.8575Z" fill="#151414"/>
<path d="M195.401 44.1834C195.133 43.9489 195 43.6633 195 43.3265C195 42.9899 195.131 42.7087 195.393 42.4828C195.656 42.2569 195.991 42.144 196.398 42.144C196.806 42.144 197.141 42.2569 197.404 42.4828C197.666 42.7087 197.797 42.9899 197.797 43.3265C197.797 43.6633 197.663 43.9489 197.396 44.1834C197.129 44.4183 196.797 44.5355 196.398 44.5355C196 44.5355 195.667 44.4183 195.401 44.1834ZM195.044 35.1289H197.753L197.302 41.2007H195.495L195.044 35.1289Z" fill="white"/>
</svg>
