<svg width="338" height="249" viewBox="0 0 338 249" fill="none" xmlns="http://www.w3.org/2000/svg">
<g clip-path="url(#clip0_242_839)">
<path opacity="0.1" d="M338 172.13C338.024 162.076 335.996 152.163 332.088 143.226C328.18 134.29 322.507 126.593 315.546 120.784C315.738 118.612 315.837 116.43 315.841 114.246C315.841 79.7156 292.429 51.7227 263.546 51.7227C254.652 51.7114 245.907 54.4162 238.163 59.5734C217.721 43.7187 191.032 34.123 161.835 34.123C114.329 34.123 73.4649 59.5316 55.3358 95.9638C54.3283 95.8941 53.3149 95.8558 52.2926 95.8558C23.4149 95.8558 -0.0028249 123.849 -0.0028249 158.379C-0.0233333 170.579 2.96702 182.522 8.60377 192.753C8.60377 223.821 33.4781 249.004 64.1492 249.004H286.662C310.753 249.004 330.283 229.23 330.283 204.836C335.35 194.974 338.02 183.66 338 172.13Z" fill="#151414"/>
<path d="M244.808 57.1666C242.58 58.2742 240.346 59.3853 238.272 60.8481C237.33 61.5099 236.426 62.2413 235.457 62.8439C234.414 63.4987 233.306 63.9933 232.207 64.5227C229.174 65.9831 226.228 67.6844 223.39 69.6148C223.635 65.8706 223.172 61.8025 221.272 58.8837C220.993 58.4511 220.682 58.0479 220.344 57.6786C219 56.2087 217.094 55.8291 215.773 54.5439C216.577 52.879 218.362 51.3674 219.576 50.0961C220.888 48.7284 222.249 47.4316 223.659 46.2056C226.478 43.7516 229.479 41.6031 232.626 39.7864C234.623 38.6335 236.709 37.6025 238.913 37.2508C239.191 37.177 239.481 37.2075 239.744 37.3378C240.086 37.5607 240.21 38.0623 240.293 38.5116C240.704 40.7581 240.914 43.0639 241.256 45.3278C241.424 46.4913 241.652 47.6417 241.939 48.7725C242.307 50.1099 242.732 51.4247 243.212 52.7118C243.746 54.1956 244.278 55.6805 244.808 57.1666Z" fill="#FBBEBE"/>
<path d="M181.577 120.655C181.577 125.278 180.337 129.784 178.036 133.527C175.734 137.271 172.488 140.062 168.761 141.502C165.034 142.942 161.017 142.958 157.282 141.546C153.547 140.135 150.286 137.369 147.964 133.643C145.614 129.879 144.348 125.328 144.35 120.655C144.35 114.835 146.311 109.254 149.802 105.139C153.293 101.024 158.027 98.7119 162.964 98.7119C167.9 98.7119 172.635 101.024 176.126 105.139C179.616 109.254 181.577 114.835 181.577 120.655Z" fill="#BE6F72"/>
<path d="M156.295 139.993C157.291 142.016 158.296 144.057 158.934 146.262C159.572 148.467 159.82 150.908 159.294 153.162C165.635 149.226 173.181 149.543 180.159 147.551C180.346 147.525 180.518 147.418 180.641 147.251C180.683 147.137 180.705 147.014 180.705 146.889C180.705 146.764 180.683 146.641 180.641 146.527C179.18 140.153 178.618 133.54 178.977 126.952L175.335 129.491C173.74 130.652 172.087 131.699 170.386 132.626C167.978 133.869 165.422 134.622 162.908 135.492C160.916 136.189 156.963 137.091 155.71 139.143C155.936 139.394 156.133 139.68 156.295 139.993Z" fill="#BE6F72"/>
<path d="M146.04 110.484C144.829 111.059 143.405 111.721 142.291 110.916C141.473 110.32 141.136 109.084 141.186 107.952C141.236 106.82 141.603 105.747 141.892 104.668C142.483 102.449 142.802 100.14 143.461 97.9314C144.12 95.7232 145.195 93.5951 146.903 92.4283C150.047 90.2827 154.115 92.0556 157.604 90.8679C159.082 90.3698 160.367 89.3667 161.741 88.5796C163.115 87.7924 164.66 87.1864 166.143 87.6078C167.88 88.085 169.163 89.8091 170.782 90.6868C172.554 91.6481 174.676 91.5819 176.289 92.8671C177.432 93.7797 178.153 95.253 178.794 96.6984C180.846 101.344 182.465 106.237 183.625 111.292C184.089 113.102 184.354 114.975 184.414 116.865C184.429 119.282 183.873 121.651 183.324 123.984L182.437 127.676C182.109 129.069 181.773 130.463 181.152 131.724C180.532 132.984 179.574 134.047 178.39 134.412C176.912 134.862 175.193 133.991 174.549 132.361C174.153 131.351 174.171 130.194 174.15 129.083C174.117 126.908 173.919 124.739 173.559 122.605C173.376 121.536 173.131 120.425 172.513 119.617C171.715 118.572 170.445 118.223 169.263 118.199C167.88 118.178 166.365 118.62 165.558 119.941C164.911 121.006 164.799 122.504 163.939 123.336C163.557 123.682 163.103 123.9 162.624 123.967C161.649 124.11 160.661 123.864 159.818 123.267C158.976 122.67 158.327 121.758 157.977 120.675C157.705 119.756 157.572 118.614 156.833 118.182C156.449 117.955 155.991 117.997 155.581 117.851C154.322 117.401 153.991 115.521 153.876 113.978C153.743 112.17 154.254 108.6 152.348 108.478C150.295 108.346 147.928 109.742 146.04 110.484Z" fill="#3F3D56"/>
<path d="M150.505 134.27C149.849 134.643 149.131 135.078 148.874 135.879C148.773 136.193 148.755 136.537 148.664 136.858C148.247 138.275 146.622 138.554 145.783 139.683C145.405 140.253 145.15 140.924 145.042 141.637C144.481 144.448 144.662 147.393 145.562 150.079C145.822 150.931 146.224 151.712 146.743 152.378C148.244 154.182 150.832 154.147 152.703 152.918C154.573 151.688 155.864 149.533 156.96 147.345C157.541 146.244 158.027 145.077 158.411 143.862C158.748 142.626 158.988 141.357 159.129 140.069C159.785 135.05 160.642 129.484 160.346 124.396C159.46 124.329 157.767 124.256 156.984 124.911C156.003 125.733 156.275 127.391 155.92 128.593C155.081 131.484 152.647 133.009 150.505 134.27Z" fill="#3F3D56"/>
<path d="M151.273 134.935C150.165 135.015 148.18 133.57 147.069 133.643C146.313 132.087 145.644 130.475 145.068 128.815C145.659 127.816 146.611 127.572 148.05 128.815C149.205 129.773 150.8 133.085 151.273 134.935Z" fill="#3F3D56"/>
<path d="M167.975 79.9035C166.772 80.6524 166.028 80.6872 165.434 80.5374C164.84 80.3877 163.661 81.0843 163.661 81.0843C153.246 85.2848 152.835 87.2666 152.835 87.2666L164.893 82.2476C167.212 81.0494 167.257 81.4709 167.257 81.4709C169.029 83.4353 171.287 82.1048 171.287 82.1048C171.287 82.1048 174.41 80.3633 173.491 78.688C172.572 77.0126 169.18 79.1686 167.975 79.9035ZM172.997 79.5901C172.997 79.5901 172.111 82.3764 168.923 81.9237C168.923 81.9237 167.357 81.652 168.019 80.2762C168.019 80.2762 171.269 78.6671 172.129 78.782C172.988 78.8969 172.988 79.604 172.988 79.604L172.997 79.5901Z" fill="#E8E8F0"/>
<path opacity="0.1" d="M167.975 79.9035C166.772 80.6524 166.028 80.6872 165.434 80.5374C164.84 80.3877 163.661 81.0843 163.661 81.0843C153.246 85.2848 152.835 87.2666 152.835 87.2666L164.893 82.2476C167.212 81.0494 167.257 81.4709 167.257 81.4709C169.029 83.4353 171.287 82.1048 171.287 82.1048C171.287 82.1048 174.41 80.3633 173.491 78.688C172.572 77.0126 169.18 79.1686 167.975 79.9035ZM172.997 79.5901C172.997 79.5901 172.111 82.3764 168.923 81.9237C168.923 81.9237 167.357 81.652 168.019 80.2762C168.019 80.2762 171.269 78.6671 172.129 78.782C172.988 78.8969 172.988 79.604 172.988 79.604L172.997 79.5901Z" fill="black"/>
<path d="M168.637 72.1367C166.834 72.2063 166.459 73.7946 166.459 73.7946C166.098 74.3022 165.887 74.934 165.857 75.5953C165.826 76.2566 165.979 76.9116 166.291 77.4622L163.091 81.2134C162.485 81.4891 161.964 81.9749 161.596 82.6066C161.596 82.6066 154.57 89.9209 154.673 90.5861C154.673 90.5861 155.82 91.2827 163.091 83.4703L165 81.4781C165 81.4781 165.422 77.7547 168.403 77.0477C168.403 77.0477 168.699 77.2009 168.855 76.372C169.022 75.9745 169.245 75.613 169.514 75.3027C169.91 74.8708 170.439 72.0635 168.637 72.1367ZM169.142 74.6549C169.142 74.6549 168.176 77.5945 166.799 76.7447C165.422 75.8948 166.761 73.9339 166.761 73.9339C169.148 71.1962 169.142 74.6549 169.142 74.6549Z" fill="#151414"/>
<path opacity="0.1" d="M163.153 82.676C163.364 82.676 163.534 82.4748 163.534 82.2267C163.534 81.9785 163.364 81.7773 163.153 81.7773C162.943 81.7773 162.772 81.9785 162.772 82.2267C162.772 82.4748 162.943 82.676 163.153 82.676Z" fill="black"/>
<path d="M196.495 68.0197C195.383 67.329 194.228 66.7375 193.041 66.2503C191.463 65.7227 189.842 65.3958 188.205 65.275C183.032 64.6945 177.844 64.3579 172.64 64.265C171.721 64.265 170.782 64.2406 169.91 64.6133C169.131 64.9655 168.426 65.5107 167.842 66.212C166.829 67.3529 166.025 68.7253 165.478 70.2453C165.303 70.6261 165.25 71.0692 165.33 71.4922C165.449 71.8962 165.921 72.1644 166.19 71.8788C165.502 72.5323 164.997 73.4144 164.74 74.4106C164.483 75.4069 164.486 76.4713 164.748 77.4656C164.338 77.7184 163.99 78.0916 163.738 78.5492C163.486 79.0068 163.339 79.5333 163.31 80.0778C165.458 80.5466 167.669 80.4202 169.768 79.7086C169.142 79.5205 168.495 80.2137 168.456 80.9729C168.461 81.3544 168.554 81.7271 168.727 82.0498C168.899 82.3725 169.144 82.6326 169.434 82.8015C170.02 83.1284 170.666 83.2792 171.313 83.2404C173.816 83.2404 176.25 82.2408 178.747 82.1119C180.656 82.0109 182.623 82.4184 184.446 81.7636C186.562 80.9904 188.45 78.7996 190.63 79.2558C192.37 79.6215 193.505 81.5267 194.64 83.122C196.454 85.668 198.696 87.73 200.921 89.7745C202.635 91.3488 204.425 92.9649 206.549 93.4978C207.185 93.7021 207.859 93.6643 208.476 93.3899C208.991 93.0649 209.423 92.584 209.728 91.9967C212.018 88.1653 212.021 83.3414 211.888 78.8518C211.82 76.5565 211.395 76.2465 209.593 75.2956C207.501 74.188 205.417 73.0538 203.341 71.8928C201.048 70.6296 198.766 69.3386 196.495 68.0197Z" fill="#FBBEBE"/>
<path d="M220.442 76.6154C220.089 76.8635 219.717 77.07 219.331 77.2319C218.684 77.413 218.025 77.0891 217.396 76.8383C214.736 75.7934 211.782 76.0407 209.211 74.7485C210.054 80.4522 208.951 86.3175 206.142 91.0664C205.61 91.9581 204.91 92.8706 203.988 92.9403C204.398 94.4275 205.663 95.3261 206.863 95.9949C208.778 97.0637 210.782 97.897 212.843 98.4817C213.433 98.6454 214.154 98.7255 214.497 98.1334C214.704 97.7851 214.793 97.1895 215.156 97.2104C215.711 97.907 215.528 99.3351 216.296 99.6485C216.536 99.7205 216.787 99.7205 217.026 99.6485L218.74 99.3002C219.254 99.2478 219.749 99.0468 220.182 98.7151C220.453 98.4377 220.676 98.102 220.841 97.7259C222.761 93.8702 223.5 89.4085 223.795 85.0025C223.94 82.8152 224.12 80.4955 223.993 78.3012C223.875 76.4204 221.83 75.8526 220.442 76.6154Z" fill="#E8E8F0"/>
<path opacity="0.1" d="M220.442 76.6154C220.089 76.8635 219.717 77.07 219.331 77.2319C218.684 77.413 218.025 77.0891 217.396 76.8383C214.736 75.7934 211.782 76.0407 209.211 74.7485C210.054 80.4522 208.951 86.3175 206.142 91.0664C205.61 91.9581 204.91 92.8706 203.988 92.9403C204.398 94.4275 205.663 95.3261 206.863 95.9949C208.778 97.0637 210.782 97.897 212.843 98.4817C213.433 98.6454 214.154 98.7255 214.497 98.1334C214.704 97.7851 214.793 97.1895 215.156 97.2104C215.711 97.907 215.528 99.3351 216.296 99.6485C216.536 99.7205 216.787 99.7205 217.026 99.6485L218.74 99.3002C219.254 99.2478 219.749 99.0468 220.182 98.7151C220.453 98.4377 220.676 98.102 220.841 97.7259C222.761 93.8702 223.5 89.4085 223.795 85.0025C223.94 82.8152 224.12 80.4955 223.993 78.3012C223.875 76.4204 221.83 75.8526 220.442 76.6154Z" fill="black"/>
<path d="M121.396 189.594C120.554 188.319 119.688 186.968 118.442 186.295C117.723 185.954 116.967 185.736 116.196 185.648C112.039 184.951 107.873 184.226 103.678 184.091C102.307 184.045 100.835 184.091 99.7187 185.035C98.4393 186.111 97.9459 188.093 97.875 189.942C97.7987 192.144 98.1696 194.336 98.9569 196.336C99.7442 198.335 100.925 200.083 102.401 201.436C104.913 203.693 108.086 204.637 111.182 205.382C112.81 205.776 114.447 206.128 116.09 206.427C117.733 206.727 119.405 206.964 120.991 207.563C124.383 208.844 127.376 211.742 130.933 211.983C131.101 212.013 131.272 211.979 131.421 211.885C131.577 211.736 131.682 211.526 131.716 211.293C132.499 208.036 135.215 200.238 131.716 197.96C129.888 196.772 127.858 196.72 126.067 195.212C124.277 193.704 122.755 191.652 121.396 189.594Z" fill="#BE6F72"/>
<path d="M91.5289 211.213C89.2274 208.852 86.0512 207.601 84.3789 204.595C83.6433 203.272 83.271 201.718 82.9017 200.193L81.8144 195.588C81.7306 195.305 81.6926 195.006 81.7021 194.707C81.7849 193.746 82.7451 193.289 83.5546 193.14C87.691 192.38 91.9987 194.345 95.0951 197.668C98.1914 200.99 100.18 205.574 101.347 210.325C101.429 210.567 101.441 210.833 101.382 211.084C101.281 211.307 101.122 211.486 100.927 211.593C99.4324 212.638 97.4233 214.16 95.6771 214.48C93.931 214.801 92.7728 212.474 91.5289 211.213Z" fill="#BE6F72"/>
<path d="M192.509 191.36L204.623 197.075C205.772 197.617 206.718 198.628 207.288 199.923C207.858 201.219 208.015 202.712 207.728 204.132L198.714 248.829H176.177L180.1 197.977C180.1 197.977 188.669 189.618 192.509 191.36Z" fill="#3F3D56"/>
<path d="M204.21 185.996C203.985 186.574 203.654 187.145 203.704 187.776C203.734 188.152 203.899 188.507 203.876 188.88C203.828 189.611 203.11 190.019 202.49 190.026C201.87 190.033 201.246 189.796 200.635 189.921C199.63 190.123 198.95 191.214 198.082 191.844C196.87 192.722 195.358 192.669 193.945 192.819C190.991 193.133 188.196 194.439 185.522 195.926C183.705 196.936 181.776 198.232 181.09 200.454C180.106 203.589 182.015 206.891 182.438 210.206C182.551 211.323 182.578 212.449 182.52 213.571C182.21 225.281 181.675 237.127 181.108 248.822L72.8062 248.972L78.1391 237.955C83.3391 227.21 88.678 216.263 96.5223 208.047C97.6859 206.809 98.9931 205.772 100.405 204.968L106.695 211.586C107.198 212.176 107.783 212.662 108.423 213.024C109.605 213.592 110.929 213.268 112.196 213.317C114.634 213.411 116.861 214.877 118.977 216.309C120.528 217.301 122.021 218.417 123.444 219.649C124.277 220.401 125.48 220.871 126.348 221.564L126.145 209.06C126.124 207.932 126.109 206.776 126.396 205.699C126.951 203.61 128.538 202.133 129.3 200.144C129.646 199.249 129.814 198.274 130.104 197.358C130.513 196.18 131.022 195.054 131.622 193.996L135.543 186.571C136.512 184.739 137.478 182.907 138.53 181.141C143.13 173.405 149.323 167.209 155.347 160.992C155.207 159.22 155.554 157.442 156.337 155.92C156.646 155.414 156.902 154.865 157.099 154.287C157.227 153.601 157.264 152.896 157.209 152.197C157.209 152.019 157.209 151.849 157.209 151.661C157.274 150.522 157.678 149.446 158.349 148.623C159.04 147.777 159.965 147.262 160.875 146.781C165.585 144.298 170.481 142.341 175.5 140.936C176.301 140.713 177.149 140.504 177.938 140.787C178.177 141.696 178.993 142.016 179.808 142.246L180.331 142.389C181.716 142.741 183.007 143.485 184.095 144.555C185.238 145.732 186.024 147.307 186.79 148.857C192.542 160.5 195.192 175.777 204.091 184.237C204.523 184.638 204.434 185.439 204.21 185.996Z" fill="#151414"/>
<path opacity="0.1" d="M240.5 42.9836C237.386 51.0538 231.249 59.0055 223.237 59.0055C222.582 59.0059 221.929 58.9676 221.278 58.8905C220.999 58.458 220.688 58.0548 220.35 57.6854C219.006 56.2156 217.1 55.8359 215.779 54.5507C216.583 52.8858 218.367 51.3742 219.582 50.1029C220.894 48.7353 222.255 47.4384 223.665 46.2124C226.484 43.7585 229.485 41.61 232.632 39.7932C234.629 38.6403 236.715 37.6094 238.919 37.2576C239.197 37.1839 239.487 37.2143 239.75 37.3447C240.092 37.5676 240.216 38.0691 240.299 38.5184C240.71 40.7476 240.157 40.7197 240.5 42.9836Z" fill="black"/>
<path d="M223.236 58.3056C234.169 58.3056 243.032 47.8576 243.032 34.9694C243.032 22.0812 234.169 11.6333 223.236 11.6333C212.304 11.6333 203.441 22.0812 203.441 34.9694C203.441 47.8576 212.304 58.3056 223.236 58.3056Z" fill="#FBBEBE"/>
<path d="M264.461 112.581C264.139 115.403 263.577 118.179 262.783 120.867C262.488 121.846 262.124 122.8 261.749 123.741C259.548 129.24 258.339 135.186 257.763 141.232C257.719 141.708 257.645 142.18 257.542 142.643C257.107 144.593 256.192 146.335 255.491 148.171C254.777 150.153 254.185 152.194 253.719 154.276C253.55 154.799 253.493 155.362 253.553 155.917C253.662 156.505 254.023 156.962 254.277 157.495C255.589 160.159 254.073 163.416 253.562 166.432C253.388 167.477 253.311 168.612 252.735 169.427C252.244 170.124 251.482 170.444 250.758 170.737C240.441 174.872 229.88 178.113 219.162 180.434C217.564 180.782 215.912 181.106 214.326 180.757C212.739 180.409 211.158 179.253 210.615 177.449C210.302 176.404 210.355 175.268 210.381 174.161C210.44 171.834 210.381 169.493 210.275 167.149C209.932 159.435 209.155 151.692 210.866 144.301C211.377 142.121 212.098 140.017 212.677 137.861C213.809 133.657 214.101 129.31 214.385 124.949C214.618 121.355 214.846 117.746 215.528 114.201C216.036 111.557 215.699 108.809 215.67 106.099C215.611 99.8982 217.157 93.8233 220.102 88.6843C220.613 87.7961 221.174 86.9184 221.443 85.8979C221.821 84.435 221.561 82.8642 221.39 81.3456C220.959 77.4737 221.133 73.5415 221.904 69.7437C222.146 68.3227 222.608 66.9662 223.266 65.7417C224.002 64.4774 225.057 63.5231 226.111 62.6244C232.235 57.4202 238.992 53.3394 246.152 50.521C246.811 52.4854 247.443 54.7807 247.948 56.7904C248.016 57.0621 248.064 57.4069 247.875 57.581C247.685 57.7552 247.49 57.6612 247.284 57.6681C247.07 57.6954 246.869 57.7982 246.706 57.9629C246.543 58.1276 246.426 58.3466 246.371 58.5911C246.267 59.0844 246.307 59.6042 246.483 60.0679C246.885 61.287 247.75 62.196 248.584 63.0563L252.773 67.3648C253.275 67.918 253.822 68.4104 254.407 68.8346C254.933 69.1829 255.506 69.4302 256.047 69.7507C258.215 71.0429 259.713 73.5611 260.549 76.25C261.386 78.9388 261.007 82.1711 262.098 84.7241C265.72 93.1878 265.69 103.201 264.461 112.581Z" fill="#E8E8F0"/>
<path d="M261.708 201.14C262.981 207.189 262.949 213.517 261.616 219.548C261.377 220.624 261.096 221.739 261.285 222.829C261.395 223.449 261.652 224.03 261.711 224.661C261.737 225.236 261.684 225.812 261.554 226.368C260.242 233.682 260.712 241.282 261.241 248.746C261.016 248.746 260.945 248.868 260.709 248.868H255.016C254.915 246.907 252.847 245.437 251.837 243.873C250.859 242.34 250.183 240.57 249.858 238.691C249.532 236.812 249.565 234.872 249.955 233.01C250.841 228.83 253.453 225.49 254.791 221.495C256.268 217.099 256.141 212.122 257.71 207.775C258.611 205.264 260.295 203.303 261.708 201.14Z" fill="#3F3D56"/>
<path opacity="0.1" d="M261.708 201.14C262.981 207.189 262.949 213.517 261.616 219.548C261.377 220.624 261.096 221.739 261.285 222.829C261.395 223.449 261.652 224.03 261.711 224.661C261.737 225.236 261.684 225.812 261.554 226.368C260.242 233.682 260.712 241.282 261.241 248.746C261.016 248.746 260.945 248.868 260.709 248.868H255.016C254.915 246.907 252.847 245.437 251.837 243.873C250.859 242.34 250.183 240.57 249.858 238.691C249.532 236.812 249.565 234.872 249.955 233.01C250.841 228.83 253.453 225.49 254.791 221.495C256.268 217.099 256.141 212.122 257.71 207.775C258.611 205.264 260.295 203.303 261.708 201.14Z" fill="black"/>
<path d="M249.76 167.616C244.92 166.704 240.231 169.577 235.557 171.322C228.416 173.987 220.554 174.15 213.956 178.333C213.367 178.668 212.833 179.123 212.379 179.678C211.843 180.459 211.506 181.404 211.407 182.402C211.112 184.608 211.474 186.866 212.432 188.793C212.842 189.615 213.36 190.371 213.679 191.252C214.435 193.342 213.93 195.752 213.8 198.037C213.504 203.139 215.182 208.106 215.519 213.205C215.72 216.211 215.457 219.283 216.057 222.216C216.432 224.055 217.138 225.789 217.431 227.649C217.723 229.509 217.596 231.327 217.694 233.166C217.969 238.436 220.004 243.556 219.508 248.805L257.917 248.955C256.493 243.114 255.308 237.074 256.599 231.191C257.047 229.331 257.604 227.51 258.266 225.741C260.414 219.621 262.621 213.484 263.805 207.012C264.99 200.541 265.097 193.631 263.09 187.445C260.857 180.549 256.109 174.812 255.075 167.533C253.302 167.254 251.535 167.951 249.76 167.616Z" fill="#3F3D56"/>
<path d="M209.451 23.5867C209.079 22.6672 208.024 22.0611 207.315 22.6428C206.606 23.2244 206.697 24.5236 206.523 25.5685C206.186 27.6235 204.455 29.0236 202.682 29.351C201.852 29.5078 200.927 29.4451 200.283 28.8112C199.868 28.3428 199.563 27.7561 199.397 27.108C197.624 21.5352 198.702 15.0289 201.604 10.1666C202.219 9.0771 202.983 8.11452 203.864 7.31755C206.307 5.22775 209.575 5.22775 212.598 5.3392C213.211 5.41765 213.832 5.33316 214.415 5.09191C214.858 4.81651 215.265 4.46431 215.62 4.04701C218.483 1.07949 222.439 -0.167426 226.256 0.031105C230.074 0.229636 233.746 1.77261 237.138 3.8241C238.76 4.80282 240.35 5.9139 241.62 7.46035C244.672 11.1628 245.417 16.6485 246.016 21.7616C246.66 27.2787 247.302 32.949 246.217 38.372C245.603 41.444 244.445 44.4464 244.58 47.5985C242.126 48.4247 239.632 49.0749 237.111 49.5455C235.93 49.7649 234.565 49.8938 233.699 48.9081C233.333 48.4455 233.065 47.8867 232.919 47.2781C231.982 44.0145 232.295 40.2877 230.88 37.2714C230.289 36.0416 229.443 35.0079 228.422 34.2662C227.401 33.5246 226.237 33.0991 225.039 33.0291C224.111 32.9908 223.057 33.259 222.581 34.1959C222.399 34.6555 222.258 35.1365 222.161 35.6309C221.505 37.961 218.82 39.1139 217.05 37.8147C216.164 37.1599 215.558 36.0732 214.757 35.2582C213.741 34.2307 212.438 33.7013 211.298 32.8724C207.498 30.0964 210.922 27.2264 209.451 23.5867Z" fill="#3F3D56"/>
<path d="M179.82 142.249C178.204 142.859 176.732 143.963 175.16 144.74C172.392 146.102 169.349 146.419 166.445 147.289C163.654 148.172 160.965 149.449 158.435 151.093C158.249 151.211 157.664 151.789 157.197 152.187C157.197 152.009 157.197 151.838 157.197 151.65C157.262 150.511 157.666 149.436 158.337 148.613C159.029 147.767 159.953 147.251 160.863 146.77C165.577 144.29 170.477 142.337 175.5 140.936C176.301 140.713 177.149 140.504 177.938 140.787C178.189 141.696 179.004 142.016 179.82 142.249Z" fill="#3F3D56"/>
<path opacity="0.1" d="M137.933 231.571C141.112 235.751 143.963 240.314 147.662 243.838C143.393 237.154 137.268 232.693 131.731 227.653C130.608 226.629 128.363 225.176 127.683 223.696C126.611 221.376 128.98 223.024 129.964 223.654C133.037 225.622 135.613 228.527 137.933 231.571Z" fill="black"/>
<path opacity="0.1" d="M252.318 109.568C252.168 111.073 251.692 112.501 251.21 113.901C250.029 117.384 248.761 120.832 246.977 123.922C245.747 126.05 244.285 127.973 243.003 130.052C241.686 132.259 240.479 134.553 239.386 136.924C237.371 141.131 235.408 145.374 233.495 149.651C232.582 151.699 231.675 153.764 230.496 155.614C229.669 156.862 228.781 158.053 227.837 159.18C225.769 161.751 223.645 164.126 221.795 166.913C220.879 168.306 219.352 168.842 217.925 169.316C217.447 169.503 216.95 169.609 216.447 169.629C215.941 169.588 215.443 169.457 214.97 169.243C213.376 168.669 211.817 167.971 210.302 167.153C209.959 159.438 209.182 151.695 210.893 144.304C211.404 142.124 212.125 140.02 212.704 137.864C213.835 133.66 214.128 129.314 214.412 124.953C214.763 124.079 215.138 123.211 215.502 122.368C217.966 116.628 220.043 110.307 219.402 103.909C219.239 102.755 219.125 101.593 219.062 100.426C219.068 98.9947 219.273 97.5746 219.668 96.2215C220.552 93.0258 222.014 90.0942 223.952 87.6289C225.89 85.1635 228.259 83.223 230.895 81.9412C231.727 81.4826 232.635 81.2449 233.554 81.2446C234.736 81.3178 235.867 82.0422 237.02 81.7775C240.923 83.8012 244.081 87.2563 246.442 91.4429C248.802 95.6294 248.932 101.223 251.5 105.236C252.259 106.455 252.466 108.067 252.318 109.568Z" fill="black"/>
<path d="M166.891 90.6661L166.767 90.3491L161.939 92.9753L161.132 93.4142L160.329 93.8495L167.136 111.247L167.94 110.808L168.746 110.369L173.574 107.743L173.45 107.43L168.622 110.056L168.498 109.739L173.326 107.113L173.202 106.796L168.374 109.422L168.25 109.105L173.077 106.479L172.956 106.162L168.126 108.788L168.002 108.475L172.832 105.848L172.708 105.532L167.877 108.158L167.753 107.841L172.584 105.215L172.46 104.898L167.632 107.524L167.508 107.207L172.336 104.581L172.212 104.267L167.384 106.893L167.26 106.576L172.088 103.95L171.964 103.633L167.136 106.259L167.012 105.943L171.842 103.316L171.718 102.999L166.888 105.626L166.764 105.312L171.594 102.682L171.47 102.369L166.64 104.995L166.518 104.678L171.346 102.052L171.222 101.735L166.394 104.361L166.27 104.044L171.098 101.418L170.974 101.101L166.146 103.727L166.022 103.414L170.85 100.788L170.729 100.471L165.898 103.097L165.774 102.78L170.605 100.154L170.48 99.8368L165.65 102.463L165.529 102.146L170.356 99.5234L170.232 99.2064L165.405 101.833L165.28 101.516L170.108 98.8895L169.984 98.5725L165.156 101.199L165.032 100.882L169.86 98.2555L169.739 97.9386L164.908 100.568L164.784 100.251L169.615 97.6251L169.491 97.3082L164.66 99.9344L164.536 99.6174L169.367 96.9912L169.242 96.6743L164.415 99.3004L164.291 98.9835L169.118 96.3573L168.994 96.0438L164.167 98.67L164.042 98.3531L168.87 95.7269L168.746 95.4099L163.918 98.0361L163.794 97.7192L168.625 95.093L168.501 94.7795L163.67 97.4022L163.546 97.0887L168.377 94.4625L168.253 94.1456L163.422 96.7718L163.301 96.4548L168.129 93.8286L168.005 93.5117L163.177 96.1379L163.053 95.8209L167.88 93.1947L167.756 92.8813L162.929 95.5074L162.805 95.1905L167.632 92.5643L167.511 92.2474L162.68 94.8736L162.556 94.5566L167.387 91.9304L167.263 91.6135L162.432 94.2396L162.308 93.9262L167.139 91.3L167.015 90.983L162.184 93.6092L162.063 93.2923L166.891 90.6661Z" fill="black"/>
<path opacity="0.1" d="M182.047 128.931C181.424 130.174 180.469 131.254 179.285 131.619C177.807 132.069 176.088 131.198 175.444 129.568C175.048 128.558 175.065 127.402 175.045 126.29C175.012 124.115 174.814 121.946 174.454 119.812C174.271 118.743 174.025 117.632 173.408 116.824C172.61 115.779 171.34 115.43 170.158 115.406C168.775 115.385 167.26 115.827 166.453 117.148C165.806 118.213 165.694 119.711 164.834 120.543C164.452 120.889 163.997 121.107 163.519 121.174C162.544 121.317 161.556 121.071 160.713 120.474C159.871 119.877 159.222 118.965 158.872 117.882C158.6 116.963 158.467 115.821 157.728 115.389C157.344 115.162 156.886 115.204 156.475 115.058C155.217 114.608 154.886 112.728 154.771 111.185C154.638 109.377 155.149 105.807 153.243 105.685C151.205 105.553 148.838 106.949 146.95 107.691C145.739 108.266 144.315 108.928 143.201 108.123C142.382 107.527 142.045 106.291 142.096 105.159C142.146 104.027 142.512 102.954 142.802 101.875C143.298 100.049 143.597 98.1547 144.052 96.3018C143.838 96.8259 143.647 97.3631 143.481 97.9109C142.825 100.109 142.518 102.439 141.915 104.647C141.62 105.727 141.26 106.8 141.209 107.932C141.159 109.063 141.505 110.3 142.314 110.896C143.428 111.7 144.852 111.038 146.064 110.464C147.952 109.722 150.318 108.325 152.357 108.457C154.263 108.579 153.751 112.149 153.884 113.957C154 115.5 154.33 117.381 155.589 117.83C156 117.977 156.458 117.935 156.842 118.161C157.58 118.593 157.728 119.735 157.985 120.655C158.336 121.737 158.984 122.65 159.827 123.247C160.67 123.843 161.657 124.09 162.633 123.946C163.111 123.879 163.565 123.662 163.948 123.316C164.807 122.484 164.92 120.986 165.567 119.92C166.373 118.593 167.889 118.151 169.272 118.179C170.453 118.199 171.739 118.548 172.522 119.596C173.139 120.404 173.384 121.515 173.568 122.585C173.928 124.719 174.126 126.887 174.158 129.063C174.179 130.174 174.158 131.33 174.557 132.34C175.198 133.97 176.921 134.841 178.398 134.392C179.58 134.026 180.537 132.946 181.161 131.703C181.635 130.688 182.001 129.607 182.248 128.485C182.183 128.645 182.118 128.788 182.047 128.931Z" fill="black"/>
<path d="M197.245 126.617C194.882 123.943 192.746 120.982 190.624 118.028C188.591 115.204 186.553 112.365 184.916 109.206C183.903 107.252 182.998 105.12 181.441 103.752C180.26 102.707 178.815 102.219 177.509 101.421C176.569 100.847 175.704 100.119 174.776 99.5232C172.752 98.2337 170.475 97.6003 168.176 97.6876C167.221 97.726 166.137 97.9872 165.646 98.9555C165.478 99.2863 165.398 99.673 165.227 100C164.698 101.045 163.425 101.341 162.99 102.438C162.258 104.284 164.468 105.981 164.606 108.011C164.671 109.028 164.196 109.976 164.057 110.982C163.821 112.724 164.586 114.385 165.324 115.904C166.905 119.157 168.828 122.72 171.934 123.539C173.033 123.828 174.194 123.734 175.266 124.145C176.131 124.531 176.931 125.093 177.63 125.806C180.548 128.517 183.119 131.709 185.265 135.283C186.263 136.945 187.167 138.679 188.175 140.33C191.381 145.56 195.589 149.825 200.457 152.778L204.082 139.195C204.641 137.105 205.081 134.238 203.491 132.608C201.5 130.494 199.204 128.826 197.245 126.617Z" fill="#FBBEBE"/>
<path d="M236.709 80.05C235.557 80.3112 234.413 79.5902 233.243 79.5171C232.324 79.5166 231.417 79.7545 230.584 80.2137C227.949 81.4963 225.58 83.437 223.642 85.9023C221.704 88.3676 220.242 91.2987 219.357 94.494C218.966 95.8526 218.764 97.2771 218.76 98.7119C218.778 99.8787 218.985 101.028 219.1 102.195C219.741 108.583 217.664 114.908 215.203 120.655C213.841 123.828 212.305 127.175 212.627 130.71C212.668 131.184 212.733 131.717 212.488 132.103C212.192 132.563 211.554 132.588 211.279 133.072C211.005 133.556 211.256 134.287 211.037 134.834C210.742 135.607 209.778 135.513 209.09 135.238C207.203 134.485 205.455 133.315 203.94 131.79C201.485 133.479 198.858 135.492 198.052 138.704C197.862 139.523 197.731 140.36 197.659 141.205L196.391 153.674C196.223 155.325 196.14 157.261 197.198 158.362C199.021 160.264 202.268 157.801 204.218 159.522C204.717 159.961 205.042 160.615 205.4 161.211C207.53 164.656 211.197 166.171 214.636 167.48C215.11 167.692 215.607 167.821 216.113 167.863C216.616 167.847 217.114 167.741 217.59 167.55C219.02 167.076 220.545 166.526 221.461 165.15C223.313 162.364 225.438 159.988 227.506 157.418C228.448 156.289 229.336 155.098 230.165 153.851C231.347 151.998 232.251 149.933 233.164 147.885C235.072 143.608 237.034 139.366 239.049 135.158C240.153 132.797 241.371 130.513 242.698 128.317C243.983 126.228 245.443 124.312 246.672 122.187C248.445 119.094 249.718 115.632 250.906 112.167C251.387 110.774 251.863 109.335 252.017 107.834C252.17 106.333 251.963 104.72 251.189 103.512C248.622 99.4956 248.495 93.9054 246.134 89.7188C243.773 85.5322 240.615 82.0701 236.709 80.05Z" fill="#E8E8F0"/>
<path d="M166.97 92.0939C166.901 92.1456 166.843 92.2145 166.799 92.2958C166.755 92.377 166.727 92.4686 166.716 92.5641C166.716 92.7383 166.837 92.8741 166.902 93.0309C167.082 93.4767 166.793 93.9922 166.462 94.2987C166.131 94.6052 165.729 94.842 165.549 95.2913C165.521 95.3509 165.509 95.4187 165.514 95.4864C165.534 95.5782 165.579 95.6592 165.644 95.7163C165.838 95.9799 166.091 96.1752 166.373 96.2805C166.825 96.392 167.26 96.0402 167.644 95.7511C168.06 95.4405 168.504 95.1836 168.967 94.9848C169.111 94.9349 169.246 94.8559 169.366 94.7515C169.514 94.5779 169.605 94.3485 169.623 94.1036C169.724 93.2294 169.328 92.39 168.876 91.6655C168.332 90.8122 167.434 91.6237 166.97 92.0939Z" fill="#3F3D56"/>
<path d="M121.642 195.314L90.9731 176.861C90.7493 176.726 90.4753 176.831 90.361 177.094L82.5451 195.147C82.4309 195.41 82.5197 195.734 82.7435 195.868L113.412 214.321C113.636 214.456 113.91 214.351 114.024 214.087L121.84 196.035C121.954 195.771 121.865 195.448 121.642 195.314Z" fill="#3F3D56"/>
<path d="M118.818 195.778L92.3599 179.858L85.6467 195.363L112.105 211.283L118.818 195.778Z" fill="#E8E8F0"/>
<path d="M88.4216 187.266C88.5024 187.079 88.3736 186.811 88.1338 186.667C87.894 186.522 87.634 186.557 87.5531 186.743C87.4723 186.93 87.6011 187.199 87.841 187.343C88.0808 187.487 88.3407 187.453 88.4216 187.266Z" fill="#E6E8EC"/>
<path d="M117.355 204.72C117.487 204.413 117.275 203.972 116.879 203.734C116.484 203.496 116.056 203.552 115.923 203.859C115.79 204.165 116.003 204.607 116.398 204.845C116.794 205.083 117.222 205.027 117.355 204.72Z" fill="#E6E8EC"/>
<g opacity="0.1">
<path d="M246.211 35.9201C245.597 38.9921 244.438 41.9944 244.574 45.1465C242.12 45.9727 239.626 46.6229 237.105 47.0935C235.923 47.313 234.558 47.4418 233.693 46.4562C233.327 45.9935 233.059 45.4347 232.913 44.8261C231.976 41.5625 232.289 37.8357 230.874 34.8194C230.282 33.5896 229.437 32.5559 228.415 31.8143C227.394 31.0726 226.231 30.6471 225.033 30.5771C224.105 30.5388 223.05 30.807 222.575 31.7439C222.392 32.2035 222.252 32.6845 222.155 33.1789C221.499 35.5091 218.814 36.6619 217.044 35.3628C216.157 34.708 215.552 33.6213 214.751 32.8063C213.735 31.7788 212.432 31.2494 211.291 30.4204C210.263 29.675 209.77 28.9227 209.56 28.146C209.3 29.8213 209.226 31.3608 211.291 32.8585C212.432 33.6875 213.735 34.2169 214.751 35.2444C215.552 36.0524 216.146 37.1461 217.044 37.8009C218.817 39.0931 221.499 37.9472 222.155 35.617C222.252 35.1226 222.392 34.6416 222.575 34.182C223.05 33.2451 224.105 32.9769 225.033 33.0152C226.231 33.0852 227.394 33.5107 228.415 34.2524C229.437 34.994 230.282 36.0277 230.874 37.2575C232.289 40.2738 231.976 44.0006 232.913 47.2642C233.061 47.8779 233.333 48.4405 233.705 48.9047C234.57 49.8799 235.938 49.7615 237.117 49.5421C239.638 49.0715 242.132 48.4213 244.586 47.5951C244.441 44.443 245.608 41.4406 246.223 38.3686C246.696 35.8548 246.886 33.2784 246.787 30.706C246.74 32.462 246.547 34.2084 246.211 35.9201Z" fill="black"/>
<path d="M209.737 24.5619C209.954 23.4163 209.85 22.2191 209.442 21.1486C209.07 20.2291 208.015 19.623 207.306 20.2047C206.597 20.7864 206.697 22.0855 206.523 23.1304C206.186 25.1854 204.455 26.5856 202.682 26.913C201.852 27.0697 200.927 27.007 200.283 26.3731C199.868 25.9047 199.563 25.3181 199.396 24.6699C198.943 23.2213 198.667 21.7036 198.578 20.1629C198.428 22.5202 198.707 24.8881 199.396 27.108C199.563 27.7562 199.868 28.3428 200.283 28.8112C200.927 29.4451 201.852 29.5078 202.682 29.3511C204.434 29.0237 206.174 27.6096 206.523 25.5685C206.691 24.5236 206.576 23.2593 207.309 22.6602C208.041 22.0611 209.081 22.6846 209.445 23.6041C209.571 23.91 209.669 24.2311 209.737 24.5619Z" fill="black"/>
</g>
</g>
<defs>
<clipPath id="clip0_242_839">
<rect width="338" height="249" fill="white"/>
</clipPath>
</defs>
</svg>
