<svg width="182" height="182" viewBox="0 0 182 182" fill="none" xmlns="http://www.w3.org/2000/svg">
<g clip-path="url(#clip0_1142_239)">
<path d="M33.302 162.029L32.1969 157.684C30.2372 156.856 28.2321 156.139 26.1914 155.537L26.0519 157.556L25.4861 155.332C22.9553 154.611 21.2334 154.293 21.2334 154.293C21.2334 154.293 23.559 163.106 28.4376 169.844L34.1215 170.839L29.7058 171.473C30.3194 172.209 30.9788 172.906 31.6802 173.559C38.7762 180.122 46.68 183.134 49.3337 180.284C51.9874 177.435 48.386 169.806 41.2898 163.243C39.0906 161.208 36.3265 159.575 33.5601 158.289L33.302 162.029Z" fill="#F2F2F2"/>
<path d="M43.8136 157.31L45.1207 153.023C43.8725 151.305 42.528 149.658 41.0937 148.091L39.9271 149.747L40.5965 147.552C38.8035 145.632 37.4941 144.474 37.4941 144.474C37.4941 144.474 34.9138 153.216 35.5943 161.496L39.9438 165.274L35.8339 163.543C35.9777 164.489 36.1811 165.425 36.4428 166.346C39.1127 175.62 44.3166 182.269 48.0661 181.197C51.8155 180.125 52.6906 171.738 50.0206 162.464C49.193 159.589 47.674 156.768 45.9728 154.243L43.8136 157.31Z" fill="#F2F2F2"/>
<path d="M136.251 43.0975H135.251V15.7998C135.251 11.6095 133.58 7.59092 130.607 4.62791C127.634 1.6649 123.601 0.000200409 119.396 0H61.355C57.1499 0 53.117 1.66461 50.1435 4.62765C47.17 7.59068 45.4995 11.6094 45.4995 15.7998V165.56C45.4995 167.635 45.9096 169.69 46.7064 171.607C47.5033 173.524 48.6712 175.265 50.1435 176.733C51.6158 178.2 53.3637 179.363 55.2874 180.158C57.211 180.952 59.2728 181.36 61.355 181.36H119.396C123.601 181.36 127.634 179.696 130.607 176.733C133.581 173.77 135.251 169.751 135.251 165.561V62.5285H136.251L136.251 43.0975Z" fill="#E6E6E6"/>
<path d="M120.035 4.10865H112.46C112.808 4.95987 112.941 5.88339 112.847 6.79787C112.752 7.71234 112.434 8.58971 111.919 9.35266C111.405 10.1156 110.71 10.7408 109.896 11.173C109.081 11.6052 108.173 11.8313 107.251 11.8313H73.9999C73.0773 11.8314 72.1689 11.6053 71.3547 11.173C70.5405 10.7408 69.8455 10.1156 69.3309 9.3526C68.8163 8.5896 68.4979 7.71218 68.4037 6.79767C68.3096 5.88315 68.4427 4.9596 68.7911 4.1084H61.7154C58.575 4.1084 55.5632 5.35153 53.3426 7.56432C51.122 9.77711 49.8745 12.7783 49.8745 15.9077V165.451C49.8745 168.58 51.122 171.581 53.3426 173.794C55.5632 176.007 58.575 177.25 61.7154 177.25H120.035C123.175 177.25 126.187 176.007 128.408 173.794C130.628 171.581 131.876 168.58 131.876 165.451V15.9074C131.876 12.7781 130.628 9.77705 128.408 7.56432C126.187 5.35159 123.176 4.10847 120.035 4.1084L120.035 4.10865Z" fill="white"/>
<path d="M83.4438 63.6792C83.4436 62.6337 83.7199 61.6066 84.2447 60.7014C84.7695 59.7961 85.5244 59.0446 86.4334 58.5225C85.5251 57.9998 84.4947 57.7247 83.4459 57.7246C82.397 57.7246 81.3667 57.9996 80.4583 58.5222C79.55 59.0447 78.7957 59.7964 78.2712 60.7015C77.7468 61.6066 77.4707 62.6334 77.4707 63.6785C77.4707 64.7237 77.7468 65.7504 78.2712 66.6556C78.7957 67.5607 79.55 68.3123 80.4583 68.8349C81.3667 69.3574 82.397 69.6325 83.4459 69.6324C84.4947 69.6324 85.5251 69.3572 86.4334 68.8346C85.5247 68.3125 84.7701 67.5612 84.2454 66.6561C83.7208 65.7511 83.4446 64.7243 83.4448 63.6792H83.4438Z" fill="#CCCCCC"/>
<path d="M90.9545 63.6792C90.9544 62.6337 91.2306 61.6066 91.7554 60.7013C92.2803 59.7961 93.0352 59.0446 93.9441 58.5225C93.0358 57.9998 92.0055 57.7247 90.9566 57.7246C89.9078 57.7246 88.8774 57.9996 87.9691 58.5222C87.0607 59.0447 86.3064 59.7964 85.782 60.7015C85.2575 61.6066 84.9814 62.6334 84.9814 63.6785C84.9814 64.7237 85.2575 65.7504 85.782 66.6556C86.3064 67.5607 87.0607 68.3123 87.9691 68.8349C88.8774 69.3574 89.9078 69.6325 90.9566 69.6324C92.0055 69.6324 93.0358 69.3572 93.9441 68.8346C93.0355 68.3125 92.2808 67.5612 91.7562 66.6561C91.2315 65.7511 90.9554 64.7243 90.9555 63.6792H90.9545Z" fill="#CCCCCC"/>
<path d="M98.2957 69.6334C101.596 69.6334 104.271 66.9678 104.271 63.6795C104.271 60.3912 101.596 57.7256 98.2957 57.7256C94.9959 57.7256 92.3208 60.3912 92.3208 63.6795C92.3208 66.9678 94.9959 69.6334 98.2957 69.6334Z" fill="black"/>
<path d="M108.281 82.276H73.4575C73.126 82.2756 72.8082 82.1442 72.5737 81.9106C72.3393 81.677 72.2074 81.3602 72.207 81.0299V46.3291C72.2077 45.9989 72.3397 45.6824 72.5741 45.449C72.8085 45.2157 73.1262 45.0844 73.4575 45.084H108.281C108.612 45.0844 108.93 45.2158 109.165 45.4494C109.399 45.683 109.531 45.9997 109.531 46.3301V81.0286C109.531 81.359 109.399 81.6757 109.165 81.9093C108.93 82.1429 108.612 82.2743 108.281 82.2747V82.276ZM73.4575 45.5817C73.2586 45.5819 73.0679 45.6607 72.9272 45.8009C72.7866 45.9411 72.7075 46.1311 72.7073 46.3293V81.0301C72.7075 81.2283 72.7866 81.4184 72.9272 81.5585C73.0679 81.6987 73.2586 81.7775 73.4575 81.7777H108.281C108.48 81.7775 108.671 81.6987 108.811 81.5585C108.952 81.4184 109.031 81.2283 109.031 81.0301V46.3293C109.031 46.1311 108.952 45.9411 108.811 45.8009C108.671 45.6607 108.48 45.5819 108.281 45.5817H73.4575Z" fill="#CCCCCC"/>
<path d="M116.057 108.875H62.6489V109.373H116.057V108.875Z" fill="#CCCCCC"/>
<path d="M64.3355 105.763C65.2669 105.763 66.022 105.01 66.022 104.082C66.022 103.154 65.2669 102.401 64.3355 102.401C63.404 102.401 62.6489 103.154 62.6489 104.082C62.6489 105.01 63.404 105.763 64.3355 105.763Z" fill="black"/>
<path d="M116.057 125.682H62.6489V126.18H116.057V125.682Z" fill="#CCCCCC"/>
<path d="M64.3355 122.569C65.2669 122.569 66.022 121.817 66.022 120.889C66.022 119.96 65.2669 119.208 64.3355 119.208C63.404 119.208 62.6489 119.96 62.6489 120.889C62.6489 121.817 63.404 122.569 64.3355 122.569Z" fill="black"/>
<path d="M115.079 144.82H98.2007C97.9091 144.82 97.6296 144.704 97.4235 144.499C97.2174 144.293 97.1014 144.015 97.1011 143.724V137.83C97.1014 137.54 97.2174 137.261 97.4235 137.056C97.6296 136.85 97.9091 136.735 98.2007 136.734H115.079C115.371 136.735 115.65 136.85 115.856 137.056C116.062 137.261 116.178 137.54 116.179 137.83V143.724C116.178 144.015 116.062 144.293 115.856 144.499C115.65 144.704 115.371 144.82 115.079 144.82Z" fill="black"/>
<path d="M69.8369 105.763C70.7684 105.763 71.5235 105.01 71.5235 104.082C71.5235 103.154 70.7684 102.401 69.8369 102.401C68.9055 102.401 68.1504 103.154 68.1504 104.082C68.1504 105.01 68.9055 105.763 69.8369 105.763Z" fill="black"/>
<path d="M75.3389 105.763C76.2703 105.763 77.0254 105.01 77.0254 104.082C77.0254 103.154 76.2703 102.401 75.3389 102.401C74.4074 102.401 73.6523 103.154 73.6523 104.082C73.6523 105.01 74.4074 105.763 75.3389 105.763Z" fill="black"/>
<path d="M69.8369 122.569C70.7684 122.569 71.5235 121.817 71.5235 120.889C71.5235 119.96 70.7684 119.208 69.8369 119.208C68.9055 119.208 68.1504 119.96 68.1504 120.889C68.1504 121.817 68.9055 122.569 69.8369 122.569Z" fill="black"/>
<path d="M75.3389 122.569C76.2703 122.569 77.0254 121.817 77.0254 120.889C77.0254 119.96 76.2703 119.208 75.3389 119.208C74.4074 119.208 73.6523 119.96 73.6523 120.889C73.6523 121.817 74.4074 122.569 75.3389 122.569Z" fill="black"/>
<path d="M181.3 182H0.69969C0.313193 182 0 181.863 0 181.693C0 181.524 0.313193 181.386 0.69969 181.386H181.3C181.687 181.386 182 181.524 182 181.693C182 181.863 181.687 182 181.3 182Z" fill="#E6E6E6"/>
<path d="M158.176 114.081L153.93 122.458L141.235 128.21C139.879 130.493 135.57 130.668 135.257 129.192C134.905 127.536 140.489 124.869 140.489 124.869L151.109 117.712L152.038 111.55L158.176 114.081Z" fill="#FFB9B9"/>
<path d="M157.675 170.297L158.459 176.54L153.916 176.852L153.447 170.297L157.675 170.297Z" fill="#FFB9B9"/>
<path d="M157.049 175.603C157.455 175.175 157.829 174.719 158.17 174.237C158.821 173.34 159.398 177.944 159.398 177.944C159.398 177.944 160.025 179.817 159.868 180.753C159.711 181.69 156.109 181.69 155.483 181.534C154.856 181.379 151.724 181.534 151.724 181.534H147.025C142.953 179.662 147.025 178.413 147.025 178.413C148.278 178.257 152.507 174.355 152.507 174.355L153.447 172.638C154.073 172.482 154.7 174.823 154.7 174.823L157.049 175.603Z" fill="#090814"/>
<path d="M169.422 170.375L170.206 176.618L165.664 176.93L165.194 170.375H169.422Z" fill="#FFB9B9"/>
<path d="M168.795 175.681C169.201 175.253 169.576 174.797 169.916 174.315C170.567 173.418 171.145 178.022 171.145 178.022C171.145 178.022 171.771 179.739 171.615 180.675C171.458 181.612 167.856 181.612 167.229 181.456C166.603 181.301 163.47 181.612 163.47 181.612H158.772C154.7 179.74 158.772 178.491 158.772 178.491C160.025 178.335 164.254 174.433 164.254 174.433L165.193 172.716C165.82 172.56 166.446 174.901 166.446 174.901L168.795 175.681Z" fill="#090814"/>
<path d="M164.253 130.109C164.88 130.89 164.566 133.542 164.566 133.542C164.566 133.542 165.663 142.126 165.193 142.906C164.723 143.687 165.506 144.311 165.976 145.404C166.447 146.496 166.916 149.149 166.916 149.149C169.579 151.334 169.422 161.323 169.422 161.323L170.362 170.219C170.049 171.155 165.663 171.311 165.037 171.155C164.41 170.999 162.531 156.953 162.531 156.953L158.302 148.993C158.302 148.993 158.615 170.219 158.615 171.155C158.615 172.092 154.386 171.623 153.447 171.623C152.507 171.623 152.507 156.016 152.507 156.016L151.567 151.959L146.555 133.386V131.201L147.339 130.108C147.339 130.108 163.627 129.328 164.253 130.109Z" fill="#090814"/>
<path d="M157.363 94.6805C160.044 94.6805 162.218 92.5143 162.218 89.8422C162.218 87.1701 160.044 85.0039 157.363 85.0039C154.681 85.0039 152.507 87.1701 152.507 89.8422C152.507 92.5143 154.681 94.6805 157.363 94.6805Z" fill="#FFB9B9"/>
<path d="M154.935 92.1055C155.919 94.2894 155.336 97.3395 153.368 100.689L161.355 96.9438L160.102 95.8513L160.416 92.7299L154.935 92.1055Z" fill="#FFB9B9"/>
<path d="M154.934 97.0995C153.888 97.7191 153.262 98.8576 152.903 100.016C152.238 102.161 151.838 104.379 151.711 106.62L151.332 113.331L146.633 131.123C150.705 134.556 153.054 133.776 158.536 130.967C164.019 128.157 164.645 131.904 164.645 131.904C164.645 131.904 165.115 131.748 164.645 131.28C164.175 130.812 164.645 131.28 165.115 130.811C165.585 130.343 165.115 130.811 164.958 130.343C164.801 129.875 164.958 130.187 165.115 130.031C165.271 129.875 164.488 128.469 164.488 128.469L165.741 116.764L167.308 100.221C165.429 97.8796 160.104 95.8506 160.104 95.8506L155.247 99.2841C153.68 99.9083 154.934 97.4113 154.934 97.4113L154.934 97.0995Z" fill="black"/>
<path d="M169.892 110.132L170.518 119.496L162.53 130.889C162.53 133.542 161.121 134.167 161.121 134.167C160.587 133.318 160.116 132.431 159.711 131.514C158.928 129.797 160.181 128.392 160.181 128.392L165.663 116.843L163.314 111.069L169.892 110.132Z" fill="#FFB9B9"/>
<path d="M167.23 100.299C169.893 101.236 170.363 111.38 170.363 111.38C167.23 109.664 163.471 112.473 163.471 112.473C163.471 112.473 162.688 109.82 161.748 106.386C161.465 105.42 161.431 104.399 161.65 103.416C161.869 102.434 162.334 101.523 163.001 100.768C163.001 100.768 164.567 99.3631 167.23 100.299Z" fill="black"/>
<path d="M161.826 91.325C161.208 90.8324 160.365 91.7281 160.365 91.7281L159.87 87.2933C159.87 87.2933 156.78 87.6628 154.802 87.1701C152.824 86.6774 152.515 88.9563 152.515 88.9563C152.413 88.0363 152.392 87.1091 152.453 86.1855C152.577 85.0772 154.184 83.9689 157.027 83.2291C159.87 82.4893 161.353 85.6928 161.353 85.6928C163.33 86.6774 162.444 91.818 161.826 91.325Z" fill="#090814"/>
</g>
<defs>
<clipPath id="clip0_1142_239">
<rect width="182" height="182" fill="white"/>
</clipPath>
</defs>
</svg>
