<svg width="39" height="39" viewBox="0 0 39 39" fill="none" xmlns="http://www.w3.org/2000/svg">
<g filter="url(#filter0_i_862_95)">
<g clip-path="url(#clip0_862_95)">
<rect width="39" height="39" rx="19.5" fill="#FBD70F"/>
<rect width="39" height="39" rx="19.5" fill="#1F1F1F" fill-opacity="0.04"/>
<path d="M29.9781 15.1163C29.5094 14.6569 28.9 14.4131 28.2344 14.4319C27.5875 14.4413 26.9875 14.7131 26.5375 15.2006C26.0875 15.6788 25.8531 16.3069 25.8719 16.9444C25.8906 17.4975 26.1063 18.0131 26.4625 18.4256C25.525 19.5881 24.6719 20.1319 23.8563 20.0663C22.8063 19.9819 21.6906 18.8944 20.5187 16.8038C20.9125 16.4944 21.2031 16.0819 21.3531 15.5944C21.5594 14.9288 21.4562 14.2069 21.0812 13.5506C20.6781 12.8475 19.9 12.4538 19 12.4819C18.9906 12.4819 18.9813 12.4819 18.9813 12.4819C18.0813 12.4538 17.3031 12.8475 16.9 13.5506C16.525 14.2069 16.4312 14.9381 16.6281 15.5944C16.7781 16.0725 17.0687 16.4944 17.4625 16.8038C16.2906 18.885 15.175 19.9819 14.125 20.0663C13.3094 20.1319 12.4563 19.5881 11.5188 18.4256C11.875 18.0131 12.0813 17.4975 12.1094 16.9444C12.1375 16.3069 11.8938 15.6694 11.4438 15.2006C10.9938 14.7225 10.3937 14.4506 9.74687 14.4319C9.09062 14.4225 8.47187 14.6663 8.00312 15.1163C7.53437 15.5756 7.28125 16.185 7.28125 16.8413C7.28125 18.1069 8.26563 19.1475 9.50313 19.2506L10.2063 26.1038C10.2906 26.9194 10.9656 27.5288 11.7812 27.5288H26.1719C26.9875 27.5288 27.6719 26.9194 27.7469 26.1038L28.45 19.2506C29.6969 19.1569 30.6719 18.1163 30.6719 16.8413C30.7 16.185 30.4469 15.5756 29.9781 15.1163ZM28.2906 18.3319C28.2344 18.3319 28.1687 18.3225 28.1125 18.3225C27.9906 18.3038 27.8687 18.3413 27.7656 18.4163C27.6719 18.4913 27.6062 18.6038 27.5969 18.735L26.8563 26.01C26.8188 26.3475 26.5375 26.6006 26.2 26.6006H11.8C11.4625 26.6006 11.1813 26.3475 11.1438 26.01L10.4031 18.735C10.3937 18.6131 10.3281 18.5006 10.2344 18.4163C10.15 18.3506 10.0469 18.3131 9.94375 18.3131C9.925 18.3131 9.90625 18.3131 9.8875 18.3131C9.83125 18.3225 9.775 18.3225 9.70937 18.3225C8.89375 18.3225 8.22813 17.6569 8.22813 16.8319C8.22813 16.4288 8.3875 16.0538 8.67812 15.7725C8.96875 15.4913 9.35312 15.3413 9.74687 15.3506C10.1406 15.36 10.5063 15.5288 10.7875 15.8288C11.0688 16.1194 11.2094 16.5131 11.2 16.8975C11.1812 17.3288 10.975 17.7319 10.6281 18.0038C10.4313 18.1631 10.3937 18.4444 10.5437 18.6506C11.7906 20.31 12.9906 21.0694 14.2094 20.985C15.6719 20.8725 17.0781 19.5225 18.4937 16.86C18.55 16.7475 18.5688 16.6163 18.5219 16.5038C18.4844 16.3819 18.4 16.2881 18.2875 16.2319C17.9219 16.0538 17.6406 15.7163 17.5187 15.3319C17.3875 14.91 17.4531 14.4506 17.7062 14.0194C17.9312 13.6256 18.3906 13.4006 18.9344 13.41C18.9719 13.4194 19.0094 13.4194 19.0469 13.41C19.5906 13.4006 20.05 13.6163 20.275 14.0194C20.5281 14.46 20.5938 14.91 20.4625 15.3319C20.3406 15.7256 20.0594 16.0538 19.6937 16.2319C19.5812 16.2881 19.4969 16.3819 19.4594 16.5038C19.4219 16.6256 19.4312 16.7569 19.4875 16.86C20.9031 19.5225 22.3094 20.8725 23.7719 20.985C25 21.0788 26.2 20.3194 27.4375 18.6506C27.5875 18.4444 27.55 18.1631 27.3531 18.0038C27.0063 17.7319 26.8 17.3288 26.7812 16.8975C26.7625 16.5131 26.9125 16.1194 27.1937 15.8288C27.475 15.5288 27.8406 15.36 28.2344 15.3506C28.6375 15.3413 29.0219 15.4913 29.3031 15.7725C29.5938 16.0538 29.7531 16.4288 29.7531 16.8319C29.7719 17.6663 29.1063 18.3319 28.2906 18.3319Z" fill="white"/>
</g>
</g>
<defs>
<filter id="filter0_i_862_95" x="0" y="0" width="39" height="43" filterUnits="userSpaceOnUse" color-interpolation-filters="sRGB">
<feFlood flood-opacity="0" result="BackgroundImageFix"/>
<feBlend mode="normal" in="SourceGraphic" in2="BackgroundImageFix" result="shape"/>
<feColorMatrix in="SourceAlpha" type="matrix" values="0 0 0 0 0 0 0 0 0 0 0 0 0 0 0 0 0 0 127 0" result="hardAlpha"/>
<feOffset dy="4"/>
<feGaussianBlur stdDeviation="35"/>
<feComposite in2="hardAlpha" operator="arithmetic" k2="-1" k3="1"/>
<feColorMatrix type="matrix" values="0 0 0 0 0 0 0 0 0 0 0 0 0 0 0 0 0 0 0.25 0"/>
<feBlend mode="normal" in2="shape" result="effect1_innerShadow_862_95"/>
</filter>
<clipPath id="clip0_862_95">
<rect width="39" height="39" rx="19.5" fill="white"/>
</clipPath>
</defs>
</svg>
