<svg width="39" height="39" viewBox="0 0 39 39" fill="none" xmlns="http://www.w3.org/2000/svg">
<g filter="url(#filter0_i_862_102)">
<g clip-path="url(#clip0_862_102)">
<rect width="39" height="39" rx="19.5" fill="#E4E0CB"/>
<rect width="39" height="39" rx="19.5" fill="#1F1F1F" fill-opacity="0.04"/>
<path d="M25.024 28.791H12.9361C12.6347 28.791 12.3457 28.9107 12.1326 29.1238C11.9195 29.3369 11.7998 29.6259 11.7998 29.9273V31.0644C11.7998 31.1093 11.8086 31.1538 11.8258 31.1953C11.843 31.2368 11.8682 31.2745 11.8999 31.3063C11.9317 31.3381 11.9694 31.3633 12.0109 31.3805C12.0524 31.3977 12.0969 31.4065 12.1418 31.4065H25.8181C25.9088 31.4065 25.9959 31.3705 26.06 31.3063C26.1242 31.2421 26.1602 31.1551 26.1602 31.0644V29.9274C26.1603 29.7782 26.1309 29.6304 26.0738 29.4925C26.0167 29.3547 25.933 29.2294 25.8275 29.1239C25.722 29.0183 25.5967 28.9346 25.4588 28.8775C25.321 28.8204 25.1732 28.791 25.024 28.791Z" fill="white"/>
<path d="M27.8855 10.3194H25.9902V9.70218C25.9902 9.50822 25.9132 9.3222 25.7761 9.18503C25.6389 9.04785 25.4529 8.97076 25.259 8.9707H12.8289C12.7329 8.9707 12.6378 8.98961 12.549 9.02637C12.4603 9.06313 12.3796 9.11701 12.3117 9.18493C12.2438 9.25286 12.1899 9.3335 12.1531 9.42225C12.1163 9.511 12.0974 9.60612 12.0974 9.70218V10.3194H10.1151C9.66659 10.3199 9.23656 10.4984 8.91939 10.8155C8.60221 11.1327 8.42379 11.5627 8.42325 12.0113V13.1073C8.41217 13.9856 8.63142 14.8514 9.05915 15.6185C9.48688 16.3856 10.1082 17.0273 10.8611 17.4795C11.5156 17.8571 12.2477 18.0799 13.0016 18.131C13.0177 18.1321 13.0338 18.1326 13.05 18.1327C13.0766 18.1318 13.1032 18.1293 13.1295 18.1252C13.855 19.3041 14.915 20.2405 16.1745 20.8149C16.6352 21.0333 17.0236 21.3793 17.2935 21.8118C17.5635 22.2443 17.7038 22.7452 17.6976 23.255V24.511C17.6977 24.7361 17.6083 24.9519 17.4492 25.1111C17.2901 25.2702 17.0742 25.3596 16.8492 25.3597H15.0951C14.822 25.3597 14.5602 25.4681 14.3672 25.6612C14.1741 25.8543 14.0657 26.1161 14.0657 26.3891V27.7964H24.0222V26.3889C24.0221 26.1159 23.9136 25.8541 23.7206 25.6611C23.5275 25.4681 23.2657 25.3597 22.9927 25.3597H21.2385C21.0134 25.3597 20.7976 25.2702 20.6385 25.1111C20.4793 24.952 20.3899 24.7361 20.3899 24.5111V23.2549C20.3838 22.745 20.5241 22.2441 20.7941 21.8116C21.0641 21.3791 21.4524 21.0331 21.9132 20.8147C23.17 20.2416 24.2283 19.3081 24.9537 18.1326C24.9687 18.1326 24.9839 18.132 24.999 18.131C25.7528 18.08 26.4848 17.8571 27.1392 17.4795C27.8922 17.0273 28.5135 16.3857 28.9413 15.6186C29.3691 14.8514 29.5884 13.9856 29.5774 13.1073V12.0113C29.5769 11.5627 29.3985 11.1327 29.0813 10.8155C28.7641 10.4984 28.3341 10.3199 27.8855 10.3194ZM11.5185 16.3434C10.9646 16.0066 10.5085 15.5307 10.1958 14.963C9.883 14.3952 9.7244 13.7554 9.73575 13.1073V12.0113C9.73586 11.9107 9.77587 11.8143 9.84699 11.7431C9.91812 11.672 10.0146 11.632 10.1151 11.6319H12.0974V14.4894C12.098 15.2475 12.223 16.0004 12.4676 16.7179C12.1349 16.6391 11.8153 16.513 11.5185 16.3434ZM21.6707 14.8184L20.8719 15.3987C20.7803 15.4652 20.7122 15.559 20.6772 15.6667C20.6423 15.7743 20.6423 15.8903 20.6773 15.9979L20.9822 16.9367C21.0172 17.0443 21.0172 17.1603 20.9822 17.2679C20.9473 17.3756 20.8791 17.4694 20.7875 17.5359C20.696 17.6025 20.5857 17.6383 20.4725 17.6383C20.3593 17.6383 20.249 17.6025 20.1575 17.536L19.3587 16.9558C19.2671 16.8893 19.1569 16.8534 19.0437 16.8534C18.9305 16.8534 18.8203 16.8893 18.7287 16.9558L17.93 17.536C17.8384 17.6025 17.7281 17.6383 17.6149 17.6383C17.5017 17.6383 17.3914 17.6025 17.2999 17.5359C17.2083 17.4694 17.1401 17.3756 17.1052 17.2679C17.0702 17.1603 17.0702 17.0443 17.1052 16.9367L17.4102 15.9979C17.4452 15.8903 17.4452 15.7743 17.4102 15.6667C17.3752 15.559 17.307 15.4652 17.2155 15.3987L16.4172 14.8184C16.3257 14.7519 16.2575 14.6581 16.2225 14.5504C16.1875 14.4428 16.1875 14.3268 16.2225 14.2192C16.2575 14.1115 16.3256 14.0177 16.4172 13.9512C16.5088 13.8846 16.619 13.8488 16.7322 13.8488H17.7193C17.8325 13.8488 17.9427 13.813 18.0343 13.7464C18.1259 13.6799 18.1941 13.5861 18.2291 13.4785L18.5341 12.5397C18.5691 12.432 18.6372 12.3382 18.7288 12.2717C18.8204 12.2052 18.9307 12.1693 19.0439 12.1693C19.1571 12.1693 19.2673 12.2052 19.3589 12.2717C19.4505 12.3382 19.5187 12.432 19.5536 12.5397L19.8587 13.4785C19.8937 13.5861 19.9619 13.6799 20.0535 13.7464C20.145 13.8129 20.2553 13.8487 20.3685 13.8488H21.3556C21.4688 13.8488 21.5791 13.8846 21.6706 13.9512C21.7622 14.0177 21.8303 14.1115 21.8653 14.2192C21.9003 14.3268 21.9003 14.4428 21.8653 14.5504C21.8304 14.6581 21.7622 14.7519 21.6707 14.8184ZM28.2649 13.1073C28.2762 13.7555 28.1176 14.3953 27.8047 14.9631C27.4919 15.5309 27.0358 16.0068 26.4818 16.3435C26.2137 16.4971 25.9267 16.6152 25.6282 16.6948C25.8675 15.9841 25.9899 15.2392 25.9904 14.4893V11.6318H27.8855C27.9861 11.6319 28.0825 11.6719 28.1537 11.743C28.2248 11.8141 28.2648 11.9106 28.2649 12.0112V13.1073Z" fill="white"/>
</g>
</g>
<defs>
<filter id="filter0_i_862_102" x="0" y="0" width="39" height="43" filterUnits="userSpaceOnUse" color-interpolation-filters="sRGB">
<feFlood flood-opacity="0" result="BackgroundImageFix"/>
<feBlend mode="normal" in="SourceGraphic" in2="BackgroundImageFix" result="shape"/>
<feColorMatrix in="SourceAlpha" type="matrix" values="0 0 0 0 0 0 0 0 0 0 0 0 0 0 0 0 0 0 127 0" result="hardAlpha"/>
<feOffset dy="4"/>
<feGaussianBlur stdDeviation="35"/>
<feComposite in2="hardAlpha" operator="arithmetic" k2="-1" k3="1"/>
<feColorMatrix type="matrix" values="0 0 0 0 0 0 0 0 0 0 0 0 0 0 0 0 0 0 0.25 0"/>
<feBlend mode="normal" in2="shape" result="effect1_innerShadow_862_102"/>
</filter>
<clipPath id="clip0_862_102">
<rect width="39" height="39" rx="19.5" fill="white"/>
</clipPath>
</defs>
</svg>
