<svg width="165" height="181" viewBox="0 0 165 181" fill="none" xmlns="http://www.w3.org/2000/svg">
<g clip-path="url(#clip0_1238_176)">
<path d="M80.4764 95.3883C93.5464 95.3883 104.142 88.2238 104.142 79.386C104.142 70.5482 93.5464 63.3838 80.4764 63.3838C67.4064 63.3838 56.811 70.5482 56.811 79.386C56.811 88.2238 67.4064 95.3883 80.4764 95.3883Z" fill="#E8DED0"/>
<path d="M22.9195 118.324C22.4181 118.161 21.9906 117.91 21.6819 117.598C21.3732 117.285 21.1946 116.922 21.1648 116.547L20.8206 112.14C20.7781 111.586 21.0625 111.043 21.6114 110.63C22.1603 110.218 22.9288 109.969 23.7482 109.939L78.0673 107.999C78.8868 107.97 79.6897 108.163 80.2998 108.534C80.91 108.905 81.2774 109.424 81.3216 109.978L81.6659 114.385C81.7083 114.94 81.4238 115.482 80.875 115.895C80.3261 116.308 79.5577 116.556 78.7383 116.586L24.4192 118.526C23.902 118.545 23.3862 118.476 22.9195 118.324Z" fill="#E8DED0"/>
<path d="M60.3648 118.41C59.8363 118.238 59.3911 117.967 59.0808 117.63C58.7705 117.293 58.6079 116.904 58.6117 116.507L58.5474 108.209C58.5503 107.934 58.6334 107.662 58.7919 107.409C58.9504 107.156 59.1812 106.926 59.471 106.733C59.7609 106.54 60.1041 106.388 60.4811 106.285C60.8582 106.182 61.2616 106.13 61.6683 106.132L86.4487 107.609C87.1046 107.612 87.9327 108.299 88.5984 108.851C88.8071 109.024 88.9875 109.173 89.1193 109.264C89.1771 109.303 89.2321 109.345 89.2844 109.387C89.7578 109.768 90.0143 110.251 90.0076 110.749L89.9534 115.162C89.9456 115.717 89.6126 116.247 89.0275 116.636C88.4424 117.025 87.6529 117.241 86.8323 117.237L61.7005 118.617C61.2382 118.616 60.7819 118.545 60.3648 118.41Z" fill="#2F2E41"/>
<path d="M75.8628 181H69.3365C68.5158 180.999 67.7291 180.778 67.1488 180.386C66.5685 179.994 66.2421 179.462 66.2412 178.907V141.528C66.2421 140.973 66.5685 140.441 67.1488 140.048C67.7291 139.656 68.5158 139.435 69.3365 139.435H75.8628C76.6835 139.435 77.4702 139.656 78.0505 140.048C78.6308 140.441 78.9572 140.973 78.9581 141.528V178.907C78.9572 179.462 78.6308 179.994 78.0505 180.386C77.4702 180.778 76.6835 180.999 75.8628 181Z" fill="#E8DED0"/>
<path d="M93.0777 181H86.5513C85.7307 180.999 84.9439 180.778 84.3636 180.386C83.7833 179.994 83.457 179.462 83.4561 178.907V141.528C83.457 140.973 83.7834 140.441 84.3637 140.048C84.9439 139.656 85.7307 139.435 86.5513 139.435H93.0777C93.8983 139.435 94.6851 139.656 95.2654 140.048C95.8456 140.441 96.172 140.973 96.173 141.528V178.907C96.172 179.462 95.8456 179.994 95.2654 180.386C94.6851 180.778 93.8983 180.999 93.0777 181Z" fill="#E8DED0"/>
<path d="M83.6267 85.3167L83.6514 84.7187C82.0061 84.6878 80.5556 84.618 79.4657 84.0796C79.1567 83.9182 78.9027 83.7138 78.721 83.4802C78.5393 83.2465 78.4342 82.9892 78.4127 82.7256C78.3936 82.5646 78.4296 82.4027 78.518 82.2526C78.6064 82.1025 78.7448 81.9682 78.9225 81.8601C79.646 81.447 80.8102 81.5807 81.6587 81.8438L82.3905 82.0707L80.9872 75.1367L80.1111 75.2179L81.3046 81.1161C80.8161 80.9936 80.2899 80.9557 79.7741 81.0058C79.2583 81.056 78.7693 81.1927 78.3516 81.4035C78.0707 81.5693 77.8502 81.7769 77.7075 82.0099C77.5648 82.2429 77.5037 82.495 77.529 82.7466C77.5548 83.1008 77.6948 83.4468 77.9393 83.7605C78.1837 84.0742 78.5267 84.3479 78.9441 84.5625C80.3444 85.2545 82.1644 85.289 83.6267 85.3167Z" fill="#2F2E41"/>
<path d="M75.7776 75.7266H71.0146V76.3246H75.7776V75.7266Z" fill="#2F2E41"/>
<path d="M90.8118 75.7266H86.0488V76.3246H90.8118V75.7266Z" fill="#2F2E41"/>
<path d="M107.438 132.678L85.5948 103.224H85.9028C86.6648 103.224 87.3954 103.019 87.9342 102.654C88.473 102.29 88.7761 101.796 88.777 101.281V100.683C88.7761 100.168 88.473 99.6735 87.9342 99.3092C87.3954 98.9448 86.6648 98.7398 85.9028 98.7393H76.1747C75.4127 98.7398 74.6821 98.9448 74.1433 99.3092C73.6045 99.6735 73.3014 100.168 73.3005 100.683V101.281C73.3027 101.756 73.5631 102.214 74.032 102.569C74.501 102.923 75.146 103.148 75.8445 103.202L53.9385 132.694C52.8967 134.096 52.403 135.656 52.5041 137.224C52.6053 138.792 53.2982 140.316 54.5167 141.652C55.7352 142.988 57.4389 144.091 59.4658 144.856C61.4926 145.621 63.7752 146.022 66.0964 146.022H95.2569C97.5811 146.022 99.8666 145.62 101.896 144.855C103.926 144.089 105.632 142.985 106.853 141.648C108.073 140.31 108.768 138.784 108.87 137.214C108.973 135.644 108.48 134.082 107.438 132.678Z" fill="#2F2E41"/>
<path d="M81.4986 109.89L130.77 94.3068C131.514 94.0722 132.365 94.0467 133.136 94.2359C133.908 94.425 134.537 94.8134 134.885 95.3158L137.65 99.3131C137.997 99.816 138.035 100.391 137.755 100.913C137.475 101.435 136.901 101.86 136.158 102.096L86.8865 117.679C86.1428 117.914 85.2919 117.94 84.5204 117.75C83.7489 117.561 83.1199 117.173 82.7715 116.67L80.0064 112.673C79.8333 112.424 79.7349 112.155 79.7169 111.88C79.6989 111.606 79.7617 111.331 79.9015 111.073C80.0108 110.868 80.1664 110.676 80.3628 110.504C80.6634 110.241 81.0529 110.031 81.4986 109.89Z" fill="#E8DED0"/>
<path d="M79.8089 109.794L101.501 101.051C102.241 100.811 103.091 100.779 103.865 100.962C104.639 101.146 105.274 101.529 105.631 102.028L111.101 109.46C111.278 109.708 111.381 109.978 111.403 110.254C111.425 110.529 111.366 110.805 111.23 111.065C111.094 111.325 110.883 111.564 110.61 111.769C110.337 111.974 110.006 112.14 109.637 112.258L86.4649 118.311C85.858 118.508 84.6668 118.139 83.7095 117.842C83.4094 117.749 83.1501 117.668 82.973 117.626C82.895 117.608 82.8188 117.587 82.7445 117.565C82.071 117.364 81.5258 117.007 81.2072 116.558L78.3784 112.581C78.1296 112.231 78.0296 111.84 78.0898 111.453C78.15 111.066 78.3679 110.699 78.7192 110.391C79.0085 110.137 79.3817 109.933 79.8089 109.794Z" fill="#2F2E41"/>
<path d="M61.7849 71.0628C61.4683 71.0621 61.1649 70.9767 60.9412 70.8253C60.7174 70.6738 60.5913 70.4687 60.5905 70.2546C60.589 70.191 60.5996 70.1275 60.6219 70.0657L66.8074 51.6425C66.8543 51.5038 66.9541 51.3758 67.0971 51.2713C67.2401 51.1669 67.4211 51.0897 67.6221 51.0474C67.8231 51.0051 68.0369 50.9993 68.2422 51.0305C68.4476 51.0616 68.6373 51.1287 68.7922 51.225L89.299 64.0657C89.4533 64.1624 89.5672 64.2848 89.6295 64.4207C89.6919 64.5566 89.7004 64.7011 89.6542 64.8399C89.6081 64.9787 89.5089 65.1069 89.3665 65.2116C89.2241 65.3163 89.0436 65.394 88.843 65.4367L62.1444 71.0263C62.0279 71.0504 61.9067 71.0627 61.7849 71.0628Z" fill="#3F3D56"/>
<path d="M78.5579 57.5951L65.6768 55.8618L65.8795 55.2568L77.2673 56.7877L78.5579 57.5951Z" fill="white"/>
<path d="M88.7005 63.9481L64.0723 60.6343L64.275 60.0264L87.4094 63.1374L88.7005 63.9481Z" fill="white"/>
<path d="M79.8901 67.1153L78.0415 67.5017L62.4727 65.4068L62.6753 64.7988L79.8901 67.1153Z" fill="white"/>
<path d="M139.939 71.3449C142.086 71.3449 143.827 70.168 143.827 68.7164C143.827 67.2647 142.086 66.0879 139.939 66.0879C137.793 66.0879 136.052 67.2647 136.052 68.7164C136.052 70.168 137.793 71.3449 139.939 71.3449Z" fill="#E8DED0"/>
<path d="M89.9611 3.75498C91.4946 3.75498 92.7377 2.9144 92.7377 1.87749C92.7377 0.84058 91.4946 0 89.9611 0C88.4277 0 87.1846 0.84058 87.1846 1.87749C87.1846 2.9144 88.4277 3.75498 89.9611 3.75498Z" fill="#FF6584"/>
<path d="M29.4319 61.9571C30.9653 61.9571 32.2084 61.1165 32.2084 60.0796C32.2084 59.0427 30.9653 58.2021 29.4319 58.2021C27.8984 58.2021 26.6553 59.0427 26.6553 60.0796C26.6553 61.1165 27.8984 61.9571 29.4319 61.9571Z" fill="#FF6584"/>
<path d="M126.612 55.5733C128.145 55.5733 129.389 54.7328 129.389 53.6958C129.389 52.6589 128.145 51.8184 126.612 51.8184C125.079 51.8184 123.835 52.6589 123.835 53.6958C123.835 54.7328 125.079 55.5733 126.612 55.5733Z" fill="#E8DED0"/>
<path d="M42.2038 81.1075C43.7373 81.1075 44.9804 80.2669 44.9804 79.23C44.9804 78.1931 43.7373 77.3525 42.2038 77.3525C40.6704 77.3525 39.4272 78.1931 39.4272 79.23C39.4272 80.2669 40.6704 81.1075 42.2038 81.1075Z" fill="#E8DED0"/>
<path d="M129.944 86.3644C131.477 86.3644 132.72 85.5238 132.72 84.4869C132.72 83.45 131.477 82.6094 129.944 82.6094C128.41 82.6094 127.167 83.45 127.167 84.4869C127.167 85.5238 128.41 86.3644 129.944 86.3644Z" fill="#E6E6E6"/>
<path d="M105.51 19.5255C107.043 19.5255 108.287 18.6849 108.287 17.648C108.287 16.6111 107.043 15.7705 105.51 15.7705C103.977 15.7705 102.733 16.6111 102.733 17.648C102.733 18.6849 103.977 19.5255 105.51 19.5255Z" fill="#CCCCCC"/>
<path d="M0.564616 40.1698C3.47198 40.2937 6.29454 40.8817 8.80095 41.8856C11.3074 42.8895 13.4263 44.2807 14.9839 45.9453C15.4205 46.4172 15.9903 46.9358 15.6881 47.5166C15.5829 47.7393 15.369 47.9313 15.0814 48.0611C14.7939 48.191 14.4497 48.251 14.1051 48.2315C13.6755 48.169 13.2883 48.0126 13.0031 47.7865C12.718 47.5604 12.5508 47.2772 12.5273 46.9804C12.5037 46.6837 12.6253 46.39 12.8731 46.1446C13.1209 45.8992 13.4812 45.7157 13.8984 45.6225C15.9149 45.0409 17.9493 45.9398 19.5918 46.6571C23.3344 48.2917 27.4509 49.7699 31.9859 49.9562C36.1818 50.1285 40.6812 49.016 43.0151 46.5556C43.4234 46.1252 42.4096 45.7274 42.0033 46.1557C39.6887 48.5958 35.0096 49.4722 30.9412 49.0951C28.5167 48.8364 26.1756 48.2989 24.0193 47.506C22.9011 47.1136 21.8165 46.6786 20.7539 46.2213C19.7428 45.7442 18.671 45.3288 17.5512 44.9798C15.6836 44.4611 13.2113 44.5016 11.9068 45.6959C10.6898 46.8102 11.6304 48.6652 13.6659 48.9784C14.1124 49.0379 14.5738 49.0216 15.0087 48.9309C15.4436 48.8402 15.8384 48.6779 16.1577 48.4586C16.477 48.2393 16.7109 47.9699 16.8383 47.6745C16.9658 47.379 16.9828 47.0668 16.8879 46.7658C16.6848 46.1097 15.9541 45.4676 15.3885 44.9313C13.6892 43.3148 11.4752 41.9767 8.90968 41.0156C6.34416 40.0544 3.49242 39.4946 0.564548 39.3775C-0.189165 39.3523 -0.187132 40.1447 0.564616 40.1698Z" fill="#CCCCCC"/>
<path d="M164.778 64.1525C162.829 63.3045 161.206 62.1563 160.041 60.8022C158.876 59.448 158.202 57.9264 158.074 56.3621C158.042 55.9199 157.943 55.4104 158.486 55.0863C158.687 54.9592 158.945 54.8819 159.219 54.8671C159.494 54.8523 159.767 54.9008 159.995 55.0047C160.258 55.1607 160.437 55.3708 160.505 55.6026C160.574 55.8343 160.528 56.0749 160.374 56.2871C160.22 56.4993 159.967 56.6715 159.654 56.7769C159.342 56.8824 158.986 56.9154 158.643 56.8708C156.909 56.7462 156.012 55.5887 155.282 54.66C153.62 52.5438 151.608 50.4382 148.566 49.1202C145.75 47.9007 141.988 47.494 138.957 48.591C138.426 48.7829 138.902 49.3249 139.43 49.1339C142.436 48.0459 146.188 48.6637 148.798 49.992C150.333 50.8072 151.651 51.794 152.694 52.9099C153.246 53.4755 153.749 54.0619 154.225 54.658C154.654 55.2544 155.16 55.8238 155.738 56.3597C156.737 57.2094 158.478 57.8293 160.068 57.3418C160.423 57.2177 160.729 57.0394 160.964 56.8209C161.198 56.6024 161.353 56.3499 161.417 56.0836C161.481 55.8173 161.453 55.5445 161.333 55.2871C161.213 55.0296 161.006 54.7947 160.728 54.601C160.452 54.4427 160.123 54.3331 159.769 54.2821C159.414 54.2311 159.047 54.2403 158.7 54.3089C158.352 54.3775 158.035 54.5033 157.778 54.6751C157.52 54.8469 157.329 55.0593 157.222 55.2932C157.059 55.8431 157.055 56.4094 157.212 56.9603C157.465 58.5283 158.236 60.0379 159.467 61.3779C160.698 62.7178 162.357 63.8541 164.323 64.7028C164.832 64.9179 165.285 64.367 164.778 64.1525Z" fill="#CCCCCC"/>
<path d="M68.9655 12.1684C66.6531 12.0699 64.4082 11.6022 62.4147 10.8038C60.4213 10.0053 58.736 8.8988 57.4971 7.57489C57.1499 7.19958 56.6967 6.78714 56.937 6.32518C57.0208 6.14805 57.1909 5.99536 57.4196 5.89208C57.6483 5.7888 57.922 5.74103 58.1961 5.75659C58.5377 5.80633 58.8458 5.93069 59.0725 6.11051C59.2993 6.29033 59.4323 6.51562 59.451 6.75161C59.4697 6.98761 59.3731 7.22121 59.176 7.41639C58.9789 7.61157 58.6923 7.75747 58.3605 7.83161C56.7567 8.29419 55.1386 7.5793 53.8323 7.00876C50.8556 5.70872 47.5815 4.53302 43.9746 4.38487C40.6374 4.24781 37.0588 5.13259 35.2026 7.08948C34.8778 7.43184 35.6842 7.7482 36.0073 7.40753C37.8482 5.46678 41.5697 4.76975 44.8055 5.06972C46.7338 5.27548 48.5958 5.70293 50.3108 6.33357C51.2002 6.64567 52.0628 6.99165 52.9079 7.35535C53.7121 7.7348 54.5646 8.06524 55.4552 8.34277C56.9406 8.75535 58.9069 8.72312 59.9444 7.77321C60.1645 7.54811 60.3036 7.29132 60.3507 7.02337C60.3978 6.75541 60.3515 6.48372 60.2155 6.23002C60.0796 5.97632 59.8577 5.74765 59.5677 5.56229C59.2777 5.37693 58.9276 5.24001 58.5454 5.1625C58.1903 5.11516 57.8233 5.12815 57.4774 5.2003C57.1315 5.27246 56.8175 5.40152 56.5635 5.57593C56.3095 5.75034 56.1235 5.96463 56.0222 6.19961C55.9208 6.43458 55.9073 6.68289 55.9828 6.92228C56.2363 7.45644 56.6413 7.95206 57.1753 8.38139C58.5269 9.66704 60.2878 10.7313 62.3282 11.4958C64.3687 12.2602 66.6368 12.7054 68.9655 12.7985C69.565 12.8186 69.5634 12.1884 68.9655 12.1684Z" fill="#CCCCCC"/>
<path d="M71.0803 32.1318H68.3037V38.3007H71.0803V32.1318Z" fill="#CCCCCC"/>
<path d="M26.187 27.8273L28.1167 26.5225L21.7764 22.2352L19.8468 23.54L26.187 27.8273Z" fill="#B3B3B3"/>
<path d="M104.254 40.7909L106.184 42.0957L112.524 37.8085L110.595 36.5037L104.254 40.7909Z" fill="#B3B3B3"/>
<path d="M25.3999 94.1112L27.3296 95.416L33.6699 91.1288L31.7402 89.824L25.3999 94.1112Z" fill="#FF6584"/>
</g>
<defs>
<clipPath id="clip0_1238_176">
<rect width="165" height="181" fill="white"/>
</clipPath>
</defs>
</svg>
