<svg width="243" height="225" viewBox="0 0 243 225" fill="none" xmlns="http://www.w3.org/2000/svg">
<g clip-path="url(#clip0_17_3291)">
<path d="M190.365 176.662C190.833 176.832 191.34 176.875 191.832 176.786C192.324 176.698 192.782 176.482 193.159 176.161L197.581 172.386C198.136 171.911 198.477 171.239 198.527 170.519C198.577 169.799 198.333 169.088 197.849 168.543L165.706 132.47C165.221 131.927 164.534 131.594 163.798 131.544C163.062 131.495 162.336 131.734 161.78 132.208L157.358 135.983C156.802 136.458 156.462 137.129 156.412 137.85C156.361 138.57 156.605 139.281 157.09 139.825L189.233 175.898C189.538 176.242 189.928 176.505 190.365 176.662Z" fill="#FEE4C0"/>
<path d="M146.187 136.968C146.476 136.967 146.764 136.923 147.039 136.837C147.388 136.729 147.711 136.554 147.99 136.323C148.269 136.093 148.499 135.81 148.666 135.491L151.355 130.387C151.692 129.745 151.755 128.998 151.531 128.31C151.306 127.622 150.812 127.05 150.156 126.718L106.69 104.784C106.034 104.454 105.271 104.392 104.568 104.612C103.865 104.832 103.28 105.316 102.941 105.957L100.253 111.061C99.9153 111.703 99.852 112.45 100.077 113.138C100.301 113.826 100.795 114.399 101.451 114.73L144.917 136.664C145.31 136.863 145.745 136.967 146.187 136.968Z" fill="#FEE4C0"/>
<path d="M146.971 138.203C147.488 138.203 147.995 138.062 148.435 137.796C148.875 137.531 149.231 137.151 149.464 136.698L152.096 131.566C152.394 130.987 152.47 130.324 152.312 129.695C152.294 129.625 152.274 129.556 152.251 129.487C152.198 129.33 152.14 129.085 152.073 128.802C151.859 127.899 151.594 126.776 151.053 126.51L131.954 115.18C131.297 114.852 130.533 114.793 129.832 115.016C129.13 115.239 128.548 115.726 128.213 116.369L128.205 116.384L123.387 126.104C123.057 126.749 123.003 127.497 123.235 128.181C123.468 128.866 123.968 129.433 124.627 129.758L145.744 137.918C146.125 138.105 146.545 138.203 146.971 138.203Z" fill="#151414"/>
<path d="M154.899 113.013C166.65 113.013 176.175 103.689 176.175 92.1885C176.175 80.6876 166.65 71.3643 154.899 71.3643C143.149 71.3643 133.623 80.6876 133.623 92.1885C133.623 103.689 143.149 113.013 154.899 113.013Z" fill="#FEE4C0"/>
<path d="M159.046 224.422H164.914C165.652 224.421 166.359 224.134 166.881 223.623C167.402 223.113 167.696 222.42 167.697 221.698V173.056C167.696 172.334 167.402 171.641 166.881 171.131C166.359 170.62 165.652 170.333 164.914 170.332H159.046C158.309 170.333 157.601 170.62 157.08 171.131C156.558 171.641 156.264 172.334 156.264 173.056V221.698C156.264 222.42 156.558 223.113 157.08 223.623C157.601 224.134 158.309 224.421 159.046 224.422Z" fill="#FEE4C0"/>
<path d="M133.766 201.783C134.209 201.784 134.646 201.681 135.04 201.483C135.435 201.285 135.775 200.997 136.033 200.644L164.477 161.709C164.905 161.121 165.078 160.391 164.957 159.678C164.836 158.966 164.431 158.329 163.832 157.909L159.059 154.569C158.458 154.149 157.712 153.98 156.984 154.098C156.256 154.217 155.606 154.613 155.176 155.2L126.733 194.135C126.304 194.723 126.132 195.454 126.253 196.166C126.374 196.878 126.778 197.515 127.378 197.935L132.151 201.276C132.622 201.606 133.187 201.783 133.766 201.783Z" fill="#B0AEAE"/>
<path d="M141.311 223.699C141.896 223.689 142.471 223.548 142.992 223.287L148.245 220.728C149.618 220.058 150.375 218.804 149.932 217.933L136.394 191.319C135.951 190.448 134.473 190.283 133.099 190.952L127.847 193.512C127.234 193.796 126.714 194.239 126.341 194.793C126.179 195.008 126.077 195.261 126.045 195.526C126.014 195.791 126.053 196.06 126.159 196.306L139.697 222.92C139.956 223.431 140.571 223.699 141.311 223.699Z" fill="#FEE4C0"/>
<path d="M166.847 153.085C167.343 153.262 167.88 153.298 168.396 153.189C168.912 153.08 169.385 152.83 169.762 152.468L177.722 144.992C177.982 144.741 178.19 144.443 178.332 144.113C178.475 143.784 178.55 143.43 178.553 143.073C178.556 142.715 178.487 142.36 178.35 142.029C178.213 141.697 178.01 141.396 177.754 141.141L177.752 141.138L160.833 126.822C160.42 126.41 159.246 126.51 158.303 126.589C158.007 126.614 157.751 126.635 157.582 126.634C157.508 126.633 157.434 126.636 157.361 126.641C156.701 126.687 156.079 126.963 155.608 127.418L151.43 131.45C150.906 131.958 150.608 132.648 150.603 133.37C150.597 134.092 150.885 134.787 151.402 135.302L165.814 152.428C166.105 152.719 166.458 152.943 166.847 153.085Z" fill="#151414"/>
<path d="M144.668 99.9068L144.69 99.1286C143.211 99.0883 141.907 98.9975 140.927 98.2968C140.649 98.0869 140.421 97.8208 140.257 97.5168C140.094 97.2127 139.999 96.8778 139.98 96.5348C139.963 96.3253 139.995 96.1146 140.075 95.9193C140.154 95.7239 140.279 95.5492 140.438 95.4086C141.089 94.8709 142.136 95.0449 142.898 95.3873L143.556 95.6825L142.295 86.6592L141.507 86.7648L142.58 94.4404C141.544 94.1421 140.583 94.2705 139.925 94.8143C139.673 95.0301 139.474 95.3002 139.346 95.6034C139.218 95.9066 139.163 96.2348 139.186 96.5622C139.209 97.023 139.335 97.4733 139.555 97.8816C139.774 98.2898 140.083 98.646 140.458 98.9253C141.717 99.8258 143.353 99.8707 144.668 99.9068Z" fill="#151414"/>
<path d="M137.611 87.4268H133.329V88.205H137.611V87.4268Z" fill="#151414"/>
<path d="M151.128 87.4268H146.846V88.205H151.128V87.4268Z" fill="#151414"/>
<path d="M125.48 195.089L148.689 129.617C147.94 128.626 147.437 126.832 147.436 124.775V123.034C147.438 119.91 148.594 117.378 150.02 117.374H158.766C160.193 117.378 161.349 119.91 161.35 123.034V124.775C161.349 127.04 160.74 128.988 159.863 129.893L171.645 173.513C171.874 173.897 171.995 174.334 171.995 174.778C171.996 175.223 171.877 175.66 171.65 176.045C171.423 176.43 171.096 176.749 170.702 176.971C170.308 177.193 169.861 177.308 169.407 177.307L127.718 198.883C127.264 198.883 126.819 198.766 126.426 198.544C126.033 198.322 125.707 198.003 125.48 197.618C125.253 197.234 125.134 196.798 125.134 196.354C125.134 195.91 125.253 195.474 125.48 195.089Z" fill="#151414"/>
<path d="M82.9236 113.666C78.8772 111.453 75.8831 107.771 74.5884 103.415C66.4017 106.526 57.568 107.653 48.8399 106.702C40.1119 105.75 31.7483 102.747 24.4618 97.9492C-0.463378 81.5373 -7.09957 48.3379 9.66853 23.942C26.4366 -0.453968 60.3569 -6.9486 85.2819 9.4629C110.145 25.8338 116.809 58.9091 100.2 83.2875C102.262 84.4053 104.078 85.9118 105.542 87.7201C107.007 89.5284 108.09 91.6027 108.731 93.8232C109.36 96.0215 109.541 98.3195 109.263 100.586C108.985 102.853 108.253 105.043 107.11 107.033C105.967 109.023 104.434 110.773 102.6 112.183C100.766 113.593 98.6661 114.636 96.4202 115.252C94.175 115.874 91.8262 116.054 89.5096 115.781C87.193 115.509 84.9545 114.79 82.9236 113.666Z" fill="white"/>
<path d="M84.9055 109.246C82.0766 107.512 80.0251 104.792 79.165 101.636C78.9978 101.051 78.7072 100.508 78.3121 100.041C77.917 99.5732 77.4261 99.192 76.8711 98.9218C76.3161 98.6516 75.7094 98.4983 75.0901 98.4719C74.4708 98.4454 73.8528 98.5464 73.2758 98.7683L73.0056 98.8723C61.9701 103.117 49.7459 103.35 38.5498 99.5296C27.3537 95.7092 17.927 88.0883 11.9793 78.0489C6.03159 68.0094 3.95666 56.2162 6.13077 44.8079C8.30489 33.3995 14.5841 23.1314 23.8297 15.8657C33.0753 8.59996 44.6751 4.81768 56.5255 5.20475C68.3759 5.59183 79.6922 10.1226 88.4223 17.9755C97.1524 25.8284 102.718 36.4834 104.11 48.0082C105.503 59.5331 102.629 71.1646 96.0106 80.7936L95.8495 81.0281C95.5034 81.5317 95.269 82.1007 95.1616 82.6985C95.0541 83.2962 95.0759 83.9093 95.2256 84.4983C95.3753 85.0872 95.6496 85.6389 96.0307 86.1177C96.4118 86.5964 96.8913 86.9916 97.4381 87.2777C99.0162 88.0863 100.412 89.1975 101.542 90.5452C102.672 91.8929 103.513 93.4494 104.015 95.1221C104.538 96.9485 104.632 98.8667 104.29 100.734C103.949 102.601 103.182 104.368 102.045 105.904C100.585 107.896 98.5535 109.418 96.2084 110.279C94.7407 110.823 93.1844 111.103 91.6149 111.104C89.246 111.103 86.9239 110.459 84.9055 109.246Z" fill="#F0F0F0"/>
<path d="M82.7233 114.014C82.1039 113.673 81.505 113.298 80.9295 112.889C74.7434 108.497 67.4446 106.462 60.379 107.159C47.6422 108.406 34.8599 105.266 24.2339 98.2808C-0.878016 81.7459 -7.56405 48.2976 9.32965 23.7191C26.2232 -0.85927 60.3974 -7.40347 85.5096 9.13154C95.9114 15.9996 103.6 26.1432 107.3 37.8782C110.999 49.6132 110.486 62.2336 105.847 73.6441C104.805 76.1533 104.376 78.8656 104.594 81.5656C104.811 84.2655 105.669 86.8786 107.098 89.1974C108.567 91.5308 109.464 94.1649 109.72 96.8939C109.976 99.6229 109.584 102.373 108.574 104.929C107.564 107.485 105.965 109.778 103.9 111.629C101.835 113.48 99.3605 114.838 96.6704 115.598C95.023 116.065 93.3167 116.303 91.6016 116.304C88.4906 116.298 85.4335 115.509 82.7233 114.014ZM10.3458 24.3883C3.9583 33.6814 0.773188 44.7296 1.2555 55.92C1.73781 67.1103 5.86229 77.8567 13.0268 86.5903C20.1912 95.3238 30.0205 101.587 41.0795 104.466C52.1385 107.344 63.8481 106.687 74.4986 102.591L75.1296 102.348L75.3123 102.987C76.5247 107.223 79.4065 110.813 83.3236 112.969C87.2408 115.125 91.8725 115.669 96.1999 114.483C100.527 113.296 104.196 110.476 106.398 106.642C108.601 102.808 109.157 98.2743 107.945 94.0389C107.324 91.8864 106.266 89.8782 104.836 88.1341C103.405 86.39 101.63 84.9457 99.617 83.8872L99.0196 83.5746L99.3976 83.024C107.337 71.4658 110.26 57.2947 107.526 43.627C104.791 29.9593 96.6228 17.9141 84.8163 10.1402C73.0098 2.36621 58.532 -0.499945 44.5668 2.17196C30.6016 4.84387 18.2923 12.8351 10.3458 24.3883Z" fill="#3F3D56"/>
<path d="M77.2574 59.9682C80.769 59.9682 83.6158 57.1819 83.6158 53.7449C83.6158 50.3078 80.769 47.5215 77.2574 47.5215C73.7457 47.5215 70.8989 50.3078 70.8989 53.7449C70.8989 57.1819 73.7457 59.9682 77.2574 59.9682Z" fill="#B0AEAE"/>
<path d="M55.564 59.9682C59.0757 59.9682 61.9225 57.1819 61.9225 53.7449C61.9225 50.3078 59.0757 47.5215 55.564 47.5215C52.0523 47.5215 49.2056 50.3078 49.2056 53.7449C49.2056 57.1819 52.0523 59.9682 55.564 59.9682Z" fill="#B0AEAE"/>
<path d="M33.8707 59.9682C37.3823 59.9682 40.2291 57.1819 40.2291 53.7449C40.2291 50.3078 37.3823 47.5215 33.8707 47.5215C30.359 47.5215 27.5122 50.3078 27.5122 53.7449C27.5122 57.1819 30.359 59.9682 33.8707 59.9682Z" fill="#B0AEAE"/>
<path d="M164.497 83.0884C163.824 81.6329 162.246 81.029 160.694 80.9647C158.702 80.8821 156.866 81.7202 155.063 82.4447C153.202 83.1928 151.296 83.8032 149.258 83.6493C147.449 83.5103 145.706 82.9202 144.196 81.9354C142.707 80.9869 141.509 79.6601 140.73 78.0969C139.951 76.5336 139.621 74.7927 139.775 73.06C140.101 69.615 142.158 66.3091 145.434 64.8514C147.297 64.032 149.362 63.7607 151.379 64.0706C153.396 64.3806 155.277 65.2583 156.793 66.5968L155.748 67.0206C155.313 62.7693 157.675 58.7258 160.989 56.1311C164.486 53.394 168.958 51.8117 173.342 51.1094C177.848 50.3352 182.48 50.6764 186.817 52.1019C190.427 53.36 193.718 55.3637 196.467 57.9769C199.323 60.6831 201.548 63.9614 202.989 67.5875C204.431 71.2135 205.054 75.1016 204.818 78.9856C204.565 83.0931 203.448 87.1052 201.537 90.7704C199.629 94.3545 197.019 97.5356 193.856 100.132C187.558 105.384 179.755 108.486 172.065 111.229C171.109 111.57 170.15 111.908 169.191 112.241C168.447 112.501 168.127 111.343 168.865 111.085C176.283 108.496 183.835 105.805 190.313 101.317C193.521 99.1479 196.313 96.4418 198.561 93.3233C200.843 90.0548 202.407 86.3581 203.154 82.4673C204.282 76.987 203.558 71.2961 201.09 66.2542C198.623 61.2124 194.546 57.0932 189.476 54.5189C185.812 52.7026 181.743 51.8075 177.637 51.9146C173.18 51.9935 168.802 53.0813 164.847 55.0927C161.182 56.9895 157.99 60.0257 157.115 64.1228C156.916 65.0759 156.868 66.0532 156.972 67.0206C157.028 67.5687 156.282 67.7688 155.927 67.4444C154.667 66.343 153.124 65.599 151.464 65.2923C149.805 64.9857 148.091 65.1281 146.508 65.7042C143.364 66.8447 141.276 69.9111 140.993 73.1291C140.849 74.7365 141.178 76.3506 141.941 77.7807C142.705 79.2108 143.871 80.3971 145.301 81.1995C146.734 82.0377 148.373 82.4792 150.043 82.4765C151.993 82.4585 153.788 81.6687 155.56 80.9562C157.453 80.1948 159.374 79.5603 161.445 79.8346C163.146 80.0598 164.818 80.8928 165.555 82.4835C165.877 83.1807 164.822 83.7908 164.497 83.0884Z" fill="#151414"/>
<path d="M59.3855 225H204.615C204.717 225 204.815 224.947 204.887 224.853C204.959 224.759 205 224.632 205 224.5C205 224.368 204.959 224.241 204.887 224.147C204.815 224.053 204.717 224 204.615 224H59.3855C59.2831 224 59.1851 224.053 59.1128 224.147C59.0406 224.241 59 224.368 59 224.5C59 224.632 59.0406 224.759 59.1128 224.853C59.1851 224.947 59.2831 225 59.3855 225Z" fill="#3F3D56"/>
</g>
<defs>
<clipPath id="clip0_17_3291">
<rect width="243" height="225" fill="white"/>
</clipPath>
</defs>
</svg>
