<svg width="230" height="174" viewBox="0 0 230 174" fill="none" xmlns="http://www.w3.org/2000/svg">
<g clip-path="url(#clip0_1354_66)">
<path opacity="0.4" d="M194.118 66.8971C197.162 66.8971 199.629 64.4136 199.629 61.3499C199.629 58.2863 197.162 55.8027 194.118 55.8027C191.074 55.8027 188.607 58.2863 188.607 61.3499C188.607 64.4136 191.074 66.8971 194.118 66.8971Z" fill="#151414"/>
<path opacity="0.4" d="M77.9217 36.3779C82.2605 36.3779 85.7779 32.8375 85.7779 28.4702C85.7779 24.1029 82.2605 20.5625 77.9217 20.5625C73.5828 20.5625 70.0654 24.1029 70.0654 28.4702C70.0654 32.8375 73.5828 36.3779 77.9217 36.3779Z" fill="#151414"/>
<path opacity="0.4" d="M63.3817 37.7936C66.4254 37.7936 68.8928 35.31 68.8928 32.2464C68.8928 29.1828 66.4254 26.6992 63.3817 26.6992C60.338 26.6992 57.8706 29.1828 57.8706 32.2464C57.8706 35.31 60.338 37.7936 63.3817 37.7936Z" fill="#151414"/>
<path d="M198.734 123.382C194.379 128.18 194.221 135.17 194.221 135.17C194.221 135.17 201.123 134.38 205.478 129.582C209.832 124.783 209.99 117.793 209.99 117.793C209.99 117.793 203.088 118.583 198.734 123.382Z" fill="#151414"/>
<path d="M201.194 124.761C199.876 131.123 194.337 135.343 194.337 135.343C194.337 135.343 190.935 129.247 192.253 122.885C193.57 116.522 199.109 112.303 199.109 112.303C199.109 112.303 202.512 118.399 201.194 124.761Z" fill="#151414"/>
<path d="M195.538 59.1113V134.956L170.421 155.842H41.9229V76.3323L79.4166 59.1113H195.538Z" fill="#151414"/>
<path opacity="0.1" d="M195.538 59.1113V59.4153L186.522 65.4903L170.421 76.3323H41.9229L79.4166 59.1113H195.538Z" fill="black"/>
<path opacity="0.1" d="M195.538 59.1113V134.956L170.421 155.842L170.603 76.1491L186.521 65.4903L195.393 59.1113H195.538Z" fill="black"/>
<path d="M161.685 69.5535H83.4209L89.2452 66.2559H164.233L161.685 69.5535Z" fill="#2F2E41"/>
<path d="M229.232 159.967C229.232 159.967 230.749 166.353 229.37 166.631C227.99 166.909 221.232 166.819 219.577 167.097C217.921 167.374 214.473 166.909 214.473 165.659C214.473 164.41 218.059 163.577 218.059 163.577C218.059 163.577 223.163 160.8 223.301 160.661C223.439 160.522 229.232 159.967 229.232 159.967Z" fill="#2F2E41"/>
<path d="M227.99 122.343C227.99 122.343 227.576 127.063 227.576 127.479C227.576 127.896 227.99 134.421 227.576 134.699C227.163 134.977 227.852 136.92 227.852 137.614C227.852 138.309 230.059 149.832 229.507 154.275C228.956 158.717 230.335 158.301 229.921 158.717C229.508 159.134 229.507 159.134 229.507 159.967C229.507 160.8 225.094 161.494 225.094 161.494L220.266 130.812L222.749 121.648L227.99 122.343Z" fill="#575A89"/>
<path opacity="0.1" d="M227.99 122.343C227.99 122.343 227.576 127.063 227.576 127.479C227.576 127.896 227.99 134.421 227.576 134.699C227.163 134.977 227.852 136.92 227.852 137.614C227.852 138.309 230.059 149.832 229.507 154.275C228.956 158.717 230.335 158.301 229.921 158.717C229.508 159.134 229.507 159.134 229.507 159.967C229.507 160.8 225.094 161.494 225.094 161.494L220.266 130.812L222.749 121.648L227.99 122.343Z" fill="black"/>
<path d="M227.301 161.909C227.301 161.909 228.68 166.907 227.301 167.185C225.922 167.462 219.163 166.867 217.508 167.144C215.853 167.422 212.404 167.462 212.404 166.213C212.404 164.963 215.991 164.13 215.991 164.13C215.991 164.13 221.094 161.354 221.232 161.215C221.37 161.076 227.301 161.909 227.301 161.909Z" fill="#2F2E41"/>
<path d="M229.232 116.789C229.232 116.789 230.887 120.815 228.956 122.898C227.025 124.98 224.818 129.145 224.818 129.423C224.818 129.701 228.68 157.329 228.128 159.134C227.576 160.938 227.714 162.049 227.852 162.327C227.99 162.604 226.473 164.132 224.818 164.132C223.163 164.132 220.68 162.882 220.404 161.771C220.128 160.661 220.818 151.081 220.68 149.276C220.542 147.472 219.852 144.834 219.576 144.278C219.301 143.723 217.783 143.168 217.507 141.502C217.232 139.836 215.025 118.594 215.714 117.9C216.404 117.206 229.232 116.789 229.232 116.789Z" fill="#575A89"/>
<path d="M218.749 84.8568C221.339 84.8568 223.438 82.7434 223.438 80.1364C223.438 77.5294 221.339 75.416 218.749 75.416C216.159 75.416 214.059 77.5294 214.059 80.1364C214.059 82.7434 216.159 84.8568 218.749 84.8568Z" fill="#FFB9B9"/>
<path d="M221.645 82.4963C221.645 82.4963 220.68 87.6332 221.369 88.1885C222.059 88.7439 216.128 89.5769 216.128 89.5769C216.128 89.5769 215.438 82.774 215.301 82.0798C215.163 81.3856 221.645 82.4963 221.645 82.4963Z" fill="#FFB9B9"/>
<path d="M215.301 89.1598C215.301 89.1598 216.956 84.3006 223.714 85.6889C223.714 85.6889 224.956 86.1054 224.542 86.5219C224.128 86.9384 223.714 86.9384 224.266 87.3549C224.818 87.7714 225.507 87.3549 225.094 87.7714C224.68 88.1879 228.818 90.687 228.542 95.4073C228.266 100.128 229.507 106.792 228.542 107.902C227.576 109.013 229.232 113.872 228.956 114.844C228.68 115.816 230.611 117.066 229.783 117.482C228.956 117.899 214.059 120.398 213.645 117.482C213.232 114.567 213.507 116.649 213.094 115.955C212.68 115.261 212.542 114.011 212.818 112.484C213.094 110.957 213.783 107.208 213.507 105.82C213.232 104.432 213.507 92.7695 214.335 91.3811C215.163 89.9928 215.301 89.1598 215.301 89.1598Z" fill="#151414"/>
<path d="M218.197 123.035C218.197 123.035 220.266 130.949 217.646 130.949C215.025 130.949 215.163 122.758 215.163 122.758L218.197 123.035Z" fill="#FFB9B9"/>
<path d="M216.68 80.1368C216.68 80.5394 217.259 80.7948 218.157 80.8531H218.158C218.539 80.8749 218.921 80.8675 219.3 80.8309C219.874 80.7782 220.111 81.321 220.209 82.0374C220.369 83.2189 220.146 84.8752 220.404 85.1348C220.76 85.493 223.354 85.1334 224.165 84.3212C224.291 84.2073 224.376 84.0536 224.404 83.8853C224.489 83.3893 224.732 82.9347 225.096 82.59C225.575 82.0638 226.256 81.4807 227.025 80.5533C228.404 78.8872 227.025 78.7484 226.611 77.4989C226.197 76.2494 225.507 75.8329 225.507 74.9999C225.507 74.1669 222.335 73.4727 219.714 73.6115C217.093 73.7504 217.645 77.0824 217.645 77.0824C217.645 77.0824 217.489 77.485 217.303 78.0043C217.051 78.6558 216.847 79.3249 216.691 80.0062C216.684 80.0495 216.681 80.0931 216.68 80.1368Z" fill="#2F2E41"/>
<path opacity="0.1" d="M217.232 91.2437C217.232 91.2437 221.921 90.966 222.335 97.9078C222.749 104.849 222.611 111.375 222.611 111.514C222.611 111.652 220.68 124.842 218.887 124.842C217.094 124.842 215.714 124.564 215.301 123.87C214.887 123.176 216.404 113.18 216.404 113.18C216.404 113.18 217.094 102.628 215.99 99.2961C214.887 95.9641 214.749 91.6602 217.232 91.2437Z" fill="black"/>
<path d="M216.542 90.5484C216.542 90.5484 221.232 90.2707 221.646 97.2125C222.059 104.154 221.921 110.679 221.921 110.818C221.921 110.957 219.99 124.146 218.197 124.146C216.404 124.146 215.025 123.869 214.611 123.175C214.197 122.48 215.714 112.484 215.714 112.484C215.714 112.484 216.404 101.933 215.301 98.6008C214.197 95.2688 214.059 90.9649 216.542 90.5484Z" fill="#151414"/>
<path d="M138.777 22.6852C138.777 22.6852 136.733 16.8566 135.257 18.6852C133.781 20.5138 137.528 23.5995 137.528 23.5995L138.777 22.6852Z" fill="#A0616A"/>
<path d="M148.428 16.9707L147.199 17.4293C147.199 17.4293 146.612 20.0564 146.839 20.5136C147.066 20.9707 147.179 20.6279 146.839 21.5422C146.498 22.4565 145.476 24.8565 145.363 25.1994C145.249 25.5422 138.777 23.0279 138.777 21.7708C138.777 21.7708 137.415 23.3708 136.733 23.7136C136.733 23.7136 144.227 29.1994 145.249 29.8851C146.271 30.5708 146.839 30.228 147.747 29.428C148.655 28.628 152.516 21.9993 152.516 21.9993L148.428 16.9707Z" fill="#575A89"/>
<path d="M145.136 57.5422C145.136 57.5422 145.249 58.7994 145.476 58.9137C145.704 59.028 147.407 61.8852 145.476 62.4566C143.546 63.028 142.411 62.7994 141.957 63.028C141.502 63.2566 133.554 63.7137 133.441 62.4566C133.327 61.1994 137.301 60.9708 137.301 60.9708C137.301 60.9708 140.935 58.5708 141.502 57.3137C142.07 56.0565 145.136 57.5422 145.136 57.5422Z" fill="#2F2E41"/>
<path d="M168.185 59.8281C168.185 59.8281 170.91 64.5139 170.229 65.0853C169.548 65.6568 162.913 67.7392 161.94 67.8282C160.691 67.9425 159.783 66.9139 160.805 66.3425C161.827 65.771 163.984 63.371 163.984 62.571V60.5138L168.185 59.8281Z" fill="#2F2E41"/>
<path d="M170.796 29.1992C170.796 29.1992 173.181 32.1707 169.434 36.9707L163.189 44.9708C163.189 44.9708 167.049 51.1423 167.163 54.3423C167.276 57.5424 168.071 56.8566 168.298 58.2281C168.525 59.5995 169.547 58.9138 168.752 59.9424C167.958 60.971 165.005 61.8853 164.097 61.0853C163.785 60.7976 163.541 60.4426 163.383 60.0469C163.226 59.6511 163.16 59.2248 163.189 58.7995C163.189 58.3424 161.599 55.7138 161.486 54.9138C161.372 54.1138 157.171 47.5994 157.171 47.5994C157.171 47.5994 155.808 43.7137 157.398 41.5422C158.988 39.3708 160.038 36.291 160.038 36.291C160.038 36.291 155.354 41.9994 152.062 43.3708C152.062 43.3708 150.813 43.5994 151.04 44.1708C151.267 44.7422 151.04 45.0851 150.699 45.6565C150.358 46.228 147.974 52.8566 147.179 54.5709C146.384 56.2852 146.725 57.3138 145.817 57.8852C144.908 58.4567 140.821 57.9995 140.821 57.4281C140.821 56.8567 141.389 55.3709 141.729 54.5709C142.07 53.7709 144.795 44.5137 144.568 42.9137C144.341 41.3136 144.681 39.1422 146.384 38.2279C148.088 37.3136 156.717 29.8849 157.171 29.8849C157.625 29.8849 170.796 29.1992 170.796 29.1992Z" fill="#2F2E41"/>
<path d="M147.974 11.2563C150.608 11.2563 152.743 9.10729 152.743 6.4563C152.743 3.80531 150.608 1.65625 147.974 1.65625C145.341 1.65625 143.206 3.80531 143.206 6.4563C143.206 9.10729 145.341 11.2563 147.974 11.2563Z" fill="#A0616A"/>
<path d="M151.835 6.91406C151.835 6.91406 153.311 9.54266 155.127 9.88553C156.944 10.2284 150.358 15.4856 150.358 15.4856C150.358 15.4856 148.769 10.457 147.406 10.2284C146.044 9.99982 151.835 6.91406 151.835 6.91406Z" fill="#A0616A"/>
<path d="M147.179 17.6572C147.179 19.1429 151.607 23.3715 151.607 23.3715L155.808 26.9144C155.808 26.9144 155.922 28.1715 156.376 28.2858C156.83 28.4001 157.398 28.4001 156.944 29.0858C156.49 29.7716 155.354 31.2573 156.376 31.4859C156.684 31.533 156.995 31.5628 157.306 31.575C157.579 31.591 157.899 31.6059 158.259 31.6196C159.099 31.6493 160.15 31.6687 161.289 31.6607C161.613 31.6596 161.942 31.6558 162.277 31.6493C166.57 31.5636 171.543 31.0664 171.137 29.4287C170.456 26.6858 170.91 25.7715 169.434 24.2858C167.958 22.8001 165.573 17.6572 165.573 17.6572C165.573 17.6572 160.804 9.54278 156.83 9.54278L156.005 9.32449C155.621 9.22279 155.216 9.2451 154.845 9.38827C154.475 9.53143 154.159 9.7882 153.942 10.1222C153.145 11.3439 151.888 13.1794 151.153 13.7714C150.018 14.6857 149.841 14.0297 149.841 14.0297C149.841 14.0297 147.179 16.1714 147.179 17.6572Z" fill="#575A89"/>
<path d="M157.285 35.0273C157.285 35.0273 153.992 40.1703 156.036 41.0845C158.08 41.9988 159.215 35.7131 159.215 35.7131L157.285 35.0273Z" fill="#A0616A"/>
<path d="M151.092 5.91401C150.909 5.89077 150.851 5.65832 150.82 5.47524C150.655 4.49486 149.929 3.56519 148.954 3.40693C148.581 3.35702 148.202 3.38776 147.842 3.49712C147.326 3.63957 146.842 3.87943 146.415 4.20393C146.207 4.39604 145.965 4.54868 145.702 4.65453C145.523 4.70742 144.764 5.04743 144.586 5.10496C144.196 5.23144 143.873 5.64265 143.471 5.56123C143.086 5.48334 142.94 5.0159 142.878 4.62597C142.738 3.73764 143.243 2.41217 143.745 1.66809C144.126 1.10344 144.771 0.778474 145.416 0.567062C146.171 0.336239 146.948 0.180987 147.733 0.10356C148.794 -0.0225338 149.893 -0.0894334 150.909 0.240589C151.926 0.570611 152.851 1.37792 153.041 2.43591C153.081 2.6563 153.088 2.88204 153.137 3.10062C153.255 3.63384 153.605 4.08204 153.81 4.58812C153.957 4.9598 154.026 5.35847 154.011 5.75842C153.996 6.15837 153.898 6.55073 153.723 6.91019C153.44 7.4833 152.947 8.03402 153.054 8.66508L152.178 7.96966C152.051 7.89724 151.953 7.78331 151.9 7.64687C151.846 7.51043 151.841 7.35975 151.885 7.21996L152.012 6.11566C152.057 5.91559 152.037 5.70661 151.956 5.5186C151.566 4.83385 151.397 5.95277 151.092 5.91401Z" fill="#2F2E41"/>
<path opacity="0.1" d="M159.328 27.1418L158.259 31.6184C159.337 31.6573 160.765 31.6778 162.277 31.6481C162.659 30.4961 163.023 29.295 163.302 28.1704C164.324 24.0561 162.621 17.7703 161.713 14.7988C160.804 11.8274 158.534 11.0273 158.534 11.0273C157.603 11.3569 156.723 11.8187 155.922 12.3988C154.446 13.4274 159.328 27.1418 159.328 27.1418Z" fill="black"/>
<path opacity="0.1" d="M158.42 26.9137L157.306 31.5744C157.579 31.5904 157.899 31.6052 158.259 31.6189C159.099 31.6486 160.15 31.6681 161.289 31.6601C161.699 30.4361 162.095 29.1446 162.394 27.9423C163.416 23.828 161.713 17.5422 160.804 14.5708C159.896 11.5993 157.909 14.8565 157.909 14.8565C157.909 14.8565 158.704 12.9136 157.228 13.9422C155.752 14.9707 158.42 26.9137 158.42 26.9137Z" fill="black"/>
<path d="M158.079 10.7988C158.079 10.7988 160.35 11.5988 161.259 14.5703C162.167 17.5418 163.87 23.8275 162.848 27.9419C161.826 32.0562 159.669 37.1991 159.669 37.1991C159.669 37.1991 157.512 35.5991 156.717 35.9419L158.874 26.9133C158.874 26.9133 153.992 13.1989 155.468 12.1703C156.269 11.5902 157.148 11.1284 158.079 10.7988Z" fill="#575A89"/>
<path d="M159.772 68.1247L128.358 2.23438L75.832 27.6057L95.1499 68.1247H159.772Z" fill="#F2F2F2"/>
<path d="M117.728 28.0966L89.8296 41.5723L90.6606 43.3152L118.559 29.8396L117.728 28.0966Z" fill="#151414"/>
<path d="M125.114 43.5908L97.2158 57.0664L98.0468 58.8094L125.945 45.3337L125.114 43.5908Z" fill="#151414"/>
<path d="M130.188 18.9825L123.262 22.3281L126.586 29.3L133.512 25.9544L130.188 18.9825Z" fill="#151414"/>
<path d="M137.575 34.4746L130.648 37.8203L133.972 44.7922L140.899 41.4465L137.575 34.4746Z" fill="#151414"/>
<path d="M130.666 14.1523L127.813 22.3217L123.968 20.9613L123.441 22.4683L128.779 24.3564L132.163 14.682L130.666 14.1523Z" fill="#57B894"/>
<path d="M138.052 29.6445L135.199 37.8139L131.354 36.4537L130.828 37.9604L136.165 39.8486L139.549 30.1742L138.052 29.6445Z" fill="#57B894"/>
<path d="M3.03166 143.96L17.2241 140.908L14.1925 126.623L2.87326e-05 129.674L3.03166 143.96Z" fill="#F2F2F2"/>
<path d="M16.8294 122.807C16.8294 122.807 11.6165 126.555 13.3541 128.054C15.0918 129.553 18.5671 123.556 18.5671 123.556L16.8294 122.807Z" fill="#FFB9B9"/>
<path d="M40.9084 128.554C40.9084 128.554 39.9154 141.047 39.6672 142.796C39.419 144.545 39.1707 160.286 38.6743 162.035C38.1778 163.784 37.6813 168.032 37.6813 168.032H34.7025C34.7025 168.032 34.9507 160.286 34.206 157.288C33.4613 154.289 33.7096 146.044 33.7096 146.044C33.7096 146.044 32.2202 131.302 32.9649 129.303C33.7096 127.304 40.9084 128.554 40.9084 128.554Z" fill="#FFB9B9"/>
<path d="M36.9365 167.281C36.9365 167.281 38.1777 168.031 38.1777 168.531C38.1777 169.03 37.9295 170.28 38.1777 170.779C38.4259 171.279 40.1636 173.278 39.1706 173.778C38.1777 174.277 33.7095 173.778 33.7095 173.778C33.7095 173.778 33.9577 170.28 34.2059 170.03C34.4542 169.78 33.9577 167.281 33.9577 167.281H36.9365Z" fill="#2F2E41"/>
<path d="M21.9318 128.248C21.9318 128.248 21.6165 140.777 21.681 142.542C21.7454 144.308 20.3508 159.989 20.6621 161.78C20.9734 163.572 21.0242 167.849 21.0242 167.849L23.9865 168.164C23.9865 168.164 24.5474 160.434 25.6007 157.531C26.654 154.628 27.2669 146.402 27.2669 146.402C27.2669 146.402 30.2855 131.899 29.7533 129.833C29.2212 127.766 21.9318 128.248 21.9318 128.248Z" fill="#FFB9B9"/>
<path d="M21.8432 167.182C21.8432 167.182 20.5307 167.796 20.4786 168.293C20.4265 168.79 20.5431 170.059 20.2441 170.529C19.9451 171 18.0086 172.804 18.944 173.406C19.8793 174.008 24.375 173.983 24.375 173.983C24.375 173.983 24.4929 170.478 24.2721 170.203C24.0513 169.929 24.8056 167.496 24.8056 167.496L21.8432 167.182Z" fill="#2F2E41"/>
<path d="M37.4328 109.814C37.4328 109.814 39.4187 110.064 40.1634 114.312C40.9081 118.56 43.6386 129.304 41.4045 130.053C39.1704 130.803 32.4681 132.302 32.2199 131.802C31.9716 131.302 31.4752 130.053 31.4752 130.053C31.4752 130.053 32.2199 132.302 31.2269 132.302C30.234 132.302 20.5528 130.803 20.8011 130.053C21.0493 129.304 21.5458 123.807 21.5458 123.807C21.5458 123.807 23.0352 114.562 24.5246 113.063C24.9556 112.646 25.2903 112.139 25.5048 111.578C25.7193 111.016 25.8084 110.414 25.7658 109.814H37.4328Z" fill="#2F2E41"/>
<path d="M41.1565 107.815C41.1565 107.815 37.9295 107.065 37.433 108.065C36.9366 109.064 38.6742 110.563 39.4189 110.563C40.1636 110.563 41.4048 109.814 41.4048 109.814L41.1565 107.815Z" fill="#FFB9B9"/>
<path d="M34.4541 86.577C36.9218 86.577 38.9223 84.5634 38.9223 82.0795C38.9223 79.5956 36.9218 77.582 34.4541 77.582C31.9863 77.582 29.9858 79.5956 29.9858 82.0795C29.9858 84.5634 31.9863 86.577 34.4541 86.577Z" fill="#FFB9B9"/>
<path d="M33.7093 85.3281C33.7093 85.3281 32.9646 88.8262 33.4611 88.8262C33.9575 88.8262 29.7376 91.0749 29.7376 91.0749L26.5105 90.5752L25.5176 89.0761C25.5176 89.0761 30.7305 85.578 30.7305 83.5791C30.7305 81.5802 33.7093 85.3281 33.7093 85.3281Z" fill="#FFB9B9"/>
<path d="M31.4752 88.8259C31.4752 88.8259 32.2199 88.3262 32.4682 88.3262H34.454C34.7023 88.3262 37.9293 89.0757 37.9293 89.0757L39.9152 100.319C39.9152 100.319 36.4399 106.066 38.9223 110.564C38.9223 110.564 38.1776 110.064 34.7023 110.314C31.227 110.564 25.0211 111.313 24.7729 111.313C24.5247 111.313 24.5247 109.314 24.7729 108.815C25.0211 108.315 24.5247 108.565 24.5247 107.316C24.5247 106.066 23.78 103.818 23.78 103.818L20.3047 91.0746C20.3047 91.0746 24.7729 88.576 25.5176 88.8259C26.2623 89.0757 28.4964 89.8253 28.9929 89.5755C29.4894 89.3256 31.4752 88.8259 31.4752 88.8259Z" fill="#151414"/>
<path d="M37.1846 89.326L37.9293 89.0762C37.9293 89.0762 39.4187 88.8263 41.1563 90.3255C42.894 91.8246 49.3481 96.3221 49.3481 96.3221C49.3481 96.3221 51.8304 98.321 51.0857 100.57C50.341 102.818 49.0998 108.315 45.3763 108.066C45.3763 108.066 43.1422 111.064 41.901 110.564C40.6599 110.064 39.6669 108.066 40.4116 107.816C41.1563 107.566 43.1422 105.067 43.1422 105.067L40.6599 100.32H39.9152L37.1846 98.8207L37.1846 89.326Z" fill="#151414"/>
<path d="M22.2905 90.8242L20.3047 91.0741C20.3047 91.0741 18.567 91.8237 18.8153 95.0718C19.0635 98.32 17.3259 113.062 18.0706 114.811C18.0706 114.811 15.5882 123.306 16.0847 123.556C16.5812 123.806 19.56 125.305 19.3117 124.306C19.0635 123.306 22.0423 116.31 22.0423 116.31C22.0423 116.31 25.5176 112.562 24.0282 107.315V103.067L22.2905 90.8242Z" fill="#151414"/>
<path d="M38.1726 86.4278L35.0169 87.1197L34.6113 85.5557L34.7673 87.1745L29.6764 88.2908L29.4526 87.4274L29.5386 88.321L26.278 89.036L25.5804 82.2965C24.8633 79.5309 27.4805 76.5833 30.2281 75.8615L31.447 75.5413C33.465 75.0112 37.1332 75.4932 37.6598 77.5244C36.738 81.0658 35.1665 84.9482 38.1726 86.4278Z" fill="#2F2E41"/>
</g>
<defs>
<clipPath id="clip0_1354_66">
<rect width="230" height="174" fill="white"/>
</clipPath>
</defs>
</svg>
