<svg width="125" height="140" viewBox="0 0 125 140" fill="none" xmlns="http://www.w3.org/2000/svg">
<g clip-path="url(#clip0_103_403)">
<path d="M69.8532 33.2692H69.0835V12.1964C69.0835 8.96171 67.7977 5.85952 65.5089 3.57225C63.2202 1.28498 60.116 4.08153e-06 56.8792 0H12.2043C10.6016 -4.04187e-06 9.01464 0.315461 7.53394 0.928383C6.05323 1.5413 4.70784 2.43968 3.57456 3.57222C2.44128 4.70475 1.54231 6.04927 0.92898 7.529C0.315651 9.00873 -2.69786e-05 10.5947 -3.05176e-05 12.1964V127.804C-3.20343e-05 129.405 0.315638 130.991 0.928963 132.471C1.54229 133.951 2.44126 135.295 3.57453 136.428C4.70781 137.56 6.05321 138.459 7.53391 139.072C9.01461 139.685 10.6016 140 12.2043 140H56.8791C60.1159 140 63.2201 138.715 65.5089 136.428C67.7976 134.141 69.0835 131.038 69.0835 127.804V48.2692H69.8532V33.2692Z" fill="#E6E6E6"/>
<path d="M57.3716 3.17287H51.54C51.8082 3.82992 51.9106 4.5428 51.8381 5.24871C51.7657 5.95462 51.5206 6.63188 51.1245 7.22084C50.7285 7.80981 50.1935 8.29239 49.5669 8.62609C48.9402 8.95978 48.241 9.13435 47.531 9.1344H21.9374C21.2273 9.13435 20.5281 8.95979 19.9014 8.62609C19.2748 8.2924 18.7399 7.80981 18.3438 7.22084C17.9477 6.63187 17.7027 5.95461 17.6302 5.2487C17.5578 4.54279 17.6601 3.82991 17.9283 3.17285H12.4816C10.0644 3.17285 7.74623 4.13245 6.03701 5.84055C4.32779 7.54866 3.36756 9.86534 3.36755 12.281V127.719C3.36755 130.134 4.32778 132.451 6.037 134.159C7.74622 135.867 10.0644 136.827 12.4816 136.827H57.3716C58.5684 136.827 59.7536 136.591 60.8594 136.133C61.9652 135.676 62.9699 135.005 63.8162 134.159C64.6625 133.313 65.3339 132.309 65.7919 131.204C66.2499 130.099 66.4856 128.915 66.4856 127.719V12.281C66.4856 11.0849 66.2499 9.9005 65.7919 8.79545C65.3339 7.6904 64.6625 6.68633 63.8162 5.84056C62.9699 4.9948 61.9651 4.3239 60.8594 3.86618C59.7536 3.40845 58.5684 3.17287 57.3716 3.17287Z" fill="white"/>
<path d="M62.7815 93.8397H8.95711C8.69286 93.8394 8.43952 93.7344 8.25266 93.5477C8.06581 93.3609 7.96069 93.1078 7.96039 92.8437V79.501C7.96069 79.2369 8.06581 78.9837 8.25266 78.797C8.43952 78.6102 8.69286 78.5052 8.95711 78.5049H62.7815C63.0458 78.5052 63.2991 78.6102 63.486 78.797C63.6728 78.9837 63.7779 79.2369 63.7782 79.501V92.8439C63.7779 93.1079 63.6727 93.361 63.4859 93.5477C63.299 93.7344 63.0457 93.8394 62.7815 93.8397ZM8.95711 78.9033C8.79854 78.9034 8.64651 78.9664 8.53438 79.0785C8.42225 79.1905 8.35919 79.3425 8.35904 79.501V92.8439C8.35919 93.0023 8.42225 93.1543 8.53438 93.2663C8.64651 93.3784 8.79854 93.4414 8.95711 93.4415H62.7815C62.9401 93.4414 63.0921 93.3784 63.2042 93.2663C63.3164 93.1543 63.3794 93.0023 63.3796 92.8439V79.501C63.3794 79.3425 63.3164 79.1905 63.2042 79.0785C63.0921 78.9664 62.9401 78.9034 62.7815 78.9033H8.95711Z" fill="#E6E6E6"/>
<path d="M15.9342 90.3564C18.2462 90.3564 20.1205 88.4834 20.1205 86.1728C20.1205 83.8623 18.2462 81.9893 15.9342 81.9893C13.6221 81.9893 11.7479 83.8623 11.7479 86.1728C11.7479 88.4834 13.6221 90.3564 15.9342 90.3564Z" fill="#E6E6E6"/>
<path d="M25.6027 83.3839C25.4196 83.3869 25.2451 83.4617 25.1168 83.5921C24.9884 83.7226 24.9165 83.8982 24.9165 84.0811C24.9165 84.2641 24.9884 84.4397 25.1168 84.5701C25.2451 84.7005 25.4196 84.7753 25.6027 84.7783H58.4953C58.6803 84.7819 58.8592 84.7119 58.9926 84.5837C59.1259 84.4554 59.2028 84.2795 59.2064 84.0946C59.21 83.9097 59.1399 83.7309 59.0116 83.5977C58.8833 83.4644 58.7073 83.3875 58.5222 83.3839L58.5182 83.3839C58.5106 83.3838 58.503 83.3838 58.4953 83.3839H25.6027Z" fill="#E6E6E6"/>
<path d="M25.6027 87.5675C25.4196 87.5705 25.2451 87.6453 25.1168 87.7757C24.9884 87.9062 24.9165 88.0818 24.9165 88.2647C24.9165 88.4476 24.9884 88.6233 25.1168 88.7537C25.2451 88.8841 25.4196 88.9589 25.6027 88.9619H58.4953C58.68 88.9645 58.8583 88.8937 58.9909 88.7652C59.1235 88.6366 59.1996 88.4607 59.2027 88.2761C59.2057 88.0915 59.1354 87.9132 59.007 87.7804C58.8787 87.6475 58.7029 87.571 58.5182 87.5675C58.5106 87.5674 58.5029 87.5674 58.4953 87.5675H25.6027Z" fill="#E6E6E6"/>
<path d="M62.7815 116.152H8.95711C8.69286 116.152 8.43952 116.047 8.25266 115.86C8.06581 115.673 7.96069 115.42 7.96039 115.156V101.813C7.96069 101.549 8.06581 101.296 8.25266 101.109C8.43952 100.923 8.69286 100.818 8.95711 100.817H62.7815C63.0458 100.818 63.2991 100.923 63.486 101.109C63.6728 101.296 63.7779 101.549 63.7782 101.813V115.156C63.7779 115.42 63.6727 115.674 63.4859 115.86C63.299 116.047 63.0457 116.152 62.7815 116.152ZM8.95711 101.216C8.79854 101.216 8.64651 101.279 8.53438 101.391C8.42225 101.503 8.35919 101.655 8.35904 101.813V115.156C8.35919 115.315 8.42225 115.467 8.53438 115.579C8.64651 115.691 8.79854 115.754 8.95711 115.754H62.7815C62.9401 115.754 63.0921 115.691 63.2042 115.579C63.3164 115.467 63.3794 115.315 63.3796 115.156V101.813C63.3794 101.655 63.3164 101.503 63.2042 101.391C63.0921 101.279 62.9401 101.216 62.7815 101.216H8.95711Z" fill="#E6E6E6"/>
<path d="M15.9342 112.669C18.2462 112.669 20.1205 110.796 20.1205 108.485C20.1205 106.175 18.2462 104.302 15.9342 104.302C13.6221 104.302 11.7479 106.175 11.7479 108.485C11.7479 110.796 13.6221 112.669 15.9342 112.669Z" fill="#E6E6E6"/>
<path d="M25.6027 105.696C25.4196 105.699 25.2451 105.774 25.1168 105.905C24.9884 106.035 24.9165 106.211 24.9165 106.394C24.9165 106.577 24.9884 106.752 25.1168 106.883C25.2451 107.013 25.4196 107.088 25.6027 107.091H58.4953C58.68 107.093 58.8583 107.023 58.9909 106.894C59.1235 106.766 59.1996 106.59 59.2027 106.405C59.2057 106.22 59.1354 106.042 59.007 105.909C58.8787 105.776 58.7029 105.7 58.5182 105.696C58.5106 105.696 58.5029 105.696 58.4953 105.696H25.6027Z" fill="#E6E6E6"/>
<path d="M25.6027 109.88C25.4196 109.883 25.2451 109.958 25.1168 110.088C24.9884 110.219 24.9165 110.394 24.9165 110.577C24.9165 110.76 24.9884 110.936 25.1168 111.066C25.2451 111.197 25.4196 111.271 25.6027 111.274H58.4953C58.68 111.277 58.8583 111.206 58.9909 111.078C59.1235 110.949 59.1996 110.773 59.2027 110.589C59.2057 110.404 59.1354 110.226 59.007 110.093C58.8787 109.96 58.7029 109.883 58.5182 109.88C58.5106 109.88 58.5029 109.88 58.4953 109.88H25.6027Z" fill="#E6E6E6"/>
<path d="M34.7366 66.1515C29.716 66.1536 24.9002 64.1625 21.3486 60.6162C17.797 57.0699 15.8006 52.2589 15.7985 47.2416V47.2258C15.7985 47.1861 15.7985 47.1444 15.8008 47.1048C15.8585 36.7403 24.3536 28.2998 34.7366 28.2998C39.7593 28.2992 44.5765 30.2926 48.1285 33.8415C51.6805 37.3904 53.6763 42.204 53.6769 47.2234C53.6774 52.2429 51.6827 57.0569 48.1315 60.6066C44.5804 64.1563 39.7636 66.1508 34.7409 66.1513H34.7366V66.1515ZM34.7366 28.6978C29.842 28.7088 25.1494 30.6495 21.6785 34.0983C18.2075 37.5471 16.2386 42.2254 16.1996 47.1167C16.1975 47.159 16.1975 47.1936 16.1975 47.2252C16.197 50.89 17.284 54.4727 19.3211 57.5201C21.3581 60.5676 24.2536 62.9429 27.6415 64.3458C31.0294 65.7487 34.7575 66.1161 38.3543 65.4016C41.9512 64.6871 45.2552 62.9227 47.8487 60.3316C50.4421 57.7405 52.2085 54.439 52.9243 50.8447C53.6402 47.2504 53.2735 43.5247 51.8705 40.1386C50.4676 36.7526 48.0914 33.8584 45.0425 31.8219C41.9935 29.7855 38.4088 28.6983 34.7416 28.6978H34.7366Z" fill="#E6E6E6"/>
<path d="M60.6569 89.0348C64.9093 89.0348 68.3566 85.5898 68.3566 81.3402C68.3566 77.0905 64.9093 73.6455 60.6569 73.6455C56.4045 73.6455 52.9572 77.0905 52.9572 81.3402C52.9572 85.5898 56.4045 89.0348 60.6569 89.0348Z" fill="white"/>
<path d="M57.9827 84.8022C57.9695 84.8022 57.9563 84.8021 57.9431 84.8018H53.8045C53.2794 84.7935 52.7785 84.5793 52.4101 84.2053C52.0416 83.8313 51.8349 83.3276 51.8347 82.8027C51.8345 82.2779 52.0407 81.774 52.4089 81.3997C52.7771 81.0254 53.2778 80.8108 53.8029 80.802H57.9449C57.9653 80.8017 57.9873 80.8017 58.0092 80.802C58.5375 80.8093 59.0415 81.0251 59.4113 81.4022C59.781 81.7793 59.9866 82.2873 59.9831 82.8153C59.9796 83.3432 59.7673 83.8484 59.3926 84.2206C59.0179 84.5929 58.5111 84.8019 57.9827 84.8022Z" fill="#F7712E"/>
<path d="M125 139.531H62.6263V139.962H125V139.531Z" fill="#3F3D56"/>
<path d="M66.4693 103.057C66.4203 102.981 66.3797 102.899 66.3481 102.815L65.3542 100.155C65.2385 99.8441 65.2509 99.5003 65.3885 99.1987C65.5262 98.8971 65.778 98.6623 66.0886 98.546L88.2718 90.2681C88.5827 90.1524 88.9268 90.1647 89.2286 90.3023C89.5304 90.4399 89.7652 90.6915 89.8816 91.002L90.8754 93.6619C90.9329 93.8157 90.9595 93.9794 90.9537 94.1435C90.9479 94.3076 90.9098 94.4689 90.8416 94.6183C90.7734 94.7677 90.6764 94.9022 90.5562 95.0141C90.436 95.1261 90.2949 95.2132 90.141 95.2707L67.958 103.549C67.6909 103.648 67.3978 103.654 67.1271 103.564C66.8565 103.475 66.6244 103.296 66.4693 103.057Z" fill="#F7712E"/>
<path d="M88.2012 89.5805L79.1804 93.1753C78.8962 93.2607 78.6557 93.4523 78.509 93.7101C78.3623 93.968 78.3206 94.2725 78.3925 94.5603L79.4394 98.7491C79.4808 98.9145 79.5583 99.0688 79.6664 99.2007C79.7746 99.3327 79.9106 99.439 80.0648 99.5121C80.219 99.5852 80.3875 99.6233 80.5581 99.6236C80.7288 99.6238 80.8974 99.5863 81.0518 99.5137L90.0975 95.2588C90.384 95.1513 90.6163 94.9348 90.7435 94.6565C90.8706 94.3783 90.8823 94.0611 90.7759 93.7743L89.6885 90.2587C89.5811 89.9718 89.3641 89.7393 89.0852 89.6121C88.8064 89.485 88.4884 89.4736 88.2012 89.5805Z" fill="#2F2E41"/>
<path d="M104.71 115.678C104.426 115.71 104.141 115.645 103.899 115.493C103.658 115.341 103.476 115.112 103.383 114.843L95.6614 92.4725C95.6078 92.3173 95.5853 92.153 95.5952 91.9891C95.6052 91.8252 95.6473 91.6649 95.7193 91.5172C95.7912 91.3696 95.8915 91.2376 96.0145 91.1287C96.1375 91.0199 96.2808 90.9363 96.4361 90.8827L99.1219 89.9568C99.4356 89.8489 99.7794 89.8698 100.078 90.015C100.376 90.1602 100.604 90.4178 100.713 90.7311L108.434 113.101C108.542 113.415 108.521 113.758 108.376 114.056C108.231 114.354 107.973 114.583 107.66 114.691L104.974 115.617C104.888 115.647 104.8 115.667 104.71 115.678Z" fill="#F7712E"/>
<path d="M101.288 90.3485L104.252 99.5908C104.367 99.8643 104.372 100.172 104.266 100.449C104.16 100.726 103.952 100.952 103.684 101.079L99.7839 102.937C99.6298 103.01 99.4614 103.049 99.2907 103.049C99.1201 103.05 98.9514 103.013 98.7969 102.94C98.6423 102.868 98.5058 102.762 98.397 102.631C98.2882 102.499 98.2099 102.346 98.1678 102.18L95.698 92.4989C95.5987 92.2096 95.6181 91.8927 95.752 91.6177C95.8859 91.3426 96.1234 91.1318 96.4125 91.0314L99.8185 89.6332C100.108 89.5336 100.426 89.5529 100.701 89.687C100.977 89.8212 101.188 90.0591 101.288 90.3485Z" fill="#2F2E41"/>
<path d="M92.3152 139.659H89.4742C89.1424 139.658 88.8244 139.527 88.5899 139.292C88.3553 139.058 88.2233 138.74 88.223 138.408V114.745C88.2233 114.413 88.3553 114.095 88.5899 113.861C88.8244 113.626 89.1424 113.495 89.4742 113.494H92.3152C92.6469 113.495 92.9649 113.626 93.1995 113.861C93.4341 114.095 93.566 114.413 93.5664 114.745V138.408C93.566 138.74 93.4341 139.058 93.1995 139.292C92.9649 139.527 92.6469 139.658 92.3152 139.659Z" fill="#2F2E41"/>
<path d="M97.9345 139.659H95.0934C94.7616 139.658 94.4436 139.527 94.2091 139.292C93.9745 139.058 93.8425 138.74 93.8422 138.408V114.745C93.8425 114.413 93.9745 114.095 94.2091 113.861C94.4436 113.626 94.7616 113.495 95.0934 113.494H97.9345C98.2662 113.495 98.5842 113.626 98.8188 113.861C99.0534 114.095 99.1853 114.413 99.1857 114.745V138.408C99.1853 138.74 99.0534 139.058 98.8188 139.292C98.5842 139.527 98.2662 139.658 97.9345 139.659Z" fill="#2F2E41"/>
<path d="M100.276 117.526H87.3669C87.0097 117.526 86.6672 117.384 86.4146 117.132C86.162 116.879 86.0199 116.537 86.0195 116.18V95.2226C86.0195 93.1548 86.8415 91.1716 88.3046 89.7094C89.7678 88.2472 91.7522 87.4258 93.8214 87.4258C95.8906 87.4258 97.8751 88.2472 99.3382 89.7094C100.801 91.1716 101.623 93.1548 101.623 95.2226V116.18C101.623 116.537 101.481 116.879 101.228 117.132C100.976 117.384 100.633 117.526 100.276 117.526Z" fill="#CCCCCC"/>
<path d="M102.219 122.653H95.6743V85.6885L95.7959 85.7216C97.6391 86.2273 99.2655 87.3231 100.426 88.8411C101.586 90.3591 102.216 92.2155 102.219 94.1256V122.653Z" fill="#2F2E41"/>
<path d="M91.4366 122.653H84.8919V94.1256C84.8951 92.2155 85.5251 90.3591 86.6853 88.8411C87.8455 87.3231 89.4718 86.2273 91.315 85.7216L91.4366 85.6885V122.653Z" fill="#2F2E41"/>
<path d="M93.7238 83.0906C99.4134 83.0906 104.026 78.4812 104.026 72.7953C104.026 67.1094 99.4134 62.5 93.7238 62.5C88.0341 62.5 83.4218 67.1094 83.4218 72.7953C83.4218 78.4812 88.0341 83.0906 93.7238 83.0906Z" fill="#F7712E"/>
<path d="M105.371 70.4253C105.371 70.4253 105.948 54.4589 98.4412 59.6528C98.4412 59.6528 94.1102 45.1291 83.5231 66.8665L80.4432 69.9444C80.4432 69.9444 94.3027 68.0207 107.2 73.9841L105.371 70.4253Z" fill="#2F2E41"/>
<path d="M93.8809 77.8941C93.2445 77.8764 92.4525 77.8544 91.8424 77.409C91.6607 77.2709 91.5114 77.0948 91.405 76.893C91.2986 76.6912 91.2376 76.4686 91.2264 76.2408C91.2153 76.0789 91.2419 75.9166 91.304 75.7667C91.3662 75.6167 91.4621 75.4832 91.5845 75.3764C91.9031 75.1073 92.3685 75.0442 92.87 75.1915L92.3504 71.397L92.7318 71.3447L93.3426 75.8057L93.0241 75.6596C92.6549 75.4904 92.148 75.4042 91.833 75.6702C91.7556 75.7398 91.6954 75.8262 91.6569 75.9228C91.6184 76.0194 91.6027 76.1236 91.6111 76.2272C91.6204 76.3968 91.6662 76.5624 91.7453 76.7127C91.8244 76.863 91.935 76.9945 92.0695 77.0982C92.5443 77.4448 93.1756 77.4896 93.8916 77.5096L93.8809 77.8941Z" fill="#2F2E41"/>
<path d="M90.4642 71.7236H88.3907V72.1084H90.4642V71.7236Z" fill="#2F2E41"/>
<path d="M97.0089 71.7236H94.9354V72.1084H97.0089V71.7236Z" fill="#2F2E41"/>
<path d="M70.7544 104.038C70.4766 104.167 70.1589 104.18 69.8713 104.075C69.5836 103.97 69.3496 103.755 69.2207 103.477L62.5776 89.1681C62.4487 88.8905 62.4355 88.573 62.5408 88.2856C62.6462 87.9982 62.8614 87.7643 63.1393 87.6355C63.4171 87.5067 63.7348 87.4934 64.0224 87.5987C64.31 87.7039 64.544 87.919 64.673 88.1966L71.3161 102.506C71.445 102.783 71.4582 103.101 71.3529 103.388C71.2476 103.676 71.0323 103.91 70.7544 104.038Z" fill="#3F3D56"/>
<path d="M63.9292 88.6412C63.725 88.6412 63.5292 88.5602 63.3848 88.4158C63.2404 88.2715 63.1593 88.0758 63.1593 87.8718V78.0702H53.5347C53.3305 78.0702 53.1346 77.9891 52.9902 77.8448C52.8458 77.7005 52.7647 77.5048 52.7647 77.3007C52.7647 77.0966 52.8458 76.9009 52.9902 76.7566C53.1346 76.6123 53.3305 76.5312 53.5347 76.5312H63.9292C64.1334 76.5312 64.3293 76.6123 64.4737 76.7566C64.6181 76.9009 64.6992 77.0966 64.6992 77.3007V87.8718C64.6992 88.0758 64.6181 88.2715 64.4737 88.4158C64.3293 88.5602 64.1334 88.6412 63.9292 88.6412Z" fill="#F7712E"/>
<path d="M64.1113 89.7287C62.4536 90.4973 60.6051 90.7574 58.7995 90.4761C56.9939 90.1948 55.3123 89.3848 53.9674 88.1484C52.6224 86.912 51.6746 85.3048 51.2437 83.5301C50.8127 81.7554 50.9181 79.8928 51.5464 78.1779C52.1748 76.463 53.2978 74.9728 54.7736 73.8958C56.2494 72.8188 58.0117 72.2033 59.8375 72.1272C61.6633 72.051 63.4708 72.5177 65.0312 73.4681C66.5917 74.4185 67.8351 75.81 68.6042 77.4666C69.6326 79.6885 69.7372 82.2273 68.8949 84.5261C68.0526 86.8249 66.3323 88.6959 64.1113 89.7287ZM57.3062 75.0707C56.063 75.6472 55.0186 76.5791 54.3054 77.7487C53.5921 78.9183 53.2419 80.273 53.299 81.6414C53.3562 83.0099 53.8181 84.3307 54.6264 85.4369C55.4347 86.543 56.553 87.3847 57.84 87.8557C59.127 88.3266 60.5249 88.4056 61.8568 88.0826C63.1887 87.7596 64.3949 87.0492 65.3228 86.0412C66.2507 85.0331 66.8586 83.7728 67.0697 82.4194C67.2808 81.0661 67.0856 79.6806 66.5088 78.4381C65.7337 76.7735 64.3295 75.4841 62.6043 74.8528C60.879 74.2215 58.9737 74.2999 57.3062 75.0707Z" fill="#3F3D56"/>
</g>
<defs>
<clipPath id="clip0_103_403">
<rect width="125" height="140" fill="white"/>
</clipPath>
</defs>
</svg>
